<?xml version="1.0" encoding="utf-8"?>
<!-- Generator: Adobe Illustrator 21.1.0, SVG Export Plug-In . SVG Version: 6.00 Build 0)  -->
<svg version="1.1" id="Ebene_1" xmlns="http://www.w3.org/2000/svg" xmlns:xlink="http://www.w3.org/1999/xlink" x="0px" y="0px"
	 viewBox="0 0 688.8 174.5" style="enable-background:new 0 0 688.8 174.5;" xml:space="preserve">
<style type="text/css">
	.st0{fill:#004466;}
	.st1{fill:#9AD509;}
	.st2{fill:#9AD5EA;}
</style>
<title>Element 2</title>
<g id="Ebene_2">
	<g id="horizontal_reversed">
		<path class="st0" d="M647.4,134.1c12.8-7,23.8-16.8,32.4-28.6c6.8-9.6,9-16.3,9-18.7c0-3.3-3.5-9.7-11.4-20.1
			c-9.6-12.8-22.2-23-36.7-29.8C622,28.4,600,24.2,573.6,24.2c-19.6,0-38.7,2.4-51.3,4.2c-10.9,1.5-21.7,3.5-32.4,5.9l-2.3,0.5
			l-8.4-17.1c-1.8-3.2-4-6.2-6.7-8.7c-2.5-2.4-5.4-4.4-8.6-5.8c-2.7-1.2-5.6-2.1-8.6-2.6c-2.5-0.4-5-0.6-7.5-0.6h-51.2
			c-9.5,0.7-16.7,9-15.9,18.6c0.6,8.5,7.4,15.3,15.9,15.9h52.5l4.7,9.5l-8,2.7c-7.1,2.5-14.1,5.2-20.7,8l-2.5,1.3
			c-2,1.3-4.8,3.1-6.2,5.1c-1.2,1.9-2.1,4.1-2.5,6.3l-0.4,2.4l-50.7,0.5c-9.5,0.7-16.6,9-15.8,18.5c0.6,8.5,7.4,15.2,15.8,15.8
			l50.7-0.3l0.4,2.5c0.5,2.6,1.5,5,3.1,7.1c2,2.8,5.8,4.8,9,6h0.1c6.5,2.8,13.3,5.4,20.2,7.8l7.6,2.6l-4.8,9.7h-52.5
			c-9.5,0.7-16.7,9-15.9,18.6c0.6,8.5,7.4,15.3,15.9,15.9c5.9,0,56.3-0.3,58.7-0.6c3-0.5,5.9-1.4,8.6-2.6c3.2-1.4,6.1-3.4,8.6-5.8
			c2.6-2.5,4.8-5.4,6.6-8.6l7.6-15.2l1-2.1l2.3,0.5c7.7,1.7,15.7,3.2,23.6,4.5c7.9,1.3,17.2,2.5,25.8,3.4l1.7,0.2l1.3,2.7
			c9.1,19.5,32.2,27.9,51.7,18.8c8.5-4,15.3-10.9,19.1-19.5c0.4-0.9,1.6-4.1,1.6-4.1l1.6-0.4C628.9,142.5,639.1,138.8,647.4,134.1
			L647.4,134.1z"/>
		<path class="st1" d="M362.8,91.9c-2.5,0-4.5-2.1-4.5-4.5c0-2.5,2.1-4.5,4.5-4.5c2.5,0,4.5,2.1,4.5,4.5c0,1.2-0.5,2.3-1.3,3.2
			C365.2,91.4,364,91.9,362.8,91.9z M385.3,92.1h-9c-2.5,0-4.5-2-4.5-4.5s2-4.5,4.5-4.5h9c2.5,0,4.5,2,4.5,4.5
			S387.8,92.1,385.3,92.1z M657.5,103.2h-37.7l-11.7-22.6h-59.9c-2.5,0-4.5-2-4.5-4.5s2-4.5,4.5-4.5h65.4l11.6,22.7h41.2
			L657.5,103.2z M478,92.1h-68.6c-2.5,0-4.5-2-4.5-4.5s2-4.5,4.5-4.5h68.5c2.5,0,4.5,2,4.6,4.4C482.5,90,480.5,92.1,478,92.1z"/>
		<path class="st2" d="M399.8,154.1c1.8,1.7,1.8,4.6,0,6.4c-1.7,1.8-4.6,1.8-6.4,0c-1.5-1.5-1.8-3.9-0.6-5.7
			c1.4-2.1,4.2-2.6,6.3-1.2C399.5,153.8,399.7,153.9,399.8,154.1z M396.7,12.8c-2.5,0-4.5,2.1-4.5,4.5c0,2.5,2.1,4.5,4.5,4.5
			c2.1,0,3.9-1.5,4.3-3.5c0.5-2.4-1-4.9-3.4-5.4C397.4,12.8,397.1,12.8,396.7,12.8z M410.6,152.7c-2.5,0-4.5,2-4.5,4.5
			s2,4.5,4.5,4.5s4.5-2,4.5-4.5C415.1,154.7,413.1,152.7,410.6,152.7L410.6,152.7z M410.6,12.8c-2.5,0-4.5,2.1-4.5,4.5
			c0,2.5,2.1,4.5,4.5,4.5c2.1,0,3.9-1.5,4.3-3.5c0.5-2.4-1-4.9-3.4-5.4C411.3,12.8,411,12.8,410.6,12.8L410.6,12.8z M423.6,76.4
			c0-1.6,0.8-3,2.2-3.8c14.8-8.5,30.2-15.7,46.3-21.5l-13.2-25.4c-1.5-2.8-4.4-4.6-7.6-4.6h-17.6c-2.5,0-4.5-2-4.5-4.5
			s2-4.5,4.5-4.5h17.6c6.5,0,12.6,3.6,15.5,9.5l15.5,29.9c1.1,2.4,0.1,5.2-2.3,6.4c-0.1,0.1-0.3,0.1-0.4,0.2
			c-14.6,4.9-28.7,11.1-42.2,18.4H423.6z M676.6,85.1c-0.2-0.5-5.9-13-21.3-25.4c-14-11.3-39.1-24.7-79.5-24.7
			c-28.9,0-53.2,2.8-78.8,9.1c-0.9,0.3-1.7,0.9-2.3,1.7c-1.2,1.4-1.5,3.4-0.6,5l26.1,51.8H579c2.5,0,4.5-2,4.5-4.5s-2-4.5-4.5-4.5
			h-53.3l-21.1-42c22.9-5.2,45.1-7.5,71.2-7.5c37.5,0,60.7,12.2,73.5,22.4c10.8,8.6,16.4,17,18.4,20.5c-3.4,7.8-22.3,41.7-89.8,41.7
			s-119.6-20.7-139-29.7h-15.1c0.1,1.5,0.9,2.9,2.3,3.7c1.3,0.7,18.2,10.1,46.5,19L458.8,148c-1.5,2.8-4.4,4.6-7.6,4.6h-17.6
			c-2.5,0-4.5,2-4.5,4.5s2,4.5,4.5,4.5h17.6c6.6,0,12.6-3.7,15.6-9.6l14.5-28c22.7,6.4,45.9,10.6,69.4,12.4
			c1.8,14.8,15.2,25.4,30,23.6c12.7-1.5,22.6-11.7,23.7-24.5c18.4-2.8,38.2-9,53.8-22.2c14.5-12.2,18.5-24.6,18.7-25.1
			C677.1,87.2,677,86.1,676.6,85.1L676.6,85.1z M577.4,151.3c-8.5,0-15.9-6-17.6-14.3c5.8,0.3,11.8,0.5,17.9,0.5
			c5.4,0,11.2-0.2,17.3-0.8C593.5,145.2,586.1,151.3,577.4,151.3L577.4,151.3z"/>
		<path class="st1" d="M17.8,67.4h-0.4c-2.8,0-5.5,0.6-7.9,1.9C9.1,69.4,9,69.4,9,69V57.9c-0.1-2.5-2-4.4-4.5-4.5H0v44.4
			c0,9.6,7.8,17.4,17.4,17.4l0,0h0.5c9.6-0.1,17.4-7.9,17.3-17.5c0,0,0,0,0,0V84.8C35.2,75.2,27.4,67.4,17.8,67.4
			C17.8,67.4,17.8,67.4,17.8,67.4z M23.7,103.6c-1.5,1.6-3.7,2.5-5.9,2.5h-0.4c-2.2,0-4.4-0.9-5.9-2.5C9.9,102.1,9,99.9,9,97.7V84.8
			c0-2.2,0.9-4.4,2.5-5.9c1.5-1.6,3.7-2.5,5.9-2.5h0.3c2.2,0,4.4,0.9,5.9,2.5c1.6,1.5,2.5,3.7,2.5,5.9v12.9h0.1
			C26.2,99.9,25.3,102.1,23.7,103.6z M58,58.7c0,3-2.5,5.4-5.5,5.4c-3,0-5.4-2.5-5.4-5.5c0-3,2.5-5.4,5.5-5.4c1.4,0,2.8,0.6,3.8,1.6
			C57.5,55.8,58,57.2,58,58.7z M57.1,110.7c0,1.2-0.4,2.4-1.3,3.3c-1.8,1.7-4.6,1.7-6.4,0c-0.9-0.9-1.3-2.1-1.3-3.3V71.9
			c0-2.5,2-4.6,4.5-4.6c2.5,0,4.6,2,4.6,4.5c0,0,0,0,0,0L57.1,110.7L57.1,110.7z M93.9,107.4c0.8,0.9,1.3,2.1,1.2,3.3
			c0,1.2-0.4,2.4-1.3,3.2c-0.8,0.9-2,1.3-3.2,1.3h-2.5c-9.6-0.1-17.4-7.9-17.3-17.5c0,0,0,0,0,0v-40c0-2.5,2-4.6,4.5-4.6
			c2.5,0,4.6,2,4.6,4.5c0,0,0,0,0,0v9c-0.1,0.3,0.1,0.5,0.4,0.6c0.1,0,0.2,0,0.2,0h10.2c2.5,0,4.5,2,4.5,4.6c0,2.5-2,4.5-4.5,4.5
			H80.5c-0.3-0.1-0.5,0.1-0.6,0.4c0,0.1,0,0.2,0,0.2v20.8c0,2.2,0.9,4.4,2.5,5.9c1.5,1.6,3.7,2.5,5.9,2.5h2.4c1.2,0,2.4,0.4,3.2,1.3
			L93.9,107.4z"/>
		<path class="st1" d="M137.8,106.2c-3.1,5.7-9,9.2-15.4,9.2H122c-4.7,0.1-9.1-1.8-12.4-5.1c-3.3-3.2-5.2-7.7-5.1-12.3V84.7
			c0.1-9.6,7.9-17.4,17.5-17.5h0.4c3.1,0,6.2,0.9,8.8,2.5c2.7,1.6,4.9,3.9,6.4,6.6c0.4,0.7,0.6,1.4,0.6,2.2c0,1.2-0.4,2.4-1.3,3.2
			c-0.8,0.9-2,1.3-3.2,1.3c-1.7,0.1-3.3-0.9-4-2.4c-1.4-2.8-4.3-4.5-7.4-4.4h-0.4c-4.6,0-8.4,3.8-8.4,8.4l0,0v13.3
			c0.1,4.6,3.8,8.3,8.4,8.3h0.4c3.1,0.1,6-1.6,7.4-4.4c0.7-1.5,2.3-2.5,4-2.4c2.5-0.1,4.5,1.8,4.6,4.3c0,0.1,0,0.2,0,0.3
			c0,0.7-0.2,1.5-0.6,2.1L137.8,106.2z M175.3,78c1.2,0,2.4-0.4,3.3-1.3c0.9-0.8,1.3-2,1.3-3.2c0.1-2-1.2-3.8-3.1-4.3l-1.6-0.6
			c-2.1-0.8-4.3-1.3-6.5-1.3c-4,0-7.9,1.2-11.1,3.5c-5.3,3.5-8.4,9.5-8.2,15.9v23.8c-0.1,2.5,1.9,4.5,4.4,4.6c0,0,0,0,0,0h0.1
			c1.2,0,2.4-0.4,3.3-1.3c0.9-0.9,1.3-2.1,1.3-3.3V86.8c-0.3-5.4,3.9-10,9.3-10.3c1.5-0.1,3,0.2,4.4,0.8l1.6,0.6l1.5,0.3V78z
			 M220.5,98c0,9.6-7.8,17.4-17.4,17.4h-0.4c-9.6,0-17.4-7.8-17.4-17.4c0,0,0,0,0,0V84.7c-0.1-4.7,1.8-9.1,5.1-12.4
			c3.2-3.3,7.7-5.2,12.3-5.1h0.4c4.6-0.1,9.1,1.8,12.3,5.1c3.3,3.3,5.2,7.7,5.1,12.4L220.5,98L220.5,98L220.5,98z M211.6,84.7
			c0-2.3-0.9-4.4-2.5-6c-1.5-1.6-3.7-2.5-5.9-2.5h-0.4c-2.2,0-4.4,0.9-5.9,2.5c-1.6,1.6-2.5,3.7-2.5,6v13.2c0.1,4.6,3.7,8.2,8.3,8.3
			h0.4c4.6-0.1,8.2-3.7,8.3-8.3l0.2,0.1L211.6,84.7z M283.8,73.3c0.1-0.4,0.2-0.8,0.2-1.2c-0.1-2.5-2-4.4-4.5-4.5
			c-2.1-0.1-4,1.3-4.4,3.4l-7.3,23.7l-7.5-23.6c-0.8-2.2-2.1-3.4-4.4-3.4s-3.6,1.2-4.4,3.4c0,0-7.4,23.8-7.4,23.7l-7.3-23.7
			c-0.5-2.1-2.4-3.5-4.5-3.4c-1.2,0-2.4,0.4-3.2,1.3c-0.9,0.8-1.4,2-1.4,3.2c0,0.4,0.1,0.8,0.2,1.2l11.8,38.5c0.7,2.2,2,3.4,4.4,3.4
			s3.7-1.2,4.5-3.4c0,0,7.3-22.8,7.3-22.7l7.4,22.7c0.8,2.2,2.1,3.4,4.5,3.4s3.7-1.2,4.4-3.4L284,73.4L283.8,73.3z M326.6,97.8
			c0,9.6-7.8,17.4-17.4,17.4h-0.5c-9.6-0.1-17.4-7.9-17.3-17.5c0,0,0,0,0,0V84.8c0-9.6,7.8-17.4,17.4-17.4h0.4
			c2.8,0,5.5,0.6,7.9,1.9c0.4,0.1,0.5,0.1,0.5-0.3V57.9c0.1-2.5,2-4.4,4.5-4.5h4.5C326.6,53.4,326.6,97.8,326.6,97.8z M317.6,84.8
			c0-2.2-0.9-4.4-2.5-5.9c-1.5-1.6-3.7-2.5-5.9-2.5h-0.4c-2.2,0-4.4,0.9-5.9,2.5c-1.6,1.5-2.5,3.7-2.5,5.9v12.9
			c0,2.2,0.9,4.4,2.5,5.9c1.5,1.6,3.7,2.5,5.9,2.5h0.4c2.2,0,4.4-0.9,5.9-2.5H315c1.6-1.5,2.6-3.7,2.6-5.9L317.6,84.8z"/>
	</g>
</g>
</svg>
