<?xml version="1.0" encoding="utf-8"?>
<!-- Generator: Adobe Illustrator 23.0.3, SVG Export Plug-In . SVG Version: 6.00 Build 0)  -->
<svg version="1.1" id="Layer_1" xmlns="http://www.w3.org/2000/svg" xmlns:xlink="http://www.w3.org/1999/xlink" x="0px" y="0px"
	 viewBox="0 0 300 300" style="enable-background:new 0 0 300 300;" xml:space="preserve">
<style type="text/css">
	.st0{fill:#FFFFFF;}
	.st1{fill:#FF9933;}
	.st2{fill:#330000;}
</style>
<g>
	<path class="st0" d="M242.91,217.29h-5.98c-5.04,0-9.3,3.34-10.69,7.92c-3.23,0.55-6.19,1.7-8.81,3.42
		c-2.96-2.05-7.09-3.75-12.68-3.75c-3.89,0-8.13,0.71-11.94,2c-0.87,0.3-1.97,0.75-2.41,0.93c-0.03,0.01-0.05,0.03-0.08,0.04
		c-3.52-1.98-7.58-3.01-12.02-3.01c-0.3,0-0.6,0.02-0.9,0.03c17.33-4.67,33.22-13.8,46.25-26.83
		c19.61-19.61,30.41-45.69,30.41-73.42c0-27.73-10.8-53.81-30.41-73.42c-19.61-19.61-45.69-30.41-73.42-30.41
		S96.43,31.59,76.82,51.2c-19.61,19.61-30.41,45.69-30.41,73.42c0,27.74,10.8,53.81,30.41,73.42
		c13.03,13.04,28.93,22.17,46.26,26.84c-4.76,0.23-9.14,1.64-12.76,4.09c-3.96-2.68-8.83-4.12-14.12-4.12
		c-4.74,0-9.14,1.16-12.85,3.32c-3.92-2.17-8.26-3.32-12.75-3.32c-7.99,0-15.35,3.63-19.7,9.7c-2.94,4.12-4.5,9.13-4.5,14.5
		s1.56,10.38,4.5,14.5c4.35,6.08,11.71,9.7,19.7,9.7c4.48,0,8.82-1.15,12.74-3.31c3.71,2.16,8.12,3.32,12.86,3.32
		c5.29,0,10.16-1.44,14.12-4.11c3.96,2.67,8.83,4.11,14.12,4.11c3.55,0,6.91-0.65,9.93-1.88c1.78,1.2,3.92,1.9,6.23,1.9h5.98
		c2.28,0,4.4-0.68,6.17-1.86c0.82,0.56,1.7,1.01,2.64,1.34c1.35,4.65,5.63,8.04,10.71,8.04h5.98c5.03,0,9.27-3.32,10.68-7.89
		c2.79-0.47,5.38-1.41,7.73-2.76c3.02,1.94,6.54,3,10.53,3.14c0.24,0.01,0.49,0.01,0.74,0.01c1.32,0,3.01-0.06,4.92-0.38
		c0.91,0.24,1.86,0.36,2.84,0.36h5.59c2.24,0,4.32-0.67,6.07-1.8c2.9,1.19,6.1,1.8,9.53,1.8c1.3,0,2.56-0.09,3.79-0.26
		c0.78,0.17,1.59,0.26,2.42,0.26h5.98c6.17,0,11.16-5,11.16-11.16v-33.65C254.07,222.29,249.08,217.29,242.91,217.29z"/>
	<g>
		<g>
			<path class="st1" d="M242.91,124.62c0-51.18-41.49-92.67-92.67-92.67c-51.18,0-92.67,41.49-92.67,92.67
				c0,51.18,41.49,92.67,92.67,92.67C201.42,217.29,242.91,175.8,242.91,124.62z"/>
			<g>
				<path class="st0" d="M190.87,81.62c-6.2,0-11.9,2.15-16.43,5.74c-4.05-9.58-13.5-16.3-24.48-16.3
					c-9.33,0-17.52,4.85-22.27,12.17c-3.37-1.56-7.12-2.42-11.07-2.42c-14.66,0-26.59,12-26.59,26.74
					c0,11.59,7.36,21.46,17.63,25.17l-4.99,40.55c-0.14,1.25,0.23,2.5,1.03,3.44c0.8,0.94,1.96,1.48,3.16,1.48h72.37
					c2.12,0,3.93-1.65,4.2-3.82l4.83-39.4c0.86,0.08,1.72,0.14,2.6,0.14c14.67,0,26.59-12.01,26.59-26.75
					C217.47,93.61,205.54,81.62,190.87,81.62z"/>
				<path class="st2" d="M193.21,78.91c-6.59,0-12.66,2.29-17.47,6.11c-4.3-10.18-14.33-17.34-26.02-17.34
					c-9.9,0-18.62,5.16-23.66,12.94c-3.59-1.65-7.57-2.58-11.76-2.58c-15.59,0-28.26,12.76-28.26,28.42
					c0,12.31,7.83,22.81,18.74,26.75l-5.31,43.1c-0.16,1.31,0.25,2.66,1.08,3.67c0.86,0.98,2.09,1.57,3.37,1.57h76.91
					c2.27,0,4.18-1.75,4.46-4.07l5.15-41.87c0.92,0.08,1.84,0.15,2.77,0.15c15.57,0,28.25-12.76,28.25-28.43
					C221.46,91.66,208.78,78.91,193.21,78.91z M193.21,126.45c-0.55,0-1.08-0.04-1.63-0.09l0.63-5.05c0.31-2.54-1.44-4.89-3.9-5.21
					c-2.47-0.31-4.71,1.48-5.04,4.03c0,0-1.87,15.13-3.59,29.21h-58.63c-2.49,0-4.5,2.08-4.5,4.66c0,2.56,2.01,4.64,4.5,4.64h57.49
					c-0.8,6.38-1.43,11.58-1.68,13.6c-6.63,0-59.43,0-67.84,0c0.85-6.93,4.4-35.76,5.74-46.69c-0.15,0-0.32,0.01-0.47,0.01
					c-10.62,0-19.27-8.58-19.27-19.11c0-10.55,8.65-19.12,19.27-19.12c6.05,0,11.45,2.79,14.99,7.11c0.48,0.67,1.13,0.67,1.26-0.25
					c0.95-9.66,9.2-17.23,19.17-17.23c9.59,0,17.58,6.99,19.03,16.12c-0.7,1.22-1.32,2.49-1.82,3.79l8.03,4.34
					c2.57-7.56,9.79-13.01,18.25-13.01c10.62,0,19.26,8.57,19.26,19.11C212.47,117.88,203.82,126.45,193.21,126.45z"/>
			</g>
		</g>
		<g>
			<path class="st2" d="M204.75,236.05c-2.49,0-5.55,0.46-8.35,1.41c-0.59,0.2-1.67,0.65-1.67,0.65l1.37,4.95l0.25-0.08
				c0,0,0.93-0.29,1.47-0.45c0.03-0.01,3.29-1.13,6.14-1.13c1.94,0,3.37,0.39,4.27,1.17c0.82,0.7,1.26,1.93,1.3,3.64h-4.97
				c-3.64,0-6.51,0.77-8.52,2.28c-1.91,1.44-2.88,3.44-2.88,5.95c0,2.31,0.83,4.2,2.47,5.64c1.48,1.29,3.37,1.95,5.78,2.03
				c0.12,0,0.24,0.01,0.37,0.01c1.55,0,3.58-0.11,5.6-0.94c0.61-0.25,1.38-0.6,2.15-1.09v2.01h5.59v-16.2c0-2.68-0.84-4.95-2.5-6.74
				C210.75,237.1,208.1,236.05,204.75,236.05z M209.53,251.49v2.18c-0.65,0.79-1.71,1.6-2.85,2.18c-1.26,0.64-2.35,0.96-3.53,1.03
				c-3.03,0.2-4.78-0.8-4.78-2.68c0-0.99,0.99-1.81,1.97-2.19c1.18-0.46,2.98-0.52,4.76-0.52H209.53z"/>
			<path class="st2" d="M178.31,236.01c-2.33,0-4.42,0.47-6.21,1.4v-1.4h-5.98v33.61h5.98v-8.92c1.79,0.93,3.88,1.4,6.21,1.4
				c3.78,0,6.87-1.22,9.18-3.62c2.29-2.42,3.45-5.59,3.45-9.43c0-3.83-1.16-7-3.46-9.43C185.18,237.23,182.09,236.01,178.31,236.01z
				 M173.67,254.99c-0.64-0.59-1.18-1.38-1.59-2.35c-0.42-0.97-0.63-2.18-0.63-3.6c0-1.42,0.21-2.64,0.63-3.61
				c1.17-2.71,3.21-4.03,6.23-4.03c1.82,0,3.37,0.57,4.61,1.69c1.49,1.39,2.25,3.38,2.25,5.91c0,2.63-0.75,4.64-2.24,5.99
				c-0.66,0.58-1.4,1.01-2.22,1.28c-1.66,0.56-3.21,0.56-4.87,0C175.04,256.02,174.31,255.58,173.67,254.99z"/>
			<path class="st2" d="M236.93,228.45v8.96c-1.79-0.93-3.88-1.4-6.21-1.4c-3.78,0-6.87,1.22-9.17,3.62
				c-2.29,2.42-3.45,5.59-3.45,9.43c0,3.83,1.16,7,3.46,9.43c2.3,2.4,5.38,3.62,9.17,3.62c2.33,0,4.42-0.47,6.21-1.4v1.4h5.98
				v-33.65H236.93z M237.58,249.08c0,1.42-0.21,2.64-0.63,3.61c-1.17,2.71-3.21,4.03-6.23,4.03c-1.82,0-3.37-0.57-4.61-1.69
				c-1.49-1.39-2.25-3.38-2.25-5.91c0-2.63,0.75-4.64,2.24-5.99c0.66-0.58,1.4-1.01,2.22-1.28c0.83-0.28,1.63-0.42,2.44-0.42
				c0.81,0,1.61,0.14,2.44,0.42c0.8,0.27,1.53,0.7,2.18,1.29c0.64,0.59,1.18,1.38,1.59,2.35
				C237.37,246.45,237.58,247.66,237.58,249.08z"/>
			<polygon class="st2" points="163.34,240.61 159.64,235.91 146.59,246.17 146.59,228.45 140.61,228.45 140.61,262.11 
				146.59,262.11 146.59,253.78 149.76,251.29 159.09,262.21 163.64,258.32 154.47,247.58 			"/>
			<path class="st2" d="M96.21,236.01c-3.97,0-7.28,1.25-9.57,3.63c-2.35,2.4-3.54,5.56-3.54,9.42c0,3.85,1.19,7.02,3.53,9.42
				c2.29,2.37,5.6,3.62,9.57,3.62c3.97,0,7.28-1.25,9.57-3.62c2.34-2.4,3.53-5.56,3.53-9.42c0-3.85-1.19-7.02-3.54-9.42
				C103.48,237.27,100.17,236.01,96.21,236.01z M100.99,254.98c-0.68,0.58-1.45,1.01-2.29,1.28c-0.83,0.28-1.67,0.42-2.49,0.42
				c-0.82,0-1.66-0.14-2.49-0.42c-0.84-0.27-1.61-0.7-2.29-1.28c-1.53-1.34-2.31-3.36-2.31-5.98c0-2.57,0.76-4.5,2.32-5.9
				c1.28-1.13,2.88-1.7,4.77-1.7c1.89,0,3.49,0.57,4.77,1.69c1.56,1.4,2.32,3.33,2.32,5.9
				C103.29,251.63,102.51,253.64,100.99,254.98z"/>
			<path class="st2" d="M124.45,236.01c-3.97,0-7.28,1.25-9.57,3.63c-2.35,2.4-3.54,5.56-3.54,9.42c0,3.85,1.19,7.02,3.53,9.42
				c2.29,2.37,5.6,3.62,9.57,3.62c3.97,0,7.28-1.25,9.57-3.62c2.34-2.39,3.53-5.56,3.53-9.42c0-3.85-1.19-7.02-3.54-9.42
				C131.73,237.27,128.42,236.01,124.45,236.01z M129.23,254.98c-0.68,0.58-1.45,1.01-2.29,1.28c-0.84,0.28-1.66,0.42-2.49,0.42
				c-0.82,0-1.66-0.14-2.49-0.42c-0.84-0.27-1.61-0.7-2.29-1.28c-1.53-1.34-2.31-3.36-2.31-5.98c0-2.57,0.76-4.5,2.32-5.9
				c1.28-1.13,2.88-1.7,4.77-1.7c1.89,0,3.49,0.57,4.77,1.69c1.56,1.4,2.32,3.33,2.32,5.9
				C131.53,251.63,130.76,253.64,129.23,254.98z"/>
			<path class="st2" d="M63.54,249.05c0,1.08,0.23,2.77,0.89,3.97c0.53,0.97,1.3,1.81,2.29,2.49c1.1,0.76,2.51,1.16,4.06,1.16
				c0.72,0,1.45-0.09,2.16-0.26c1.9-0.46,3.56-1.5,5.08-3.17l0.18-0.19l3.89,3.8c0,0-1.09,1.25-2.34,2.17
				c-2.48,1.83-5.51,3.06-9.15,3.06c-4.43,0-8.41-1.95-10.62-5.03c-1.66-2.32-2.42-5.17-2.42-8c0-2.83,0.75-5.68,2.42-8
				c2.2-3.08,6.18-5.03,10.62-5.03c3.65,0,6.67,1.23,9.15,3.06c1.25,0.92,2.34,2.17,2.34,2.17l-3.89,3.8l-0.18-0.19
				c-1.52-1.68-3.18-2.71-5.08-3.17c-0.71-0.17-1.44-0.26-2.16-0.26c-1.56,0-2.96,0.4-4.06,1.16c-0.99,0.68-1.76,1.52-2.29,2.49
				C63.78,246.28,63.54,247.97,63.54,249.05z"/>
		</g>
	</g>
</g>
</svg>
