<?xml version="1.0" encoding="UTF-8"?>
<svg viewBox="0 0 676 267" version="1.1" xmlns="http://www.w3.org/2000/svg" xmlns:xlink="http://www.w3.org/1999/xlink">
    <g id="depfu-left" stroke="none" stroke-width="1" fill="none" fill-rule="evenodd">
        <g id="depfu-left-bw" transform="translate(1.000000, 29.000000)" fill="#0000FF" fill-rule="nonzero">
            <path d="M0.12,108.62 L0.12,139.68 C-0.56697753,146.360613 2.3889896,152.895057 7.86,156.79 L61.2,195.31 L117.27,233.31 C123.95629,237.823872 132.7273,237.772255 139.36,233.18 L196.44,193.52 C217.73,178.72 227.44,158 225.63,137.79 L225.63,112.17 C224.11,129.17 214.4,145.92 196.44,158.4 L139.33,198.11 C132.6973,202.702255 123.92629,202.753872 117.24,198.24 L61.17,160.24 L7.83,121.72 C3.51732019,118.64542 0.714387697,113.882979 0.12,108.62 Z" id="Lower_2"></path>
            <path d="M0.12,38.93 L0.12,69.99 C-0.56697753,76.6706133 2.3889896,83.2050574 7.86,87.1 L61.2,125.62 L117.27,163.62 C123.95629,168.133872 132.7273,168.082255 139.36,163.49 L196.47,123.78 C217.76,108.98 227.47,88.26 225.66,68.05 L225.66,42.52 C224.14,59.52 214.43,76.27 196.47,88.75 L139.33,128.42 C132.6973,133.012255 123.92629,133.063872 117.24,128.55 L61.17,90.55 L7.84,52.02 C3.52597132,48.9496412 0.719522298,44.1910379 0.12,38.93 Z" id="Lower_1"></path>
            <path d="M173.66,17.19 L163.29,10.11 C139.66,-3.75 115.29,-3.07 90.51,10.41 L54.06,35.52 C53.4660116,35.8497146 53.0975654,36.4756371 53.0975654,37.155 C53.0975654,37.8343629 53.4660116,38.4602854 54.06,38.79 L79.36,56.79 L95.71,45.52 L95.05,45.86 L96.72,44.86 L95.72,45.56 C120.3,32.18 144.51,31.41 167.98,44.96 L167.43,44.59 L167.98,44.96 L168.5,45.26 L178.87,52.34 C179.25,52.6 179.61,52.87 179.97,53.13 C191.54,41.52 189.43,27.87 173.66,17.19 Z" id="Inner"></path>
            <path d="M278.49,154.02 C277.561077,152.883832 277.106173,151.433154 277.22,149.97 L277.22,58.97 C277.091785,57.459223 277.546149,55.9566046 278.49,54.77 C279.336667,53.87 280.76,53.42 282.76,53.42 L312.76,53.42 C329.66,53.42 342.586667,57.47 351.54,65.57 C360.493333,73.67 364.97,86.62 364.97,104.42 C364.97,138.42 347.57,155.42 312.77,155.42 L282.77,155.42 C280.77,155.386667 279.343333,154.92 278.49,154.02 Z M313.97,140.82 C324.57,140.82 332.543333,138.07 337.89,132.57 C343.236667,127.07 345.903333,117.67 345.89,104.37 C345.89,91.07 343.223333,81.6966667 337.89,76.25 C332.556667,70.8033333 324.583333,68.08 313.97,68.08 L296.42,68.08 L296.42,140.82 L313.97,140.82 Z" id="D"></path>
            <path d="M392.37,153.64 C386.233565,151.12824 380.983898,146.84635 377.29,141.34 C373.57,135.793333 371.71,128.87 371.71,120.57 C371.71,107.67 375.16,97.87 382.06,91.17 C388.96,84.47 398.76,81.12 411.46,81.12 C424.06,81.12 433.583333,84.37 440.03,90.87 C446.476667,97.37 449.703333,106.77 449.71,119.07 C449.71,122.57 448.11,124.32 444.91,124.32 L389.82,124.32 C389.82,130.92 392.12,135.993333 396.72,139.54 C401.32,143.086667 407.72,144.86 415.92,144.86 C423.372563,144.974916 430.722327,143.111596 437.22,139.46 C437.713895,139.130515 438.279827,138.924722 438.87,138.86 C439.648912,138.918885 440.308041,139.458173 440.52,140.21 L444.12,146.66 C444.395429,147.16786 444.549456,147.732625 444.57,148.31 C444.498414,149.166068 443.987177,149.923456 443.22,150.31 C439.098411,152.818851 434.621126,154.690005 429.94,155.86 C424.561292,157.131669 419.046467,157.736218 413.52,157.66 C406.271807,157.751259 399.079261,156.384165 392.37,153.64 L392.37,153.64 Z M432.27,113.22 C432.27,107.02 430.543333,102.17 427.09,98.67 C423.636667,95.17 418.463333,93.42 411.57,93.42 C404.57,93.42 399.196667,95.22 395.45,98.82 C391.703333,102.42 389.83,107.22 389.83,113.22 L432.28,113.22 L432.27,113.22 Z" id="E"></path>
            <path d="M460.65,184.21 C459.721077,183.073832 459.266173,181.623154 459.38,180.16 L459.38,90.64 C459.379088,90.5245049 459.435213,90.4159956 459.53,90.35 C464.154655,87.3152511 469.250394,85.0681248 474.61,83.7 C480.827597,81.9191532 487.262402,81.0104726 493.73,81 C522.73,81 537.23,93.8 537.23,119.4 C537.23,131.2 534.053333,140.5 527.7,147.3 C521.346667,154.1 512.62,157.506667 501.52,157.52 C492.42,157.52 480.84,156.52 478.64,156.35 C478.544752,156.341562 478.450353,156.373623 478.379945,156.438322 C478.309536,156.503022 478.269627,156.59438 478.27,156.69 L478.27,180.17 C478.405593,181.661695 477.94543,183.146443 476.99,184.3 C476.136667,185.113333 474.663333,185.52 472.57,185.52 L464.92,185.52 C462.92,185.52 461.496667,185.083333 460.65,184.21 Z M512.93,137.41 C516.43,133.11 518.18,126.91 518.18,118.81 C518.18,110.143333 516.13,103.966667 512.03,100.28 C507.93,96.5933333 501.63,94.77 493.13,94.81 C486.936667,94.81 482.05,95.7266667 478.47,97.56 C478.353751,97.6197501 478.280481,97.7392956 478.28,97.87 L478.28,142.52 C478.274263,142.698562 478.411668,142.849265 478.59,142.86 C480.59,143.01 492.2,143.86 497.03,143.86 C504.15,143.86 509.446667,141.71 512.92,137.41 L512.93,137.41 Z" id="P"></path>
            <path d="M551.71,154.02 C550.781077,152.883832 550.326173,151.433154 550.44,149.97 L550.44,97.47 L543.44,97.47 C541.44,97.47 540.063333,97.0466667 539.31,96.2 C538.455945,95.0010193 538.058704,93.5361944 538.19,92.07 L538.19,88.62 C538.050794,87.1780476 538.449707,85.7355478 539.31,84.57 C540.063333,83.77 541.44,83.37 543.44,83.37 L550.44,83.37 L550.44,77.82 C550.44,69.42 552.69,62.87 557.19,58.17 C561.69,53.47 568.44,51.12 577.44,51.12 C586.54,51.12 593.69,53.07 598.89,56.97 C599.675317,57.3867947 600.186856,58.1825228 600.24,59.07 C600.238202,59.6730811 600.026002,60.2566294 599.64,60.72 L595.89,67.02 C595.579762,67.7020264 594.969954,68.2009602 594.24,68.37 C593.657256,68.2751831 593.097533,68.0716476 592.59,67.77 C590.843393,66.7835949 589.01292,65.9536913 587.12,65.29 C585.249872,64.7070965 583.298586,64.4268945 581.34,64.46 C577.04,64.46 574.016667,65.51 572.27,67.61 C570.523333,69.71 569.67,73.0133333 569.71,77.52 L569.71,83.37 L588.16,83.37 C590.16,83.37 591.56,83.77 592.36,84.57 C593.272374,85.7121009 593.702927,87.1652175 593.56,88.62 L593.56,92.07 C593.694879,93.548711 593.26628,95.023805 592.36,96.2 C591.56,97.0466667 590.16,97.47 588.16,97.47 L569.71,97.47 L569.71,149.97 C569.819995,151.434369 569.361581,152.884821 568.43,154.02 C567.576667,154.92 566.1,155.37 564,155.37 L556,155.37 C554.013333,155.37 552.583333,154.92 551.71,154.02 Z" id="F"></path>
            <path d="M636.71,143.97 C631.81,143.97 628.11,142.843333 625.61,140.59 C623.11,138.336667 621.86,134.813333 621.86,130.02 L621.86,88.92 C621.989708,87.3958056 621.503501,85.883163 620.51,84.72 C619.2938,83.7157435 617.731078,83.2307606 616.16,83.37 L608.16,83.37 C606.16,83.37 604.736667,83.82 603.89,84.72 C602.946149,85.9066046 602.491785,87.409223 602.62,88.92 L602.62,130.52 C602.62,139.52 605.84,145.61 610.12,150.84 C615.71,157.66 627.5,157.66 635.7,157.66 L640.7,157.66 C648.9,157.66 660.7,157.66 666.28,150.84 C670.56,145.61 673.78,139.51 673.78,130.52 L673.78,88.92 C673.908215,87.409223 673.453851,85.9066046 672.51,84.72 C671.663333,83.82 670.24,83.37 668.24,83.37 L660.24,83.37 C658.668922,83.2307606 657.1062,83.7157435 655.89,84.72 C654.896499,85.883163 654.410292,87.3958056 654.54,88.92 L654.54,130.02 C654.54,134.82 653.29,138.343333 650.79,140.59 C648.29,142.836667 644.596667,143.963333 639.71,143.97" id="U"></path>
        </g>
    </g>
</svg>