<?xml version="1.0" encoding="utf-8"?>
<!-- Generator: Adobe Illustrator 22.0.1, SVG Export Plug-In . SVG Version: 6.00 Build 0)  -->
<svg preserveAspectRatio="xMidYMid meet"  version="1.1" id="Laag_1" xmlns="http://www.w3.org/2000/svg" xmlns:xlink="http://www.w3.org/1999/xlink" x="0px" y="0px"
	 viewBox="0 0 1600 240" width="1600" height="240" style="enable-background:new 0 0 1600 240;" xml:space="preserve">
<style type="text/css">
	.st0{fill:#00ABE9;}
</style>
<desc>Created with Sketch.</desc>
<g id="logo" transform="translate(26.000000, 19.000000)">
	<g id="invoicefinance" transform="translate(38.253834, 11.139382)">
		<path id="Fill-8" d="M250.7,55.3c2.2,0,3.6,1.4,3.6,3.6v128.5c0,1.4-1.4,3.6-3.6,3.6h-25.1c-2.2,0-3.6-1.4-3.6-3.6V58.9
			c0-1.4,1.4-3.6,3.6-3.6H250.7z"/>
		<path id="Fill-10" d="M304.6,99.1c8.6-8.6,19.4-12.2,30.1-12.2c11.5,0,21.5,2.9,29.4,10c7.2,6.5,11.5,17.2,11.5,32.3v58.1
			c0,1.4-1.4,3.6-3.6,3.6h-21.5c-1.4,0-3.6-1.4-3.6-3.6v-51c0-7.2-0.7-14.4-5-19.4c-2.9-2.9-7.2-5-12.9-5
			c-17.2,0-23.7,16.5-23.7,30.9v44.5c0,1.4-1.4,3.6-3.6,3.6h-22.3c-2.2,0-3.6-1.4-3.6-3.6V92.6c0-2.2,1.4-3.6,3.6-3.6H301
			c1.4,0,3.6,1.4,3.6,3.6V99.1L304.6,99.1z"/>
		<path id="Fill-12" d="M453.2,187.4c-0.7,2.9-2.9,3.6-5,3.6h-26.6c-2.9,0-4.3-0.7-5-3.6l-35.2-94c-0.7-2.2-0.7-5,2.9-5h23.7
			c2.9,0,4.3,0.7,5.7,3.6l22.3,70.3h0.7l21.5-70.3c0.7-2.2,2.9-3.6,5.7-3.6h23.7c3.6,0,3.6,2.9,2.9,4.3L453.2,187.4z"/>
		<path id="Fill-14" d="M545.7,168c15.8,0,25.8-11.5,25.8-28s-10-28-25.8-28s-25.8,11.5-25.8,28C519.9,155.8,530,168,545.7,168
			 M545.7,86.9c30.1,0,54.6,20.1,54.6,53.1s-24.4,53.1-54.6,53.1c-30.1,0-54.6-20.1-54.6-53.1C491.2,106.3,515.6,86.9,545.7,86.9"/>
		<path id="Fill-16" d="M619,88.3h22.3c1.4,0,3.6,1.4,3.6,3.6v94.7c0,1.4-1.4,3.6-3.6,3.6H619c-2.2,0-3.6-1.4-3.6-3.6V91.9
			C615.4,89.8,616.8,88.3,619,88.3"/>
		<path id="Fill-18" d="M738.1,161.5c2.2-1.4,4.3-0.7,5,0.7L751,178c0.7,1.4,0,2.9-1.4,4.3c-7.9,5.7-20.8,10-34.5,10
			c-18.7,0-33-5.7-43.1-16.5c-7.9-8.6-12.9-21.5-12.9-36.6c0-12.9,4.3-24.4,10.8-32.3c10-12.9,27.3-20.1,45.9-20.1
			c13.6,0,25.1,4.3,33,10c1.4,1.4,2.2,2.9,1.4,4.3l-8.6,16.5c-0.7,1.4-2.9,2.2-5,0.7c-7.2-4.3-12.9-6.5-20.8-6.5s-15.1,2.9-20.1,8.6
			c-4.3,5-7.2,11.5-7.2,19.4s2.9,15.1,7.2,20.1c4.3,5,11.5,7.9,20.1,7.9C724.5,168,730.9,165.8,738.1,161.5"/>
		<path id="Fill-20" d="M825,129.2c0-5-1.4-9.3-5-13.6c-3.6-3.6-8.6-5.7-15.1-5.7c-6.5,0-12.9,2.2-15.8,5.7c-2.9,3.6-5,7.9-5.7,13.6
			H825z M834.3,162.2c2.2-1.4,4.3-0.7,5,0.7l7.9,14.4c0.7,1.4,0,3.6-1.4,4.3c-7.9,5.7-23,10.8-38,10.8c-17.2,0-30.9-5-40.2-15.1
			c-9.3-9.3-15.1-23-15.1-38.8c0-15.1,5.7-28,15.1-37.3c8.6-8.6,21.5-14.4,37.3-14.4c18.7,0,30.9,7.2,38.8,17.9
			c7.2,10,9.3,25.1,9.3,40.9c0,2.2-1.4,3.6-3.6,3.6h-66c1.4,5.7,2.9,10,6.5,13.6c4.3,4.3,11.5,7.2,19.4,7.2
			C819.9,169.4,827.1,166.6,834.3,162.2L834.3,162.2z"/>
		<path id="Fill-22" d="M883.8,188.8c0,1.4-1.4,2.2-2.2,2.2h-12.9c-0.7-0.7-1.4-1.4-1.4-2.2V57.5c0-1.4,0.7-2.2,2.2-2.2h89
			c1.4,0,2.2,1.4,2.2,2.2v11.5c0,1.4-0.7,2.2-2.2,2.2h-74.6v44.5h63.9c1.4,0,2.2,0.7,2.2,2.2v11.5c0,1.4-0.7,2.2-2.2,2.2h-63.9
			V188.8z"/>
		<path id="Fill-24" d="M978.6,89.8h12.2c1.4,0,2.2,1.4,2.2,2.2v96.2c0,1.4-0.7,2.2-2.2,2.2h-12.2c-1.4,0-2.2-0.7-2.2-2.2V91.9
			C976.4,91.2,977.8,89.8,978.6,89.8"/>
		<path id="Fill-26" d="M1033.1,107c7.2-12.9,20.1-18.7,35.2-18.7c12.2,0,21.5,2.9,28.7,9.3c7.9,7.2,12.2,17.9,12.2,33.7v57.4
			c0,1.4-1.4,2.2-2.2,2.2h-11.5c-1.4,0-2.2-0.7-2.2-2.2V135c0-10.8-2.2-20.1-7.9-25.8c-4.3-4.3-10.8-6.5-19.4-6.5
			c-11.5,0-20.8,5-25.8,15.1c-4.3,7.9-5.7,17.2-5.7,26.6v44.5c0,1.4-0.7,2.2-2.2,2.2h-12.2c-1.4,0-2.2-0.7-2.2-2.2V92.6
			c0-1.4,1.4-2.2,2.2-2.2h11.5c1.4,0,2.2,1.4,2.2,2.2L1033.1,107L1033.1,107z"/>
		<path id="Fill-28" d="M1189.6,173v-31.6c-10,0.7-23,1.4-33,4.3c-9.3,2.9-16.5,7.2-16.5,16.5c0,12.2,12.9,17.2,25.1,17.2
			C1173.8,179.5,1181.7,177.3,1189.6,173 M1135.7,110.6c-1.4,0.7-2.9,0.7-2.9-0.7l-3.6-7.9c-0.7-1.4-0.7-2.2,1.4-2.9
			c10-7.2,24.4-10.8,38-10.8c9.3,0,21.5,1.4,29.4,10.8c5,5.7,7.9,14.4,7.9,27.3v62.4c0,1.4-0.7,2.2-2.2,2.2h-10
			c-1.4,0-2.2-0.7-2.2-2.2v-3.6h-1.4c-10,5.7-18.7,7.9-30.1,7.9c-9.3,0-17.9-2.2-24.4-7.2c-6.5-5-11.5-12.2-11.5-22.3
			c0-13.6,8.6-21.5,20.8-25.8c13.6-5,31.6-6.5,44.5-7.2v-3.6c0-8.6-1.4-14.4-5-18.7c-4.3-5-11.5-6.5-17.9-6.5
			C1153.7,101.2,1144.4,105.5,1135.7,110.6"/>
		<path id="Fill-30" d="M1244.1,107c7.2-12.9,20.1-18.7,35.2-18.7c12.2,0,21.5,2.9,28.7,9.3c7.9,7.2,12.2,17.9,12.2,33.7v57.4
			c0,1.4-1.4,2.2-2.2,2.2h-11.5c-1.4,0-2.2-0.7-2.2-2.2V135c0-10.8-2.2-20.1-7.9-25.8c-4.3-4.3-10.8-6.5-19.4-6.5
			c-11.5,0-20.8,5-25.8,15.1c-4.3,7.9-5.7,17.2-5.7,26.6v44.5c0,1.4-0.7,2.2-2.2,2.2h-12.2c-1.4,0-2.2-0.7-2.2-2.2V92.6
			c0-1.4,1.4-2.2,2.2-2.2h11.5c1.4,0,2.2,1.4,2.2,2.2L1244.1,107L1244.1,107z"/>
		<path id="Fill-32" d="M1415,173c1.4-1.4,2.9-0.7,3.6,0.7l4.3,7.9c0.7,1.4,0,2.2-1.4,2.9c-7.9,5-19.4,7.9-30.9,7.9
			c-16.5,0-30.9-5-40.2-15.1c-8.6-8.6-13.6-21.5-13.6-37.3c0-13.6,4.3-24.4,11.5-33c10-12.2,25.8-19.4,42.3-19.4
			c11.5,0,22.3,3.6,30.1,8.6c1.4,0.7,1.4,1.4,1.4,2.9l-4.3,8.6c-0.7,1.4-1.4,1.4-3.6,0.7c-7.9-5-15.1-7.2-23.7-7.2
			c-11.5,0-21.5,4.3-28.7,12.9c-5.7,6.5-8.6,15.1-8.6,25.8c0,11.5,3.6,20.8,10,28c6.5,7.2,15.8,10.8,27.3,10.8
			C1399.2,178.8,1407.1,177.3,1415,173"/>
		<path id="Fill-34" d="M1505.4,132.8c-0.7-9.3-3.6-16.5-7.9-22.3c-5-5.7-12.9-9.3-23-9.3c-10.8,0-19.4,4.3-25.1,10.8
			c-4.3,5.7-7.2,13.6-7.9,21.5h63.9V132.8L1505.4,132.8z M1508.3,170.1c1.4-1.4,2.9-0.7,3.6,0.7l4.3,7.9c0.7,1.4,0,2.2-0.7,2.9
			c-7.9,5.7-22.3,10.8-38,10.8c-16.5,0-30.1-5.7-39.5-16.5c-8.6-9.3-12.9-22.3-12.9-37.3c0-14.4,5-27.3,12.9-35.9
			c8.6-9.3,20.8-14.4,36.6-14.4c15.8,0,28.7,6.5,35.9,15.8c7.2,9.3,11.5,22.3,10,38c0,1.4-1.4,2.2-2.9,2.2h-76.1
			c0.7,8.6,3.6,16.5,8.6,22.3c6.5,7.9,15.8,12.2,28,12.2C1490.3,179.5,1500.4,175.2,1508.3,170.1L1508.3,170.1z"/>
	</g>
	<g id="icon" transform="translate(0.000000, 0.076164)">
		<path id="Fill-1" class="st0" d="M26.6,185.1c0,5.7-5,10.8-10.8,10.8s-10.8-5-10.8-10.8v-41.6c0-5.7,5-10.8,10.8-10.8
			s10.8,5,10.8,10.8V185.1z M16.6,111.8c-17.2,0-31.6,14.4-31.6,31.6v41.6c0,17.2,14.4,31.6,31.6,31.6s31.6-14.4,31.6-31.6v-41.6
			C48.2,125.5,33.8,111.8,16.6,111.8L16.6,111.8z"/>
		<path id="Fill-3" class="st0" d="M101.3,185.1c0,5.7-5,10.8-10.8,10.8c-5.7,0-10.8-5-10.8-10.8V16.4c0-5.7,5-10.8,10.8-10.8
			c5.7,0,10.8,5,10.8,10.8V185.1z M91.2-15.2C74-15.2,59.6-0.8,59.6,16.4v168.7c0,17.2,14.4,31.6,31.6,31.6s31.6-14.4,31.6-31.6
			V16.4C122.8-0.8,108.5-15.2,91.2-15.2L91.2-15.2z"/>
		<path id="Fill-5" class="st0" d="M175.9,185.1c0,5.7-5,10.8-10.8,10.8c-5.7,0-10.8-5-10.8-10.8V80.3c0-5.7,5-10.8,10.8-10.8
			s10.8,5,10.8,10.8C175.9,80.3,175.9,185.1,175.9,185.1z M165.9,48c-17.2,0-31.6,14.4-31.6,31.6v105.5c0,17.2,14.4,31.6,31.6,31.6
			s31.6-14.4,31.6-31.6V80.3C197.5,62.3,183.1,48,165.9,48L165.9,48z"/>
	</g>
</g>
</svg>
