<?xml version="1.0" encoding="utf-8"?>
<!-- Generator: Adobe Illustrator 22.0.1, SVG Export Plug-In . SVG Version: 6.00 Build 0)  -->
<svg version="1.1" id="Laag_1" xmlns="http://www.w3.org/2000/svg" xmlns:xlink="http://www.w3.org/1999/xlink" x="0px" y="0px"
	 viewBox="0 0 221 34" style="enable-background:new 0 0 221 34;" xml:space="preserve">
<style type="text/css">
	.st0{fill:#FFFFFF;}
</style>
<desc>Created with Sketch.</desc>
<g id="logo" transform="translate(26.000000, 19.000000)">
	<g id="invoicefinance" transform="translate(38.253834, 11.139382)">
		<path id="Fill-8" class="st0" d="M-21.9-18.6c0.3,0,0.5,0.2,0.5,0.5v17.9c0,0.2-0.2,0.5-0.5,0.5h-3.5c-0.3,0-0.5-0.2-0.5-0.5
			v-17.9c0-0.2,0.2-0.5,0.5-0.5H-21.9z"/>
		<path id="Fill-10" class="st0" d="M-14.4-12.5c1.2-1.2,2.7-1.7,4.2-1.7c1.6,0,3,0.4,4.1,1.4c1,0.9,1.6,2.4,1.6,4.5v8.1
			c0,0.2-0.2,0.5-0.5,0.5H-8c-0.2,0-0.5-0.2-0.5-0.5v-7.1c0-1-0.1-2-0.7-2.7c-0.4-0.4-1-0.7-1.8-0.7c-2.4,0-3.3,2.3-3.3,4.3v6.2
			c0,0.2-0.2,0.5-0.5,0.5h-3.1c-0.3,0-0.5-0.2-0.5-0.5v-13.2c0-0.3,0.2-0.5,0.5-0.5h3c0.2,0,0.5,0.2,0.5,0.5L-14.4-12.5L-14.4-12.5z
			"/>
		<path id="Fill-12" class="st0" d="M6.3-0.2C6.2,0.2,5.9,0.3,5.6,0.3H1.9c-0.4,0-0.6-0.1-0.7-0.5l-4.9-13.1
			C-3.8-13.6-3.8-14-3.3-14H0c0.4,0,0.6,0.1,0.8,0.5l3.1,9.8H4l3-9.8C7.1-13.8,7.4-14,7.8-14h3.3c0.5,0,0.5,0.4,0.4,0.6L6.3-0.2z"/>
		<path id="Fill-14" class="st0" d="M19.2-2.9c2.2,0,3.6-1.6,3.6-3.9c0-2.3-1.4-3.9-3.6-3.9c-2.2,0-3.6,1.6-3.6,3.9
			C15.6-4.6,17-2.9,19.2-2.9 M19.2-14.2c4.2,0,7.6,2.8,7.6,7.4c0,4.6-3.4,7.4-7.6,7.4s-7.6-2.8-7.6-7.4C11.6-11.5,15-14.2,19.2-14.2
			"/>
		<path id="Fill-16" class="st0" d="M29.4-14h3.1c0.2,0,0.5,0.2,0.5,0.5v13.2c0,0.2-0.2,0.5-0.5,0.5h-3.1c-0.3,0-0.5-0.2-0.5-0.5
			v-13.2C28.9-13.8,29.1-14,29.4-14"/>
		<path id="Fill-18" class="st0" d="M46-3.8c0.3-0.2,0.6-0.1,0.7,0.1l1.1,2.2c0.1,0.2,0,0.4-0.2,0.6c-1.1,0.8-2.9,1.4-4.8,1.4
			c-2.6,0-4.6-0.8-6-2.3C35.7-3,35-4.8,35-6.9c0-1.8,0.6-3.4,1.5-4.5c1.4-1.8,3.8-2.8,6.4-2.8c1.9,0,3.5,0.6,4.6,1.4
			c0.2,0.2,0.3,0.4,0.2,0.6l-1.2,2.3c-0.1,0.2-0.4,0.3-0.7,0.1c-1-0.6-1.8-0.9-2.9-0.9c-1.1,0-2.1,0.4-2.8,1.2c-0.6,0.7-1,1.6-1,2.7
			c0,1.1,0.4,2.1,1,2.8c0.6,0.7,1.6,1.1,2.8,1.1C44.1-2.9,45-3.2,46-3.8"/>
		<path id="Fill-20" class="st0" d="M58.1-8.3c0-0.7-0.2-1.3-0.7-1.9c-0.5-0.5-1.2-0.8-2.1-0.8c-0.9,0-1.8,0.3-2.2,0.8
			c-0.4,0.5-0.7,1.1-0.8,1.9H58.1z M59.4-3.7c0.3-0.2,0.6-0.1,0.7,0.1l1.1,2c0.1,0.2,0,0.5-0.2,0.6c-1.1,0.8-3.2,1.5-5.3,1.5
			c-2.4,0-4.3-0.7-5.6-2.1C48.8-2.9,48-4.8,48-7c0-2.1,0.8-3.9,2.1-5.2c1.2-1.2,3-2,5.2-2c2.6,0,4.3,1,5.4,2.5
			c1,1.4,1.3,3.5,1.3,5.7c0,0.3-0.2,0.5-0.5,0.5h-9.2c0.2,0.8,0.4,1.4,0.9,1.9c0.6,0.6,1.6,1,2.7,1C57.4-2.7,58.4-3.1,59.4-3.7
			L59.4-3.7z"/>
		<path id="Fill-22" class="st0" d="M66.3,0c0,0.2-0.2,0.3-0.3,0.3h-1.8C64.1,0.2,64,0.1,64,0v-18.3c0-0.2,0.1-0.3,0.3-0.3h12.4
			c0.2,0,0.3,0.2,0.3,0.3v1.6c0,0.2-0.1,0.3-0.3,0.3H66.3v6.2h8.9c0.2,0,0.3,0.1,0.3,0.3v1.6c0,0.2-0.1,0.3-0.3,0.3h-8.9V0z"/>
		<path id="Fill-24" class="st0" d="M79.5-13.8h1.7c0.2,0,0.3,0.2,0.3,0.3v13.4c0,0.2-0.1,0.3-0.3,0.3h-1.7c-0.2,0-0.3-0.1-0.3-0.3
			v-13.4C79.2-13.6,79.4-13.8,79.5-13.8"/>
		<path id="Fill-26" class="st0" d="M87.1-11.4c1-1.8,2.8-2.6,4.9-2.6c1.7,0,3,0.4,4,1.3c1.1,1,1.7,2.5,1.7,4.7v8
			c0,0.2-0.2,0.3-0.3,0.3h-1.6c-0.2,0-0.3-0.1-0.3-0.3v-7.5c0-1.5-0.3-2.8-1.1-3.6c-0.6-0.6-1.5-0.9-2.7-0.9c-1.6,0-2.9,0.7-3.6,2.1
			c-0.6,1.1-0.8,2.4-0.8,3.7v6.2c0,0.2-0.1,0.3-0.3,0.3h-1.7c-0.2,0-0.3-0.1-0.3-0.3v-13.4c0-0.2,0.2-0.3,0.3-0.3h1.6
			c0.2,0,0.3,0.2,0.3,0.3L87.1-11.4L87.1-11.4z"/>
		<path id="Fill-28" class="st0" d="M108.9-2.2v-4.4c-1.4,0.1-3.2,0.2-4.6,0.6C103-5.6,102-5,102-3.7c0,1.7,1.8,2.4,3.5,2.4
			C106.7-1.3,107.8-1.6,108.9-2.2 M101.4-10.9c-0.2,0.1-0.4,0.1-0.4-0.1l-0.5-1.1c-0.1-0.2-0.1-0.3,0.2-0.4c1.4-1,3.4-1.5,5.3-1.5
			c1.3,0,3,0.2,4.1,1.5c0.7,0.8,1.1,2,1.1,3.8v8.7c0,0.2-0.1,0.3-0.3,0.3h-1.4c-0.2,0-0.3-0.1-0.3-0.3v-0.5H109
			c-1.4,0.8-2.6,1.1-4.2,1.1c-1.3,0-2.5-0.3-3.4-1c-0.9-0.7-1.6-1.7-1.6-3.1c0-1.9,1.2-3,2.9-3.6c1.9-0.7,4.4-0.9,6.2-1v-0.5
			c0-1.2-0.2-2-0.7-2.6c-0.6-0.7-1.6-0.9-2.5-0.9C103.9-12.2,102.6-11.6,101.4-10.9"/>
		<path id="Fill-30" class="st0" d="M116.5-11.4c1-1.8,2.8-2.6,4.9-2.6c1.7,0,3,0.4,4,1.3c1.1,1,1.7,2.5,1.7,4.7v8
			c0,0.2-0.2,0.3-0.3,0.3h-1.6c-0.2,0-0.3-0.1-0.3-0.3v-7.5c0-1.5-0.3-2.8-1.1-3.6c-0.6-0.6-1.5-0.9-2.7-0.9c-1.6,0-2.9,0.7-3.6,2.1
			c-0.6,1.1-0.8,2.4-0.8,3.7v6.2c0,0.2-0.1,0.3-0.3,0.3h-1.7c-0.2,0-0.3-0.1-0.3-0.3v-13.4c0-0.2,0.2-0.3,0.3-0.3h1.6
			c0.2,0,0.3,0.2,0.3,0.3L116.5-11.4L116.5-11.4z"/>
		<path id="Fill-32" class="st0" d="M140.3-2.2c0.2-0.2,0.4-0.1,0.5,0.1l0.6,1.1c0.1,0.2,0,0.3-0.2,0.4c-1.1,0.7-2.7,1.1-4.3,1.1
			c-2.3,0-4.3-0.7-5.6-2.1c-1.2-1.2-1.9-3-1.9-5.2c0-1.9,0.6-3.4,1.6-4.6c1.4-1.7,3.6-2.7,5.9-2.7c1.6,0,3.1,0.5,4.2,1.2
			c0.2,0.1,0.2,0.2,0.2,0.4l-0.6,1.2c-0.1,0.2-0.2,0.2-0.5,0.1c-1.1-0.7-2.1-1-3.3-1c-1.6,0-3,0.6-4,1.8c-0.8,0.9-1.2,2.1-1.2,3.6
			c0,1.6,0.5,2.9,1.4,3.9c0.9,1,2.2,1.5,3.8,1.5C138.1-1.4,139.2-1.6,140.3-2.2"/>
		<path id="Fill-34" class="st0" d="M152.9-7.8c-0.1-1.3-0.5-2.3-1.1-3.1c-0.7-0.8-1.8-1.3-3.2-1.3c-1.5,0-2.7,0.6-3.5,1.5
			c-0.6,0.8-1,1.9-1.1,3H152.9z M153.3-2.6c0.2-0.2,0.4-0.1,0.5,0.1l0.6,1.1c0.1,0.2,0,0.3-0.1,0.4c-1.1,0.8-3.1,1.5-5.3,1.5
			c-2.3,0-4.2-0.8-5.5-2.3c-1.2-1.3-1.8-3.1-1.8-5.2c0-2,0.7-3.8,1.8-5c1.2-1.3,2.9-2,5.1-2c2.2,0,4,0.9,5,2.2
			c1,1.3,1.6,3.1,1.4,5.3c0,0.2-0.2,0.3-0.4,0.3H144c0.1,1.2,0.5,2.3,1.2,3.1c0.9,1.1,2.2,1.7,3.9,1.7
			C150.8-1.3,152.2-1.9,153.3-2.6L153.3-2.6z"/>
	</g>
	<g id="icon" transform="translate(0.000000, 0.076164)">
		<path id="Fill-1" class="st0" d="M-20.2,9c0,0.8-0.7,1.5-1.5,1.5c-0.8,0-1.5-0.7-1.5-1.5V3.2c0-0.8,0.7-1.5,1.5-1.5
			c0.8,0,1.5,0.7,1.5,1.5V9z M-21.6-1.2c-2.4,0-4.4,2-4.4,4.4V9c0,2.4,2,4.4,4.4,4.4s4.4-2,4.4-4.4V3.2C-17.2,0.7-19.2-1.2-21.6-1.2
			L-21.6-1.2z"/>
		<path id="Fill-3" class="st0" d="M-9.8,9c0,0.8-0.7,1.5-1.5,1.5c-0.8,0-1.5-0.7-1.5-1.5v-23.5c0-0.8,0.7-1.5,1.5-1.5
			c0.8,0,1.5,0.7,1.5,1.5V9z M-11.2-18.9c-2.4,0-4.4,2-4.4,4.4V9c0,2.4,2,4.4,4.4,4.4c2.4,0,4.4-2,4.4-4.4v-23.5
			C-6.8-16.9-8.8-18.9-11.2-18.9L-11.2-18.9z"/>
		<path id="Fill-5" class="st0" d="M0.6,9c0,0.8-0.7,1.5-1.5,1.5c-0.8,0-1.5-0.7-1.5-1.5V-5.6c0-0.8,0.7-1.5,1.5-1.5
			c0.8,0,1.5,0.7,1.5,1.5V9z M-0.8-10.1c-2.4,0-4.4,2-4.4,4.4V9c0,2.4,2,4.4,4.4,4.4c2.4,0,4.4-2,4.4-4.4V-5.6
			C3.6-8.1,1.6-10.1-0.8-10.1L-0.8-10.1z"/>
	</g>
</g>
</svg>
