<?xml version="1.0" encoding="UTF-8" standalone="no"?>
<svg width="124px" height="23px" viewBox="0 0 124 23" version="1.1" xmlns="http://www.w3.org/2000/svg" xmlns:xlink="http://www.w3.org/1999/xlink">
    <!-- Generator: Sketch 3.7.2 (28276) - http://www.bohemiancoding.com/sketch -->
    <title>salonized</title>
    <desc>Created with Sketch.</desc>
    <defs></defs>
    <g id="Page-1" stroke="none" stroke-width="1" fill="none" fill-rule="evenodd">
        <g id="salonized_features" transform="translate(-154.000000, -42.000000)" fill="#40545C">
            <path d="M154,63.0066667 C155.708347,64.2946667 157.836287,65 159.844344,65 C162.901386,65 165.628746,63.252 165.628746,60.4 C165.628746,55.248 158.585562,56.0146667 158.585562,54.0826667 C158.585562,53.316 159.484692,52.8866667 160.563648,52.8866667 C161.612633,52.8866667 162.601676,53.3466667 163.350951,53.8986667 L165.179181,51.016 C164.22011,50.2493333 162.152111,49.5133333 160.263938,49.5133333 C157.386723,49.5133333 154.689333,51.292 154.689333,54.144 C154.689333,58.928 161.732517,58.1306667 161.732517,60.3693333 C161.732517,61.1053333 160.9233,61.6266667 159.874315,61.6266667 C158.405736,61.6266667 156.877216,61.0746667 155.888173,60.1546667 L154,63.0066667 Z M178.266516,59.48 C177.517241,60.584 176.228489,61.32 174.75991,61.32 C172.572027,61.32 170.923622,59.6026667 170.923622,57.272 C170.923622,55.1253333 172.392201,53.1933333 174.669997,53.1933333 C176.168547,53.1933333 177.457299,53.9293333 178.266516,55.0333333 L178.266516,59.48 Z M182.162746,49.82 L178.416371,49.82 L178.416371,51.016 C177.277473,50.0653333 175.808895,49.5133333 174.16049,49.5133333 C170.204318,49.5133333 167.027393,52.8866667 167.027393,57.272 C167.027393,59.296 167.746697,61.136 168.885595,62.4853333 C170.174347,64.0186667 172.212375,65 174.370287,65 C175.838866,65 177.217531,64.54 178.416371,63.4973333 L178.416371,64.6933333 L180.157946,64.6933333 C181.265167,64.6933333 182.162746,63.8074802 182.162746,62.6874494 L182.162746,49.82 Z M189.555591,42.92 L187.607477,42.92 C186.531563,42.92 185.659362,43.8005076 185.659362,44.8713998 L185.659362,64.6933333 L187.607477,64.6933333 C188.683391,64.6933333 189.555591,63.8128257 189.555591,62.7419336 L189.555591,42.92 Z M191.853368,57.272 C191.853368,61.5653333 195.180148,65 199.585885,65 C203.991621,65 207.318402,61.5653333 207.318402,57.272 C207.318402,52.9786667 203.991621,49.5133333 199.585885,49.5133333 C195.180148,49.5133333 191.853368,52.9786667 191.853368,57.272 L191.853368,57.272 Z M195.749597,57.272 C195.749597,55.0333333 197.308089,53.1933333 199.585885,53.1933333 C201.86368,53.1933333 203.422172,55.0333333 203.422172,57.272 C203.422172,59.5106667 201.86368,61.32 199.585885,61.32 C197.308089,61.32 195.749597,59.5106667 195.749597,57.272 L195.749597,57.272 Z M211.518637,64.6933333 C212.619766,64.6933333 213.512407,63.8018587 213.512407,62.6917751 L213.512407,55.0333333 C214.051885,54.2666667 215.40058,53.1933333 217.048985,53.1933333 C217.948115,53.1933333 218.727361,53.5 219.236868,54.0213333 C219.776345,54.5733333 220.106026,55.34 220.106026,56.812 L220.106026,64.6933333 L222.008486,64.6933333 C223.109615,64.6933333 224.002256,63.7946744 224.002256,62.7031788 L224.002256,57.1186667 C224.002256,54.5733333 223.462778,53.0706667 222.503706,51.9053333 C221.304866,50.4333333 219.476636,49.5133333 217.468579,49.5133333 C215.850145,49.5133333 214.471479,50.096 213.362552,51.016 L213.362552,49.82 L211.620977,49.82 C210.513757,49.82 209.616178,50.7058531 209.616178,51.8258839 L209.616178,64.6933333 L211.518637,64.6933333 Z M231.095392,49.82 L229.147277,49.82 C228.071363,49.82 227.199162,50.6839412 227.199162,51.7644286 L227.199162,64.6933333 L229.147277,64.6933333 C230.223191,64.6933333 231.095392,63.8293921 231.095392,62.7489047 L231.095392,49.82 Z M226.599742,44.5453333 C226.599742,45.9866667 227.73864,47.0906667 229.147277,47.0906667 C230.555914,47.0906667 231.694811,45.9866667 231.694811,44.5453333 C231.694811,43.104 230.555914,42 229.147277,42 C227.73864,42 226.599742,43.104 226.599742,44.5453333 L226.599742,44.5453333 Z M246.130841,49.82 L236.438229,49.82 C235.335826,49.82 234.442153,50.7063036 234.442153,51.8212695 L234.442153,53.1933333 L240.796004,53.1933333 L233.842733,62.24 L233.842733,64.6933333 L244.730725,64.6933333 C245.835038,64.6933333 246.730261,63.8070297 246.730261,62.6920638 L246.730261,61.32 L239.087657,61.32 L246.130841,52.2733333 L246.130841,49.82 Z M259.188205,60.0626667 C258.498872,60.8293333 257.180148,61.78 255.531743,61.78 C253.463745,61.78 251.81534,60.3386667 251.605543,58.2533333 L261.675798,58.2533333 C261.73574,57.916 261.765711,57.5173333 261.765711,57.1186667 C261.765711,52.9786667 258.918466,49.5133333 254.902353,49.5133333 C250.586529,49.5133333 247.829198,53.132 247.829198,57.272 C247.829198,61.9333333 251.096036,65 255.44183,65 C257.689655,65 259.997422,64.0493333 261.406059,62.332 L259.188205,60.0626667 Z M251.785369,55.34 C251.965195,53.9906667 253.283919,52.7333333 254.902353,52.7333333 C256.490815,52.7333333 257.659684,54.0213333 257.779568,55.34 L251.785369,55.34 Z M274.103771,59.48 C273.354496,60.584 272.065743,61.32 270.597164,61.32 C268.409281,61.32 266.760877,59.6026667 266.760877,57.272 C266.760877,55.1253333 268.229455,53.1933333 270.507251,53.1933333 C272.005801,53.1933333 273.294554,53.9293333 274.103771,55.0333333 L274.103771,59.48 Z M275.995201,64.6933333 C277.102421,64.6933333 278,63.7992004 278,62.7033746 L278,42.92 L276.09754,42.92 C274.996412,42.92 274.103771,43.8191436 274.103771,44.911441 L274.103771,50.8933333 C272.964873,49.9733333 271.586207,49.5133333 269.997744,49.5133333 C266.041573,49.5133333 262.864647,52.8866667 262.864647,57.272 C262.864647,59.296 263.583951,61.136 264.722849,62.4853333 C266.011602,64.0186667 268.049629,65 270.207541,65 C271.67612,65 273.054786,64.54 274.253626,63.4973333 L274.253626,64.6933333 L275.995201,64.6933333 Z" id="salonized"></path>
        </g>
    </g>
</svg>