<svg xmlns="http://www.w3.org/2000/svg" xmlns:xlink="http://www.w3.org/1999/xlink" width="559" height="168" viewBox="0 0 559 168">
  <defs>
    <polygon id="spotify_logo_rgb_black-a" points="167.487 167.94 0 167.94 0 84.227 0 .513 167.487 .513 167.487 167.94"/>
  </defs>
  <g fill="none" fill-rule="evenodd">
    <mask id="spotify_logo_rgb_black-b" fill="#fff">
      <use xlink:href="#spotify_logo_rgb_black-a"/>
    </mask>
    <path fill="#191414" d="M133.28,74.753 C106.286,58.722 61.76,57.248 35.991,65.069 C31.852,66.325 27.476,63.988 26.223,59.851 C24.968,55.71 27.302,51.337 31.443,50.079 C61.025,41.1 110.199,42.834 141.275,61.281 C144.998,63.491 146.218,68.298 144.012,72.014 C141.804,75.736 136.993,76.963 133.28,74.753 Z M132.396,98.497 C130.502,101.57 126.484,102.534 123.415,100.647 C100.911,86.813 66.593,82.806 39.968,90.888 C36.516,91.931 32.869,89.985 31.82,86.538 C30.78,83.086 32.727,79.445 36.174,78.396 C66.589,69.166 104.4,73.636 130.248,89.521 C133.317,91.411 134.283,95.431 132.396,98.497 Z M122.149,121.3 C120.644,123.768 117.431,124.541 114.972,123.037 C95.307,111.018 70.555,108.304 41.405,114.962 C38.596,115.606 35.796,113.846 35.156,111.038 C34.512,108.229 36.266,105.429 39.081,104.788 C70.981,97.496 98.344,100.634 120.417,114.122 C122.878,115.625 123.653,118.84 122.149,121.3 Z M83.743,0.513 C37.494,0.513 0,38.006 0,84.255 C0,130.509 37.494,168 83.743,168 C129.994,168 167.487,130.509 167.487,84.255 C167.487,38.006 129.994,0.513 83.743,0.513 L83.743,0.513 Z" mask="url(#spotify_logo_rgb_black-b)"/>
    <path fill="#191414" d="M227.836 77.823C213.378 74.374 210.803 71.954 210.803 66.87 210.803 62.065 215.326 58.833 222.052 58.833 228.572 58.833 235.037 61.288 241.816 66.342 242.021 66.495 242.278 66.556 242.53 66.517 242.783 66.479 243.007 66.34 243.155 66.13L250.216 56.178C250.506 55.769 250.427 55.204 250.035 54.89 241.969 48.417 232.884 45.27 222.266 45.27 206.654 45.27 195.75 54.639 195.75 68.044 195.75 82.419 205.156 87.509 221.412 91.438 235.248 94.625 237.584 97.295 237.584 102.068 237.584 107.358 232.862 110.646 225.263 110.646 216.823 110.646 209.939 107.802 202.238 101.134 202.047 100.969 201.785 100.893 201.543 100.907 201.288 100.929 201.055 101.046 200.893 101.242L192.977 110.662C192.645 111.053 192.687 111.637 193.071 111.975 202.031 119.975 213.051 124.2 224.943 124.2 241.766 124.2 252.637 115.007 252.637 100.78 252.637 88.757 245.453 82.107 227.836 77.823M302.91 93.937C302.91 104.09 296.655 111.175 287.701 111.175 278.848 111.175 272.169 103.768 272.169 93.937 272.169 84.108 278.848 76.7 287.701 76.7 296.511 76.7 302.91 83.947 302.91 93.937zM290.698 63.562C283.406 63.562 277.425 66.434 272.492 72.319L272.492 65.695C272.492 65.173 272.068 64.747 271.546 64.747L258.599 64.747C258.077 64.747 257.653 65.173 257.653 65.695L257.653 139.297C257.653 139.82 258.077 140.246 258.599 140.246L271.546 140.246C272.068 140.246 272.492 139.82 272.492 139.297L272.492 116.065C277.426 121.601 283.407 124.305 290.698 124.305 304.247 124.305 317.963 113.875 317.963 93.937 317.963 73.995 304.247 63.562 290.698 63.562L290.698 63.562zM353.121 111.281C343.839 111.281 336.842 103.824 336.842 93.937 336.842 84.009 343.597 76.803 352.907 76.803 362.247 76.803 369.292 84.26 369.292 94.154 369.292 104.081 362.491 111.281 353.121 111.281zM353.121 63.562C335.671 63.562 322.002 76.998 322.002 94.154 322.002 111.123 335.578 124.418 352.907 124.418 370.418 124.418 384.129 111.027 384.129 93.937 384.129 76.904 370.512 63.562 353.121 63.562L353.121 63.562zM421.391 64.747L407.145 64.747 407.145 50.18C407.145 49.658 406.722 49.232 406.199 49.232L393.254 49.232C392.731 49.232 392.305 49.658 392.305 50.18L392.305 64.747 386.079 64.747C385.558 64.747 385.136 65.173 385.136 65.695L385.136 76.822C385.136 77.344 385.558 77.771 386.079 77.771L392.305 77.771 392.305 106.562C392.305 118.197 398.095 124.096 409.517 124.096 414.161 124.096 418.014 123.138 421.645 121.078 421.94 120.913 422.123 120.596 422.123 120.257L422.123 109.662C422.123 109.335 421.953 109.026 421.674 108.855 421.391 108.678 421.041 108.668 420.752 108.812 418.257 110.067 415.846 110.646 413.152 110.646 408.998 110.646 407.145 108.76 407.145 104.533L407.145 77.771 421.391 77.771C421.914 77.771 422.336 77.344 422.336 76.822L422.336 65.695C422.336 65.173 421.914 64.747 421.391 64.747M471.029 64.803L471.029 63.014C471.029 57.751 473.046 55.404 477.573 55.404 480.271 55.404 482.439 55.94 484.868 56.75 485.167 56.844 485.479 56.797 485.722 56.618 485.971 56.439 486.113 56.152 486.113 55.849L486.113 44.938C486.113 44.522 485.844 44.152 485.443 44.03 482.878 43.267 479.597 42.483 474.682 42.483 462.724 42.483 456.404 49.217 456.404 61.95L456.404 64.69 450.184 64.69C449.662 64.69 449.234 65.116 449.234 65.638L449.234 76.822C449.234 77.344 449.662 77.771 450.184 77.771L456.404 77.771 456.404 122.18C456.404 122.703 456.825 123.129 457.347 123.129L470.294 123.129C470.817 123.129 471.243 122.703 471.243 122.18L471.243 77.771 483.33 77.771 501.848 122.168C499.746 126.833 497.679 127.761 494.857 127.761 492.576 127.761 490.173 127.08 487.718 125.737 487.487 125.61 487.213 125.588 486.964 125.666 486.717 125.753 486.508 125.937 486.404 126.177L482.015 135.804C481.806 136.259 481.985 136.793 482.423 137.029 487.004 139.51 491.139 140.569 496.25 140.569 505.81 140.569 511.094 136.116 515.752 124.136L538.213 66.095C538.326 65.803 538.292 65.474 538.113 65.215 537.936 64.958 537.648 64.803 537.334 64.803L523.857 64.803C523.453 64.803 523.092 65.059 522.96 65.439L509.153 104.876 494.03 65.413C493.891 65.045 493.538 64.803 493.145 64.803L471.029 64.803M442.252 64.747L429.306 64.747C428.783 64.747 428.357 65.173 428.357 65.695L428.357 122.18C428.357 122.703 428.783 123.129 429.306 123.129L442.252 123.129C442.775 123.129 443.201 122.703 443.201 122.18L443.201 65.695C443.201 65.173 442.775 64.747 442.252 64.747M435.845 39.027C430.716 39.027 426.554 43.18 426.554 48.309 426.554 53.441 430.716 57.598 435.845 57.598 440.972 57.598 445.13 53.441 445.13 48.309 445.13 43.18 440.972 39.027 435.845 39.027M549.797 70.365L547.424 70.365 547.424 73.39 549.797 73.39C550.981 73.39 551.688 72.811 551.688 71.877 551.688 70.893 550.981 70.365 549.797 70.365zM551.334 74.68L553.912 78.288 551.739 78.288 549.419 74.979 547.424 74.979 547.424 78.288 545.605 78.288 545.605 68.725 549.87 68.725C552.092 68.725 553.554 69.862 553.554 71.775 553.554 73.343 552.648 74.301 551.334 74.68zM549.314 65.542C544.648 65.542 541.116 69.252 541.116 73.795 541.116 78.335 544.622 81.996 549.267 81.996 553.932 81.996 557.468 78.288 557.468 73.743 557.468 69.202 553.959 65.542 549.314 65.542zM549.267 82.907C544.143 82.907 540.156 78.792 540.156 73.795 540.156 68.798 544.195 64.636 549.314 64.636 554.438 64.636 558.425 68.75 558.425 73.743 558.425 78.741 554.389 82.907 549.267 82.907L549.267 82.907z"/>
  </g>
</svg>
