<?xml version="1.0" encoding="UTF-8"?>
<svg version="1.1" viewBox="0 0 68 68" xmlns="http://www.w3.org/2000/svg">
<title>Artboard</title>
<desc>Created with Sketch.</desc>
<g fill="none" fill-rule="evenodd">
<g fill-rule="nonzero">
<path d="m68 34c0 18.784-15.227 34-33.993 34-18.766 0-34.007-15.23-34.007-34 0-18.784 15.227-34 33.993-34 18.766 0 34.007 15.216 34.007 34" fill="#000111"/>
<g transform="translate(5.32 23.06)">
<g transform="translate(5.18 .70067)" fill="#F77F00">
<polygon points="6.3525 5.1457 6.3525 9.1888 3.1689 9.1888 3.1689 5.1457 0.014671 0.16172 3.477 0.16172 4.1225 1.3673 4.7681 2.6758 5.4136 1.3673 6.0591 0.16172 9.4921 0.16172"/>
<path d="m16.476 1.2644c0.8069 0.80861 1.203 1.9554 1.203 3.4256 0 1.4702-0.39612 2.6023-1.203 3.4256-0.8069 0.80861-1.9219 1.2203-3.3597 1.2203-0.93894 0-1.7605-0.17642-2.4501-0.54398-0.68954-0.36755-1.2177-0.89683-1.5845-1.5878s-0.5575-1.529-0.5575-2.5141c0-0.97034 0.19072-1.8084 0.5575-2.5141 0.36677-0.691 0.89493-1.235 1.5845-1.5878 0.68954-0.36755 1.4964-0.54398 2.4501-0.54398 1.4378-0.014702 2.5674 0.39696 3.3597 1.2203zm-4.372 1.7054c-0.22006 0.35285-0.32276 0.92623-0.32276 1.7201 0 0.77921 0.1027 1.3526 0.32276 1.7201 0.22006 0.35285 0.5575 0.54398 1.0123 0.54398 0.46947 0 0.8069-0.17642 1.0123-0.54398 0.20539-0.35285 0.30809-0.92623 0.30809-1.7201 0-0.77921-0.1027-1.3526-0.30809-1.7201-0.20539-0.35285-0.54283-0.54398-1.0123-0.54398-0.4548 0-0.79223 0.17642-1.0123 0.54398z"/>
<path d="m27.068 5.3074c0 2.6758-1.4524 4.0137-4.3573 4.0137s-4.3573-1.3379-4.3573-4.0137v-5.1457h3.1983v5.381c0 0.45576 0.1027 0.79391 0.29342 1.0291s0.48414 0.35285 0.86559 0.35285 0.67487-0.11762 0.86559-0.35285c0.20539-0.23523 0.29342-0.57338 0.29342-1.0291v-5.381h3.1836v5.1457h0.014671z"/>
<polygon points="36.692 9.1888 33.259 9.1888 31.102 5.0869 30.618 3.9843 30.589 3.9843 30.648 5.8367 30.648 9.1888 27.875 9.1888 27.875 0.16172 31.308 0.16172 33.465 4.2783 33.949 5.3663 33.978 5.3663 33.919 3.5138 33.919 0.16172 36.677 0.16172 36.677 9.1888"/>
<path d="m42.062 4.1019h4.1666v5.0869h-2.098l-0.1027-1.0291c-0.46947 0.77921-1.2764 1.1615-2.4354 1.1615-0.79223 0-1.4964-0.17642-2.1273-0.52927s-1.1297-0.86742-1.4964-1.5584c-0.36677-0.691-0.5575-1.529-0.5575-2.5288 0-1.4702 0.41079-2.617 1.2324-3.4403 0.82158-0.82332 1.9659-1.235 3.433-1.235 1.115 0 2.0099 0.19113 2.6701 0.57338 0.66019 0.38225 1.1737 1.0144 1.5405 1.8966l-2.9635 1.0733c-0.11737-0.76451-0.49881-1.1468-1.1297-1.1468-0.52816 0-0.9096 0.17642-1.159 0.54398-0.24941 0.35285-0.36677 0.92623-0.36677 1.7201 0 0.83802 0.13204 1.4408 0.39612 1.7937 0.26408 0.35285 0.67487 0.54398 1.247 0.54398 0.39612 0 0.71888-0.07351 0.95361-0.23523 0.23474-0.16172 0.3521-0.39696 0.3521-0.7057v-0.014702h-1.5111v-1.9701h-0.044013z"/>
</g>
<g transform="translate(.099991 11.421)" fill="#fff">
<path d="m4.6214 9.3652c-0.93894 0-1.7605-0.17642-2.4501-0.54398-0.68954-0.36755-1.2177-0.89683-1.5845-1.5878-0.36677-0.691-0.5575-1.529-0.5575-2.5141 0-0.97034 0.19072-1.8084 0.5575-2.5141 0.36677-0.691 0.89493-1.235 1.5845-1.5878 0.68954-0.36755 1.4964-0.54398 2.4501-0.54398 1.0563 0 1.9512 0.22053 2.6995 0.67629 0.74822 0.45576 1.203 1.1321 1.3937 2.0583l-2.7288 1.0733c-0.073355-0.55868-0.20539-0.92623-0.39612-1.1174-0.19072-0.19113-0.48414-0.29404-0.88026-0.29404-0.46947 0-0.82157 0.17642-1.071 0.54398-0.23474 0.36755-0.3521 0.94093-0.3521 1.7054 0 0.77921 0.11737 1.3379 0.33743 1.7054 0.22006 0.36755 0.57217 0.54398 1.0563 0.54398 0.42546 0 0.73355-0.10291 0.92427-0.29404 0.19072-0.19113 0.30809-0.49987 0.36677-0.94093l2.8168 0.7204c-0.46947 1.9407-1.8485 2.911-4.1666 2.911z"/>
<path d="m14.554 7.4981h-2.4207l-0.42546 1.7201h-3.1689l2.9195-9.0271h3.8145l2.9342 9.0271h-3.2423l-0.41079-1.7201zm-0.4548-1.9701l-0.71888-3.0139h-0.044013l-0.3521 1.529-0.36677 1.4702h1.4818v0.014702z"/>
<path d="m27.215 3.3668c0 0.97034-0.32276 1.7201-0.95361 2.2347s-1.5845 0.76451-2.8168 0.76451h-1.5991v2.8669h-3.1836v-9.0271h4.7681c2.5234 0 3.7851 1.0585 3.7851 3.1609zm-3.4477 0.60278c0.17605-0.13232 0.26408-0.35285 0.26408-0.64689 0-0.29404-0.088026-0.49987-0.26408-0.64689-0.17605-0.13232-0.4548-0.20583-0.85092-0.20583h-1.071v1.6907h1.071c0.39612 0.014702 0.67487-0.058808 0.85092-0.19113z"/>
<polygon points="31.073 9.2182 27.89 9.2182 27.89 0.19113 31.073 0.19113"/>
<polygon points="40.639 2.5435 37.822 2.5435 37.822 9.2329 34.638 9.2329 34.638 2.5435 31.821 2.5435 31.821 0.20583 40.639 0.20583"/>
<path d="m45.216 7.4981h-2.4207l-0.42546 1.7201h-3.1689l2.9195-9.0271h3.8145l2.9342 9.0271h-3.2423l-0.41079-1.7201zm-0.4548-1.9701l-0.71888-3.0139h-0.044013l-0.3521 1.529-0.36677 1.4702h1.4818v0.014702z"/>
<g transform="translate(49.441 .14702)">
<polygon points="7.3648 6.7482 7.3648 9.0859 0.1027 9.0859 0.1027 0.058808 3.2863 0.058808 3.2863 6.7482"/>
<path d="m5.4136 0.058808v0.29404h-0.42546v1.1174h-0.38145v-1.1174h-0.42546v-0.29404h1.2324zm0.79223 0l0.32276 0.85272 0.30809-0.85272h0.49881v1.3967h-0.3521v-1.0438l-0.39612 1.0438h-0.13204l-0.39612-1.0438v1.0438h-0.3521v-1.3967h0.49881z"/>
</g>
</g>
</g>
</g>
</g>
</svg>
