<svg xmlns="http://www.w3.org/2000/svg" viewBox="0 0 219.79 50.4"><defs><style>.a{fill:#231f20;}</style></defs><title>zilverline logo</title><path class="a" d="M337.14,322.53c-13.34-1.66-6.75-11,0-19.24,6.85-8.44,13.84-15.73,0-12.78-1.79.4-3.94,0.93-6.46,1.69-5.46,1.62-11.92,5.69-16.13,8.44a28,28,0,0,0-.23,3.38,25.29,25.29,0,0,0,22.81,25.1c0.79,0.07,1.59.1,2.42,0.1a25,25,0,0,0,18.21-7.85c-9.57,1.46-16.19,1.72-20.63,1.16" transform="translate(-314.33 -278.83)"/><path class="a" d="M339.56,278.83c-0.83,0-1.62,0-2.42.1a25.29,25.29,0,0,0-20.63,14.9c4.44-3.91,12.95-7.05,20.63-8.31,14-2.32,25.36,1.52,5.66,18-2.25,1.89-4.14,3.58-5.66,5.1-6.92,7-6.46,10.33,0,10.6,5,0.2,13.71-1.46,25.33-4.77a25.15,25.15,0,0,0-22.91-35.63" transform="translate(-314.33 -278.83)"/><path class="a" d="M429.91,292.79c-1.54,0-2.27.82-2.78,2.26l-5.77,13.8-5.77-13.8c-0.51-1.44-1.24-2.26-2.78-2.26a4.44,4.44,0,0,0-2.68,1.34l8.55,20.49a5.67,5.67,0,0,0,2.06.31c2,0,3.4-1.34,4.22-3.19l7.52-17.61a3.73,3.73,0,0,0-2.57-1.34" transform="translate(-314.33 -278.83)"/><path class="a" d="M402.83,287.54v27.08h4.74v-31.4h-0.41a4.28,4.28,0,0,0-4.32,4.33" transform="translate(-314.33 -278.83)"/><path class="a" d="M443.39,314.53c-5.65,0-9.59-4.37-9.59-10.62,0-6.05,4.34-10.62,10.11-10.62H444a10.31,10.31,0,0,1,10.21,10.62,1.51,1.51,0,0,1-1.66,1.46H438.35a0.5,0.5,0,0,0-.49.61c0.71,3.1,2.91,5,5.74,5h0.31a22,22,0,0,0,3.24-.25,12.55,12.55,0,0,1,1.7-.16,3.94,3.94,0,0,1,3.46,2.25,23.84,23.84,0,0,1-8.41,1.69h-0.51Zm0.5-17.92a6.41,6.41,0,0,0-6,5.23,0.5,0.5,0,0,0,.49.61h11.22a0.5,0.5,0,0,0,.48-0.65c-1-3.2-3.3-5.19-6-5.19h-0.12Z" transform="translate(-314.33 -278.83)"/><path class="a" d="M393.36,297.12v17.5h4.74V292.79h-0.41a4.35,4.35,0,0,0-4.32,4.32" transform="translate(-314.33 -278.83)"/><path class="a" d="M386.56,310.19h-7.82L389.86,297a3.6,3.6,0,0,0-3.4-3.81H373V294a3.54,3.54,0,0,0,3.5,3.5h7.41l-11.12,13.38a3.65,3.65,0,0,0,3.5,3.71h13.8V313.8a3.63,3.63,0,0,0-3.5-3.6" transform="translate(-314.33 -278.83)"/><path class="a" d="M523.29,314.53c-5.65,0-9.59-4.37-9.59-10.62,0-6.05,4.39-10.62,10.21-10.62s10.21,4.57,10.21,10.62a1.47,1.47,0,0,1-1.66,1.46H518.24a0.5,0.5,0,0,0-.49.61,6,6,0,0,0,5.84,5h0.31a20.58,20.58,0,0,0,3.18-.25,11.78,11.78,0,0,1,1.65-.16,3.89,3.89,0,0,1,3.48,2.25,23.4,23.4,0,0,1-8.32,1.7h-0.61Zm0.6-17.92a6.58,6.58,0,0,0-6.13,5.21,0.5,0.5,0,0,0,.48.63h11.22a0.5,0.5,0,0,0,.48-0.63c-0.87-3.21-3.18-5.21-6-5.21h0Z" transform="translate(-314.33 -278.83)"/><path class="a" d="M500.74,292.79a19.59,19.59,0,0,0-6.07,1c-2.06.72-3.71,2-3.71,4.63v16.16h4.74V298.15a16.56,16.56,0,0,1,4.74-.82,4.59,4.59,0,0,1,4.63,4.53v8.75a4.35,4.35,0,0,0,4.32,4.32h0.41V301.75a8.8,8.8,0,0,0-9.06-9" transform="translate(-314.33 -278.83)"/><path class="a" d="M472,287.54v27.08h4.74v-31.4h-0.41a4.29,4.29,0,0,0-4.33,4.33" transform="translate(-314.33 -278.83)"/><path class="a" d="M461.82,293.82c-2,.72-3.71,2-3.71,4.63v16.16h4.74V298.15a4.91,4.91,0,0,1,3.09-.72,4.32,4.32,0,0,0,4.32-4.22,12.12,12.12,0,0,0-3.5-.41,17.47,17.47,0,0,0-4.94,1" transform="translate(-314.33 -278.83)"/><path class="a" d="M481.59,297.12v17.5h4.63V292.79h-0.31a4.28,4.28,0,0,0-4.32,4.32" transform="translate(-314.33 -278.83)"/></svg>