<svg preserveAspectRatio="xMidYMid meet" viewBox="0 0 350 421" width="350" height="421" version="1.1" xmlns="http://www.w3.org/2000/svg" xmlns:xlink="http://www.w3.org/1999/xlink">
    <defs>
        <linearGradient x1="49.9999983%" y1="0%" x2="49.9999983%" y2="100%" id="linearGradient-1">
            <stop stop-color="#FEF8EB" offset="0.231%"></stop>
            <stop stop-color="#FCF6ED" offset="20.793%"></stop>
            <stop stop-color="#F7F1F2" offset="100%"></stop>
        </linearGradient>
        <linearGradient x1="51.0951149%" y1="97.6005385%" x2="49.3693924%" y2="0.98657416%" id="linearGradient-2">
            <stop stop-color="#EB496A" offset="40.168%"></stop>
            <stop stop-color="#ED747B" offset="99.516%"></stop>
        </linearGradient>
        <linearGradient x1="49.9978452%" y1="96.495173%" x2="49.9999453%" y2="3.67936903%" id="linearGradient-3">
            <stop stop-color="#F2BDA3" offset="0.086%"></stop>
            <stop stop-color="#CD234D" offset="92.681%"></stop>
        </linearGradient>
        <linearGradient x1="50.2424028%" y1="96.2034121%" x2="49.7472833%" y2="1.82942981%" id="linearGradient-4">
            <stop stop-color="#ED8385" offset="0%"></stop>
            <stop stop-color="#E87F81" offset="13.91%"></stop>
            <stop stop-color="#DA7374" offset="30.34%"></stop>
            <stop stop-color="#C25F60" offset="48.054%"></stop>
            <stop stop-color="#A14243" offset="66.674%"></stop>
            <stop stop-color="#761F1F" offset="85.799%"></stop>
            <stop stop-color="#520000" offset="100%"></stop>
        </linearGradient>
        <linearGradient x1="49.0649159%" y1="90.577463%" x2="51.5135794%" y2="-15.6784961%" id="linearGradient-5">
            <stop stop-color="#F9CDD9" offset="0%"></stop>
            <stop stop-color="#EE8277" offset="78.368%"></stop>
        </linearGradient>
        <linearGradient x1="50.0562499%" y1="89.3899991%" x2="49.9938145%" y2="-9.68495156%" id="linearGradient-6">
            <stop stop-color="#F4B5B3" offset="1.022%"></stop>
            <stop stop-color="#EF877F" offset="100%"></stop>
        </linearGradient>
        <linearGradient x1="51.5917451%" y1="97.9769905%" x2="49.5198236%" y2="0.446222673%" id="linearGradient-7">
            <stop stop-color="#EFA996" stop-opacity="0" offset="0.028%"></stop>
            <stop stop-color="#E1837B" stop-opacity="0.29084" offset="19.331%"></stop>
            <stop stop-color="#D56264" stop-opacity="0.5426" offset="38.649%"></stop>
            <stop stop-color="#CC4951" stop-opacity="0.74102" offset="56.985%"></stop>
            <stop stop-color="#C53644" stop-opacity="0.8833" offset="73.848%"></stop>
            <stop stop-color="#C12B3C" stop-opacity="0.96963" offset="88.713%"></stop>
            <stop stop-color="#C02739" offset="100%"></stop>
        </linearGradient>
        <linearGradient x1="50.5798766%" y1="96.693327%" x2="49.3714159%" y2="-0.635445525%" id="linearGradient-8">
            <stop stop-color="#EB496A" offset="0%"></stop>
            <stop stop-color="#FACEDA" offset="99.696%"></stop>
        </linearGradient>
        <linearGradient x1="45.9531795%" y1="115.018733%" x2="66.793771%" y2="37.6741081%" id="linearGradient-9">
            <stop stop-color="#EC5C7E" offset="23.618%"></stop>
            <stop stop-color="#EB90BD" offset="100%"></stop>
        </linearGradient>
        <linearGradient x1="9.88079757%" y1="76.5812586%" x2="92.0562288%" y2="-80.2763698%" id="linearGradient-10">
            <stop stop-color="#E67BB0" offset="0%"></stop>
            <stop stop-color="#F5AB95" offset="54.866%"></stop>
        </linearGradient>
        <linearGradient x1="78.8014629%" y1="88.987104%" x2="29.3637201%" y2="-2.28368627%" id="linearGradient-11">
            <stop stop-color="#F3B6C3" stop-opacity="0" offset="3.205%"></stop>
            <stop stop-color="#D84A98" offset="100%"></stop>
        </linearGradient>
        <linearGradient x1="50.2424028%" y1="96.2034121%" x2="49.7472833%" y2="1.82942981%" id="linearGradient-12">
            <stop stop-color="#EE8786" offset="0%"></stop>
            <stop stop-color="#E77E82" offset="16.167%"></stop>
            <stop stop-color="#D36677" offset="42.533%"></stop>
            <stop stop-color="#B33E66" offset="75.614%"></stop>
            <stop stop-color="#981D57" offset="99.875%"></stop>
        </linearGradient>
        <linearGradient x1="50.4527301%" y1="92.4709723%" x2="49.4159322%" y2="-4.7916839%" id="linearGradient-13">
            <stop stop-color="#F3B6C3" stop-opacity="0" offset="1.022%"></stop>
            <stop stop-color="#E64D7C" stop-opacity="0.3" offset="100%"></stop>
        </linearGradient>
        <linearGradient x1="135.518545%" y1="97.6042326%" x2="49.3437946%" y2="-0.752459281%" id="linearGradient-14">
            <stop stop-color="#F3B6C1" offset="0%"></stop>
            <stop stop-color="#FFFFFF" offset="99.696%"></stop>
        </linearGradient>
        <linearGradient x1="105.804565%" y1="97.5971942%" x2="49.5691869%" y2="-0.759209976%" id="linearGradient-15">
            <stop stop-color="#F3B6C1" offset="0%"></stop>
            <stop stop-color="#FFFFFF" offset="99.696%"></stop>
        </linearGradient>
        <linearGradient x1="49.2218403%" y1="90.5198522%" x2="50.848581%" y2="5.77675735%" id="linearGradient-16">
            <stop stop-color="#F9CDD9" offset="0%"></stop>
            <stop stop-color="#FFFFFF" offset="98.224%"></stop>
        </linearGradient>
        <linearGradient x1="101.64655%" y1="358.298908%" x2="-2.67009296%" y2="-264.47567%" id="linearGradient-17">
            <stop stop-color="#F492B9" offset="0%"></stop>
            <stop stop-color="#FFFFFF" offset="100%"></stop>
        </linearGradient>
        <linearGradient x1="50.7229521%" y1="96.886894%" x2="49.2295274%" y2="0.0358631433%" id="linearGradient-18">
            <stop stop-color="#C53884" offset="0%"></stop>
            <stop stop-color="#ED8AB9" offset="99.696%"></stop>
        </linearGradient>
        <linearGradient x1="42.7673206%" y1="63.1607842%" x2="65.8265055%" y2="21.2016238%" id="linearGradient-19">
            <stop stop-color="#F6CED0" offset="1.145%"></stop>
            <stop stop-color="#FFFFFF" offset="100%"></stop>
        </linearGradient>
        <linearGradient x1="67.9688668%" y1="59.3421203%" x2="17.3595442%" y2="33.030449%" id="linearGradient-20">
            <stop stop-color="#EB496A" stop-opacity="0" offset="0%"></stop>
            <stop stop-color="#DA4D8D" offset="100%"></stop>
        </linearGradient>
        <linearGradient x1="78.801464%" y1="88.987104%" x2="29.3637169%" y2="-2.28368627%" id="linearGradient-21">
            <stop stop-color="#EE253D" offset="2.688%"></stop>
            <stop stop-color="#D84A98" stop-opacity="0" offset="100%"></stop>
        </linearGradient>
        <linearGradient x1="50.1837788%" y1="106.78928%" x2="49.7466499%" y2="-28.3738339%" id="linearGradient-22">
            <stop stop-color="#F2B1AD" offset="8.032%"></stop>
            <stop stop-color="#EE88A6" offset="79.391%"></stop>
        </linearGradient>
        <linearGradient x1="48.4295646%" y1="84.8128927%" x2="52.1513549%" y2="2.3090345%" id="linearGradient-23">
            <stop stop-color="#FFFFFF" stop-opacity="0" offset="2.125%"></stop>
            <stop stop-color="#FAD9E3" stop-opacity="0.31543" offset="19.41%"></stop>
            <stop stop-color="#F5B7C9" stop-opacity="0.6063" offset="36.929%"></stop>
            <stop stop-color="#F19DB6" stop-opacity="0.8194" offset="51.606%"></stop>
            <stop stop-color="#EF8EAA" stop-opacity="0.95071" offset="62.65%"></stop>
            <stop stop-color="#EE88A6" offset="68.798%"></stop>
        </linearGradient>
        <linearGradient x1="51.0861683%" y1="94.3616889%" x2="48.9559718%" y2="7.34539293%" id="linearGradient-24">
            <stop stop-color="#FFFFFF" stop-opacity="0" offset="2.125%"></stop>
            <stop stop-color="#F1BBC6" offset="77.39%"></stop>
        </linearGradient>
        <linearGradient x1="48.8430522%" y1="93.7449909%" x2="52.2361442%" y2="4.23265257%" id="linearGradient-25">
            <stop stop-color="#FFF7F1" offset="7.946%"></stop>
            <stop stop-color="#F08EAA" offset="45.203%"></stop>
        </linearGradient>
        <linearGradient x1="49.9999628%" y1="100.000025%" x2="49.9999628%" y2="0%" id="linearGradient-26">
            <stop stop-color="#FFFFFF" offset="2.125%"></stop>
            <stop stop-color="#FFF7F1" offset="41.774%"></stop>
            <stop stop-color="#FBE0E7" offset="75.164%"></stop>
        </linearGradient>
        <linearGradient x1="49.0945234%" y1="93.6508093%" x2="50.9084749%" y2="6.20432759%" id="linearGradient-27">
            <stop stop-color="#FFF7F1" stop-opacity="0" offset="7.946%"></stop>
            <stop stop-color="#F8D8B3" offset="58.268%"></stop>
        </linearGradient>
        <linearGradient x1="16.2010791%" y1="105.867491%" x2="84.1880742%" y2="-5.05186305%" id="linearGradient-28">
            <stop stop-color="#FFFFFF" offset="0%"></stop>
            <stop stop-color="#FEF6E9" offset="8.497%"></stop>
            <stop stop-color="#FDE8CA" offset="22.914%"></stop>
            <stop stop-color="#FDDFB3" offset="36.927%"></stop>
            <stop stop-color="#FCD9A6" offset="50.227%"></stop>
            <stop stop-color="#FCD7A1" offset="62.053%"></stop>
        </linearGradient>
        <linearGradient x1="48.9796906%" y1="94.1569977%" x2="51.1714441%" y2="4.1506529%" id="linearGradient-29">
            <stop stop-color="#FFF7F1" offset="7.946%"></stop>
            <stop stop-color="#FDD7A2" offset="46.128%"></stop>
        </linearGradient>
        <linearGradient x1="50.0016545%" y1="93.9483059%" x2="50.0016545%" y2="4.22962018%" id="linearGradient-30">
            <stop stop-color="#FFF7F1" offset="0%"></stop>
            <stop stop-color="#FFFFFF" stop-opacity="0.5" offset="100%"></stop>
        </linearGradient>
        <linearGradient x1="49.9097393%" y1="96.9630456%" x2="50.1681763%" y2="-12.0865563%" id="linearGradient-31">
            <stop stop-color="#FFF7F1" offset="0%"></stop>
            <stop stop-color="#D98A64" offset="68.629%"></stop>
            <stop stop-color="#FACC98" offset="100%"></stop>
        </linearGradient>
        <linearGradient x1="49.9460543%" y1="96.9144802%" x2="50.0712525%" y2="-11.9973088%" id="linearGradient-32">
            <stop stop-color="#E5077F" offset="0%"></stop>
            <stop stop-color="#E50980" offset="33.709%"></stop>
            <stop stop-color="#E61084" offset="47.552%"></stop>
            <stop stop-color="#E71C8A" offset="57.756%"></stop>
            <stop stop-color="#E92E93" offset="66.17%"></stop>
            <stop stop-color="#EB459E" offset="73.477%"></stop>
            <stop stop-color="#EE61AC" offset="80.022%"></stop>
            <stop stop-color="#F283BD" offset="86.002%"></stop>
            <stop stop-color="#F6AAD1" offset="91.538%"></stop>
            <stop stop-color="#FAD4E6" offset="96.509%"></stop>
            <stop stop-color="#FEF7F8" offset="100%"></stop>
            <stop stop-color="#FFFDFE" offset="100%"></stop>
        </linearGradient>
        <linearGradient x1="-1.05246232%" y1="50.0000163%" x2="101.052462%" y2="50.0000163%" id="linearGradient-33">
            <stop stop-color="#EFB0BD" offset="0%"></stop>
            <stop stop-color="#F0B3BF" offset="31.618%"></stop>
            <stop stop-color="#F1BCC7" offset="52.739%"></stop>
            <stop stop-color="#F5CBD3" offset="70.79%"></stop>
            <stop stop-color="#F9E0E5" offset="87.017%"></stop>
            <stop stop-color="#FEF7F8" offset="100%"></stop>
            <stop stop-color="#FFFDFE" offset="100%"></stop>
        </linearGradient>
        <linearGradient x1="0%" y1="49.9999999%" x2="100%" y2="49.9999999%" id="linearGradient-34">
            <stop stop-color="#D98A64" offset="0%"></stop>
            <stop stop-color="#E4A176" offset="38.574%"></stop>
            <stop stop-color="#FACC98" offset="100%"></stop>
        </linearGradient>
        <linearGradient x1="0%" y1="50%" x2="100%" y2="50%" id="linearGradient-35">
            <stop stop-color="#E5077F" offset="0%"></stop>
            <stop stop-color="#E50980" offset="33.709%"></stop>
            <stop stop-color="#E61084" offset="47.552%"></stop>
            <stop stop-color="#E71C8A" offset="57.756%"></stop>
            <stop stop-color="#E92E93" offset="66.17%"></stop>
            <stop stop-color="#EB459E" offset="73.477%"></stop>
            <stop stop-color="#EE61AC" offset="80.022%"></stop>
            <stop stop-color="#F283BD" offset="86.002%"></stop>
            <stop stop-color="#F6AAD1" offset="91.538%"></stop>
            <stop stop-color="#FAD4E6" offset="96.509%"></stop>
            <stop stop-color="#FEF7F8" offset="100%"></stop>
            <stop stop-color="#FFFDFE" offset="100%"></stop>
        </linearGradient>
        <linearGradient x1="-0.705432496%" y1="50%" x2="100.705432%" y2="50%" id="linearGradient-36">
            <stop stop-color="#EFB0BD" offset="0%"></stop>
            <stop stop-color="#EFB2BF" offset="44.453%"></stop>
            <stop stop-color="#F1B9C5" offset="62.704%"></stop>
            <stop stop-color="#F4C5CF" offset="76.146%"></stop>
            <stop stop-color="#F7D7DD" offset="87.23%"></stop>
            <stop stop-color="#FCEDF0" offset="96.757%"></stop>
            <stop stop-color="#FEF7F8" offset="100%"></stop>
            <stop stop-color="#FFFDFE" offset="100%"></stop>
        </linearGradient>
        <linearGradient x1="-0.83486186%" y1="50.0000129%" x2="100.834862%" y2="50.0000129%" id="linearGradient-37">
            <stop stop-color="#EFB0BD" offset="0%"></stop>
            <stop stop-color="#EFB2BF" offset="44.453%"></stop>
            <stop stop-color="#F1B9C5" offset="62.704%"></stop>
            <stop stop-color="#F4C5CF" offset="76.146%"></stop>
            <stop stop-color="#F7D7DD" offset="87.23%"></stop>
            <stop stop-color="#FCEDF0" offset="96.757%"></stop>
            <stop stop-color="#FEF7F8" offset="100%"></stop>
            <stop stop-color="#FFFDFE" offset="100%"></stop>
        </linearGradient>
        <linearGradient x1="50.000815%" y1="-0.000334608031%" x2="50.000815%" y2="100%" id="linearGradient-38">
            <stop stop-color="#8B4975" offset="0%"></stop>
            <stop stop-color="#8E4E79" stop-opacity="0.97247" offset="17.586%"></stop>
            <stop stop-color="#985C84" stop-opacity="0.8891" offset="34.494%"></stop>
            <stop stop-color="#A87596" stop-opacity="0.74961" offset="51.138%"></stop>
            <stop stop-color="#BE97AF" stop-opacity="0.55385" offset="67.613%"></stop>
            <stop stop-color="#DBC2D0" stop-opacity="0.30441" offset="83.807%"></stop>
            <stop stop-color="#FEF7F8" stop-opacity="0" offset="99.885%"></stop>
        </linearGradient>
        <linearGradient x1="50.0026059%" y1="100.000077%" x2="50.0026059%" y2="-0.000483905309%" id="linearGradient-39">
            <stop stop-color="#FCD7A1" stop-opacity="0" offset="0.133%"></stop>
            <stop stop-color="#FCD59E" stop-opacity="0.16164" offset="18.317%"></stop>
            <stop stop-color="#FBD198" stop-opacity="0.56969" offset="59.156%"></stop>
            <stop stop-color="#FBCD91" offset="100%"></stop>
        </linearGradient>
        <linearGradient x1="50.0000692%" y1="100%" x2="50.0000692%" y2="0%" id="linearGradient-40">
            <stop stop-color="#FCD7A1" stop-opacity="0" offset="0%"></stop>
            <stop stop-color="#FCD7A1" stop-opacity="0.24232" offset="22.016%"></stop>
            <stop stop-color="#FCD7A1" stop-opacity="0.64605" offset="60.573%"></stop>
            <stop stop-color="#FCD7A1" stop-opacity="0.9009" offset="87.4%"></stop>
            <stop stop-color="#FCD7A1" offset="100%"></stop>
        </linearGradient>
        <linearGradient x1="-1.42301713%" y1="50.000022%" x2="101.423017%" y2="50.000022%" id="linearGradient-41">
            <stop stop-color="#EFB0BD" offset="0%"></stop>
            <stop stop-color="#F0B3BF" offset="31.618%"></stop>
            <stop stop-color="#F1BCC7" offset="52.739%"></stop>
            <stop stop-color="#F5CBD3" offset="70.79%"></stop>
            <stop stop-color="#F9E0E5" offset="87.017%"></stop>
            <stop stop-color="#FEF7F8" offset="100%"></stop>
            <stop stop-color="#FFFDFE" offset="100%"></stop>
        </linearGradient>
        <linearGradient x1="33.8901323%" y1="47.0054029%" x2="99.3456669%" y2="98.635146%" id="linearGradient-42">
            <stop stop-color="#FACC91" offset="0%"></stop>
            <stop stop-color="#FACD94" offset="22.064%"></stop>
            <stop stop-color="#FBD29F" offset="41.288%"></stop>
            <stop stop-color="#FBD9B1" offset="59.452%"></stop>
            <stop stop-color="#FCE4CA" offset="76.963%"></stop>
            <stop stop-color="#FDF1EA" offset="93.858%"></stop>
            <stop stop-color="#FEF7F8" offset="100%"></stop>
            <stop stop-color="#FFFDFE" offset="100%"></stop>
        </linearGradient>
        <linearGradient x1="47.5240888%" y1="43.9047081%" x2="72.6415106%" y2="105.77235%" id="linearGradient-43">
            <stop stop-color="#FACC91" offset="0%"></stop>
            <stop stop-color="#FACD94" offset="22.064%"></stop>
            <stop stop-color="#FBD29F" offset="41.288%"></stop>
            <stop stop-color="#FBD9B1" offset="59.452%"></stop>
            <stop stop-color="#FCE4CA" offset="76.963%"></stop>
            <stop stop-color="#FDF1EA" offset="93.858%"></stop>
            <stop stop-color="#FEF7F8" offset="100%"></stop>
            <stop stop-color="#FFFDFE" offset="100%"></stop>
        </linearGradient>
        <linearGradient x1="96.5897493%" y1="28.2123435%" x2="-6.28089638%" y2="76.3130485%" id="linearGradient-44">
            <stop stop-color="#FACC91" offset="0%"></stop>
            <stop stop-color="#FACF98" offset="16.251%"></stop>
            <stop stop-color="#FBD7AB" offset="39.745%"></stop>
            <stop stop-color="#FCE4CB" offset="67.639%"></stop>
            <stop stop-color="#FEF6F6" offset="98.691%"></stop>
            <stop stop-color="#FEF7F8" offset="100%"></stop>
            <stop stop-color="#FFFDFE" offset="100%"></stop>
        </linearGradient>
        <linearGradient x1="50.00054%" y1="0%" x2="50.00054%" y2="100%" id="linearGradient-45">
            <stop stop-color="#ED9CAC" offset="0%"></stop>
            <stop stop-color="#ED9DAD" stop-opacity="0.9866" offset="14.882%"></stop>
            <stop stop-color="#EEA1B1" stop-opacity="0.94447" offset="26.77%"></stop>
            <stop stop-color="#EFA8B6" stop-opacity="0.87339" offset="37.622%"></stop>
            <stop stop-color="#F1B2BF" stop-opacity="0.77322" offset="47.861%"></stop>
            <stop stop-color="#F3BFC9" stop-opacity="0.64377" offset="57.674%"></stop>
            <stop stop-color="#F6CED6" stop-opacity="0.4848" offset="67.166%"></stop>
            <stop stop-color="#FAE0E6" stop-opacity="0.2963" offset="76.396%"></stop>
            <stop stop-color="#FDF5F7" stop-opacity="0.08367" offset="85.196%"></stop>
            <stop stop-color="#FFFDFE" stop-opacity="0" offset="88.326%"></stop>
            <stop stop-color="#FEF7F8" stop-opacity="0" offset="100%"></stop>
        </linearGradient>
        <linearGradient x1="50%" y1="0%" x2="50%" y2="100%" id="linearGradient-46">
            <stop stop-color="#D2899A" offset="0%"></stop>
            <stop stop-color="#D28A9B" stop-opacity="0.98947" offset="28.289%"></stop>
            <stop stop-color="#D48E9E" stop-opacity="0.95323" offset="42.169%"></stop>
            <stop stop-color="#D795A4" stop-opacity="0.89082" offset="52.913%"></stop>
            <stop stop-color="#DB9FAD" stop-opacity="0.80204" offset="62.054%"></stop>
            <stop stop-color="#E0ABB7" stop-opacity="0.68677" offset="70.166%"></stop>
            <stop stop-color="#E6BBC5" stop-opacity="0.54466" offset="77.559%"></stop>
            <stop stop-color="#EDCED5" stop-opacity="0.37569" offset="84.397%"></stop>
            <stop stop-color="#F6E3E7" stop-opacity="0.18548" offset="90.626%"></stop>
            <stop stop-color="#FEF7F8" stop-opacity="0" offset="95.744%"></stop>
        </linearGradient>
        <linearGradient x1="51.9335642%" y1="-2.34826239%" x2="49.2745738%" y2="86.7313232%" id="linearGradient-47">
            <stop stop-color="#FACC91" offset="0%"></stop>
            <stop stop-color="#FACD94" offset="22.064%"></stop>
            <stop stop-color="#FBD29F" offset="41.288%"></stop>
            <stop stop-color="#FBD9B1" offset="59.452%"></stop>
            <stop stop-color="#FCE4CA" offset="76.963%"></stop>
            <stop stop-color="#FDF1EA" offset="93.858%"></stop>
            <stop stop-color="#FEF7F8" offset="100%"></stop>
            <stop stop-color="#FFFDFE" offset="100%"></stop>
        </linearGradient>
        <linearGradient x1="50%" y1="0%" x2="50%" y2="100%" id="linearGradient-48">
            <stop stop-color="#8B4975" offset="0%"></stop>
            <stop stop-color="#92547D" stop-opacity="0.93798" offset="10.945%"></stop>
            <stop stop-color="#A67395" stop-opacity="0.76893" offset="28.518%"></stop>
            <stop stop-color="#C6A4BA" stop-opacity="0.49323" offset="50.52%"></stop>
            <stop stop-color="#F2E8EE" stop-opacity="0.11419" offset="75.867%"></stop>
            <stop stop-color="#FFFDFE" stop-opacity="0" offset="82.87%"></stop>
            <stop stop-color="#FEF7F8" stop-opacity="0" offset="100%"></stop>
        </linearGradient>
        <linearGradient x1="50.0056161%" y1="108.329187%" x2="49.8791491%" y2="-81.487437%" id="linearGradient-49">
            <stop stop-color="#FFF7F1" offset="7.946%"></stop>
            <stop stop-color="#F49F60" offset="51.346%"></stop>
        </linearGradient>
        <linearGradient x1="49.9994075%" y1="100.017346%" x2="49.9994075%" y2="0.000163125503%" id="linearGradient-50">
            <stop stop-color="#FDD8A4" offset="0%"></stop>
            <stop stop-color="#FBCA93" offset="6.045%"></stop>
            <stop stop-color="#F8B77C" offset="16.272%"></stop>
            <stop stop-color="#F6A96C" offset="27.388%"></stop>
            <stop stop-color="#F4A163" offset="39.93%"></stop>
            <stop stop-color="#F49F60" offset="56.912%"></stop>
        </linearGradient>
        <linearGradient x1="50%" y1="100%" x2="50%" y2="-5.08864022e-13%" id="linearGradient-51">
            <stop stop-color="#F0BCC7" offset="1.923%"></stop>
            <stop stop-color="#F0B4C2" offset="9.116%"></stop>
            <stop stop-color="#EF9CB3" offset="34.914%"></stop>
            <stop stop-color="#EE8DA9" offset="58.745%"></stop>
            <stop stop-color="#EE88A6" offset="78.568%"></stop>
        </linearGradient>
        <linearGradient x1="71.6226644%" y1="97.1510591%" x2="27.4141881%" y2="0.748801843%" id="linearGradient-52">
            <stop stop-color="#FFFFFF" stop-opacity="0" offset="10.496%"></stop>
            <stop stop-color="#FFFAF3" stop-opacity="0.12564" offset="15.906%"></stop>
            <stop stop-color="#FEF1DE" stop-opacity="0.35436" offset="26.751%"></stop>
            <stop stop-color="#FDE9CB" stop-opacity="0.5517" offset="37.611%"></stop>
            <stop stop-color="#FDE2BC" stop-opacity="0.71294" offset="48.238%"></stop>
            <stop stop-color="#FCDDB0" stop-opacity="0.83822" offset="58.584%"></stop>
            <stop stop-color="#FCDAA8" stop-opacity="0.92776" offset="68.574%"></stop>
            <stop stop-color="#FCD8A3" stop-opacity="0.98164" offset="78.048%"></stop>
            <stop stop-color="#FCD7A1" offset="86.466%"></stop>
        </linearGradient>
        <linearGradient x1="34.7345515%" y1="182.338378%" x2="65.6543175%" y2="-78.1269776%" id="linearGradient-53">
            <stop stop-color="#FFFFFF" offset="2.125%"></stop>
            <stop stop-color="#FFF7F1" offset="9.426%"></stop>
            <stop stop-color="#FCD7A1" offset="62.053%"></stop>
        </linearGradient>
        <linearGradient x1="-10.2654451%" y1="90.2796654%" x2="110.26528%" y2="9.72027074%" id="linearGradient-54">
            <stop stop-color="#FCD7A1" stop-opacity="0" offset="10.454%"></stop>
            <stop stop-color="#FCD8A9" stop-opacity="0.12232" offset="16.658%"></stop>
            <stop stop-color="#FCDAB8" stop-opacity="0.35186" offset="29.464%"></stop>
            <stop stop-color="#FBDCC5" stop-opacity="0.54993" offset="42.29%"></stop>
            <stop stop-color="#FBDDD0" stop-opacity="0.7118" offset="54.843%"></stop>
            <stop stop-color="#FBDFD8" stop-opacity="0.83758" offset="67.064%"></stop>
            <stop stop-color="#FBDFDE" stop-opacity="0.92747" offset="78.865%"></stop>
            <stop stop-color="#FBE0E2" stop-opacity="0.98157" offset="90.056%"></stop>
            <stop stop-color="#FBE0E3" offset="100%"></stop>
        </linearGradient>
        <linearGradient x1="49.4545451%" y1="96.6762656%" x2="51.0885109%" y2="-16.8543864%" id="linearGradient-55">
            <stop stop-color="#FDD8A4" offset="0%"></stop>
            <stop stop-color="#FBCA93" offset="6.045%"></stop>
            <stop stop-color="#F8B77C" offset="16.272%"></stop>
            <stop stop-color="#F6A96C" offset="27.388%"></stop>
            <stop stop-color="#F4A163" offset="39.93%"></stop>
            <stop stop-color="#F49F60" offset="56.912%"></stop>
        </linearGradient>
        <linearGradient x1="51.0477383%" y1="-3.65532373%" x2="48.5051903%" y2="106.15711%" id="linearGradient-56">
            <stop stop-color="#F088A7" offset="0%"></stop>
            <stop stop-color="#F08AA8" stop-opacity="0.98562" offset="15.145%"></stop>
            <stop stop-color="#F18FAC" stop-opacity="0.94117" offset="28.348%"></stop>
            <stop stop-color="#F297B2" stop-opacity="0.86645" offset="40.826%"></stop>
            <stop stop-color="#F3A2BA" stop-opacity="0.76128" offset="52.866%"></stop>
            <stop stop-color="#F5B2C5" stop-opacity="0.62559" offset="64.588%"></stop>
            <stop stop-color="#F8C4D3" stop-opacity="0.45918" offset="76.071%"></stop>
            <stop stop-color="#FADAE3" stop-opacity="0.26177" offset="87.367%"></stop>
            <stop stop-color="#FDF3F5" stop-opacity="0.03899" offset="98.246%"></stop>
            <stop stop-color="#FEF7F8" stop-opacity="0" offset="100%"></stop>
            <stop stop-color="#FFFDFE" stop-opacity="0" offset="100%"></stop>
        </linearGradient>
        <linearGradient x1="50%" y1="100%" x2="50%" y2="0%" id="linearGradient-57">
            <stop stop-color="#FFFFFF" offset="2.125%"></stop>
            <stop stop-color="#EE88A6" offset="77.39%"></stop>
        </linearGradient>
        <linearGradient x1="75.9417667%" y1="8.70147274%" x2="39.9084236%" y2="109.439753%" id="linearGradient-58">
            <stop stop-color="#854271" offset="0%"></stop>
            <stop stop-color="#8A4A77" stop-opacity="0.95673" offset="11.642%"></stop>
            <stop stop-color="#996188" stop-opacity="0.83363" offset="26.844%"></stop>
            <stop stop-color="#B287A5" stop-opacity="0.63075" offset="44.017%"></stop>
            <stop stop-color="#D5BCCD" stop-opacity="0.34789" offset="62.637%"></stop>
            <stop stop-color="#FFFDFE" stop-opacity="0" offset="81.659%"></stop>
            <stop stop-color="#FEF7F8" stop-opacity="0" offset="100%"></stop>
        </linearGradient>
        <linearGradient x1="48.4652183%" y1="99.1596278%" x2="53.6010533%" y2="0.563350036%" id="linearGradient-59">
            <stop stop-color="#FFF7F1" offset="15.934%"></stop>
            <stop stop-color="#F08EAA" offset="100%"></stop>
        </linearGradient>
        <linearGradient x1="52.4594899%" y1="55.9104733%" x2="-21.2812104%" y2="165.616065%" id="linearGradient-60">
            <stop stop-color="#854271" offset="0%"></stop>
            <stop stop-color="#8A4A77" stop-opacity="0.95673" offset="7.969%"></stop>
            <stop stop-color="#996188" stop-opacity="0.83363" offset="18.375%"></stop>
            <stop stop-color="#B287A5" stop-opacity="0.63075" offset="30.129%"></stop>
            <stop stop-color="#D5BCCD" stop-opacity="0.34789" offset="42.875%"></stop>
            <stop stop-color="#FFFDFE" stop-opacity="0" offset="55.895%"></stop>
            <stop stop-color="#FEF7F8" stop-opacity="0" offset="100%"></stop>
        </linearGradient>
        <linearGradient x1="53.678611%" y1="-2.40246672%" x2="48.5886331%" y2="86.7416475%" id="linearGradient-61">
            <stop stop-color="#F5A05F" offset="0%"></stop>
            <stop stop-color="#F5A262" offset="18.505%"></stop>
            <stop stop-color="#F6A86D" offset="34.627%"></stop>
            <stop stop-color="#F7B27F" offset="49.864%"></stop>
            <stop stop-color="#F8C198" offset="64.556%"></stop>
            <stop stop-color="#FAD3B9" offset="78.864%"></stop>
            <stop stop-color="#FDE9E0" offset="92.691%"></stop>
            <stop stop-color="#FEF7F8" offset="100%"></stop>
            <stop stop-color="#FFFDFE" offset="100%"></stop>
        </linearGradient>
        <linearGradient x1="49.9951506%" y1="122.779267%" x2="50.024652%" y2="-15.7012436%" id="linearGradient-62">
            <stop stop-color="#FFFFFF" offset="0%"></stop>
            <stop stop-color="#ED9CAC" offset="87.713%"></stop>
        </linearGradient>
        <linearGradient x1="312.396374%" y1="93.7236016%" x2="-224.0829%" y2="4.32893433%" id="linearGradient-63">
            <stop stop-color="#FFFFFF" stop-opacity="0" offset="10.582%"></stop>
            <stop stop-color="#FEF5F7" stop-opacity="0.09685" offset="14.719%"></stop>
            <stop stop-color="#FBDCE5" stop-opacity="0.33314" offset="25.747%"></stop>
            <stop stop-color="#F9C7D5" stop-opacity="0.53693" offset="36.788%"></stop>
            <stop stop-color="#F7B6C8" stop-opacity="0.70349" offset="47.595%"></stop>
            <stop stop-color="#F6A8BE" stop-opacity="0.83294" offset="58.118%"></stop>
            <stop stop-color="#F59FB7" stop-opacity="0.92539" offset="68.275%"></stop>
            <stop stop-color="#F499B2" stop-opacity="0.98104" offset="77.907%"></stop>
            <stop stop-color="#F497B1" offset="86.466%"></stop>
        </linearGradient>
        <linearGradient x1="312.436093%" y1="93.7302282%" x2="-224.124656%" y2="4.3219836%" id="linearGradient-64">
            <stop stop-color="#FFFFFF" stop-opacity="0" offset="10.582%"></stop>
            <stop stop-color="#FEF5F7" stop-opacity="0.09685" offset="14.719%"></stop>
            <stop stop-color="#FBDCE5" stop-opacity="0.33314" offset="25.747%"></stop>
            <stop stop-color="#F9C7D5" stop-opacity="0.53693" offset="36.788%"></stop>
            <stop stop-color="#F7B6C8" stop-opacity="0.70349" offset="47.595%"></stop>
            <stop stop-color="#F6A8BE" stop-opacity="0.83294" offset="58.118%"></stop>
            <stop stop-color="#F59FB7" stop-opacity="0.92539" offset="68.275%"></stop>
            <stop stop-color="#F499B2" stop-opacity="0.98104" offset="77.907%"></stop>
            <stop stop-color="#F497B1" offset="86.466%"></stop>
        </linearGradient>
        <linearGradient x1="312.413688%" y1="93.7264468%" x2="-224.100214%" y2="4.32594515%" id="linearGradient-65">
            <stop stop-color="#FFFFFF" stop-opacity="0" offset="10.582%"></stop>
            <stop stop-color="#FEF5F7" stop-opacity="0.09685" offset="14.719%"></stop>
            <stop stop-color="#FBDCE5" stop-opacity="0.33314" offset="25.747%"></stop>
            <stop stop-color="#F9C7D5" stop-opacity="0.53693" offset="36.788%"></stop>
            <stop stop-color="#F7B6C8" stop-opacity="0.70349" offset="47.595%"></stop>
            <stop stop-color="#F6A8BE" stop-opacity="0.83294" offset="58.118%"></stop>
            <stop stop-color="#F59FB7" stop-opacity="0.92539" offset="68.275%"></stop>
            <stop stop-color="#F499B2" stop-opacity="0.98104" offset="77.907%"></stop>
            <stop stop-color="#F497B1" offset="86.466%"></stop>
        </linearGradient>
        <linearGradient x1="50%" y1="-7.40750922e-05%" x2="50%" y2="100%" id="linearGradient-66">
            <stop stop-color="#FCD7A1" offset="0%"></stop>
            <stop stop-color="#F9C289" offset="19.725%"></stop>
            <stop stop-color="#F6AF72" offset="43.51%"></stop>
            <stop stop-color="#F5A365" offset="66.174%"></stop>
            <stop stop-color="#F49F60" offset="86.331%"></stop>
        </linearGradient>
        <linearGradient x1="49.9999496%" y1="100.000026%" x2="49.9999496%" y2="3.16083508e-06%" id="linearGradient-67">
            <stop stop-color="#FCD7A1" stop-opacity="0" offset="0%"></stop>
            <stop stop-color="#FCD8A7" stop-opacity="0.09549" offset="2.927%"></stop>
            <stop stop-color="#FCDAB4" stop-opacity="0.28333" offset="9.389%"></stop>
            <stop stop-color="#FCDBBF" stop-opacity="0.45446" offset="16.418%"></stop>
            <stop stop-color="#FBDCC9" stop-opacity="0.60184" offset="23.856%"></stop>
            <stop stop-color="#FBDED1" stop-opacity="0.72574" offset="31.81%"></stop>
            <stop stop-color="#FBDED8" stop-opacity="0.82643" offset="40.446%"></stop>
            <stop stop-color="#FBDFDD" stop-opacity="0.90403" offset="50.024%"></stop>
            <stop stop-color="#FBE0E0" stop-opacity="0.95869" offset="61.057%"></stop>
            <stop stop-color="#FBE0E2" stop-opacity="0.99056" offset="74.84%"></stop>
            <stop stop-color="#FBE0E3" offset="100%"></stop>
        </linearGradient>
        <linearGradient x1="49.9997197%" y1="100%" x2="49.9997197%" y2="6.36996575e-06%" id="linearGradient-68">
            <stop stop-color="#FFFFFF" stop-opacity="0" offset="10.582%"></stop>
            <stop stop-color="#FEF5F7" stop-opacity="0.09685" offset="14.719%"></stop>
            <stop stop-color="#FBDCE5" stop-opacity="0.33314" offset="25.747%"></stop>
            <stop stop-color="#F9C7D5" stop-opacity="0.53693" offset="36.788%"></stop>
            <stop stop-color="#F7B6C8" stop-opacity="0.70349" offset="47.595%"></stop>
            <stop stop-color="#F6A8BE" stop-opacity="0.83294" offset="58.118%"></stop>
            <stop stop-color="#F59FB7" stop-opacity="0.92539" offset="68.275%"></stop>
            <stop stop-color="#F499B2" stop-opacity="0.98104" offset="77.907%"></stop>
            <stop stop-color="#F497B1" offset="86.466%"></stop>
        </linearGradient>
        <linearGradient x1="49.8769608%" y1="86.7689347%" x2="50.1044118%" y2="18.0107083%" id="linearGradient-69">
            <stop stop-color="#FCD7A1" stop-opacity="0" offset="0%"></stop>
            <stop stop-color="#F9C187" stop-opacity="0.23935" offset="36.627%"></stop>
            <stop stop-color="#F6A96A" stop-opacity="0.49832" offset="79.622%"></stop>
            <stop stop-color="#F5A05F" stop-opacity="0.6" offset="100%"></stop>
        </linearGradient>
    </defs>
    <g id="Page-1" stroke="none" stroke-width="1" fill="none" fill-rule="evenodd">
        <g id="EurukoLogo">
            <g id="Layer_4">
                <rect id="Rectangle" fill="url(#linearGradient-1)" x="30.09105" y="0" width="290.81637" height="345.91842" rx="23.26744"></rect>
                <g id="love" transform="translate(0.000000, 402.000000)">
                    <polygon id="Path" fill="#854170" points="4.0293 1.78995 6.2383 10.06925 8.959 1.78995 11.61135 1.78995 14.3301 10.06925 16.54103 1.78995 20.02541 1.78995 16.20119 14.60831 12.8008 14.60831 10.28517 7.1796 7.7676 14.60831 4.36916 14.60831 0.54348 1.78995"></polygon>
                    <path d="M22.62598,2.538 C22.6247827,2.30733057 22.6713285,2.07890864 22.76269,1.8671 C22.8506342,1.66051033 22.9776231,1.47283509 23.13669,1.31437 C23.2953127,1.15594332 23.4825404,1.02903463 23.68845,0.94037 C24.1180842,0.759383721 24.6025658,0.759383721 25.0322,0.94037 C25.4482399,1.11911137 25.7796789,1.45090126 25.95798,1.86713 C26.1402739,2.29616236 26.1402739,2.78087764 25.95798,3.20991 C25.779682,3.62613849 25.4482415,3.9579262 25.0322,4.13666 C24.6025685,4.3176599 24.1180815,4.3176599 23.68845,4.13666 C23.4825421,4.04799217 23.2953151,3.92108387 23.13669,3.76266 C22.9776231,3.60419491 22.8506342,3.41651967 22.76269,3.20993 C22.6712263,2.99779147 22.6246792,2.76901227 22.62598,2.538 Z M25.90723,5.88761 L25.90723,14.60831 L22.83008,14.60831 L22.83008,5.88761 L25.90723,5.88761 Z" id="Shape" fill="#854170" fill-rule="nonzero"></path>
                    <polygon id="Path" fill="#854170" points="32.91113 8.45402 32.91113 14.60831 29.83398 14.60831 29.83398 8.45402 28.81348 8.45402 28.81348 5.88761 29.83398 5.88761 29.83398 3.26945 32.91113 3.26945 32.91113 5.88761 34.66213 5.88761 34.66213 8.45402"></polygon>
                    <path d="M37.66991,0.49796 L40.74707,0.49796 L40.74707,6.9921 C41.0811177,6.5496124 41.5191983,6.19639726 42.02246,5.96378 C42.5048252,5.7786434 43.0185938,5.68909077 43.53515,5.70011 C44.4572987,5.63266099 45.3640706,5.96407786 46.02539,6.61027 C46.6130579,7.28928037 46.9147763,8.1695791 46.86719,9.06632 L46.86719,14.60832 L43.79004,14.60832 L43.79004,10.205 C43.7982218,9.84548373 43.7641348,9.48625116 43.68848,9.13469 C43.6390454,8.89636281 43.5209004,8.67772924 43.34863,8.50578 C43.0761133,8.26749666 42.7242032,8.1399737 42.3623,8.14836 C41.9133523,8.11934229 41.4746022,8.2906256 41.16406,8.61614 C40.8638117,8.99337528 40.7151147,9.4690631 40.74706,9.95014 L40.74706,14.60834 L37.66991,14.60834 L37.66991,0.49796 Z" id="Path" fill="#854170"></path>
                    <path d="M89.96387,8.45402 L89.96387,14.60831 L86.88669,14.60831 L86.88669,8.45402 L85.7822,8.45402 L85.7822,5.88761 L86.88669,5.88761 L86.88669,4.57804 C86.8691507,3.99334877 86.9379237,3.40926673 87.09079,2.84464 C87.2070463,2.47627023 87.391569,2.1330609 87.63473,1.83292 C87.8843736,1.52111977 88.1797089,1.24884148 88.51073,1.02531 C88.8436941,0.799401886 89.2070108,0.621851082 89.58983,0.49796 C89.9576496,0.376684586 90.3421899,0.313749065 90.72948,0.31144 C90.9726511,0.309426779 91.2151111,0.337983897 91.45116,0.39644 C91.6816498,0.456089827 91.9064696,0.535821415 92.12304,0.63472 L92.12304,3.32027 C91.9404868,3.22694065 91.7499466,3.15013758 91.5537,3.09078 C91.3739675,3.03946515 91.1878828,3.01381803 91.00097,3.0146 C90.871105,3.01523367 90.7420671,3.03531304 90.61815,3.07417 C90.4763158,3.12151192 90.350054,3.2065899 90.25292,3.32027 C90.1273611,3.47336547 90.0477867,3.65892568 90.02343,3.85542 C89.9780594,4.16807017 89.9581373,4.48388681 89.96386,4.79976 L89.96386,5.88765 L92.12304,5.88765 L92.12304,8.45406 L89.96387,8.45402 Z" id="Path" fill="#854170"></path>
                    <path d="M94.74023,5.88761 L97.81738,5.88761 L97.81738,7.31534 C98.1162553,6.82369205 98.5305681,6.41238619 99.02438,6.1171 C99.53212,5.83083776 100.107655,5.68678131 100.69038,5.7001 L100.95405,5.7001 C101.065189,5.70176055 101.175966,5.713198 101.2851,5.73428 L101.2851,8.67569 C100.873692,8.47051384 100.419628,8.36544633 99.95991,8.36905 C99.3547254,8.32427051 98.7623874,8.55926073 98.35249,9.00674 C97.96073,9.54492666 97.7712382,10.2039944 97.81733,10.86807 L97.81733,14.6083 L94.74018,14.6083 L94.74023,5.88761 Z" id="Path" fill="#854170"></path>
                    <path d="M103.85254,10.17179 C103.84756,9.54673859 103.981306,8.92836636 104.24414,8.36124 C104.501524,7.80351835 104.871983,7.30535983 105.33203,6.89835 C105.81829,6.47175536 106.380482,6.14047129 106.98926,5.92179 C107.662057,5.67779565 108.373237,5.55673047 109.08887,5.56437 C109.797926,5.5578302 110.502623,5.67583153 111.17087,5.913 C111.782145,6.12835653 112.347347,6.45701135 112.83687,6.88175 C113.303837,7.29098619 113.677777,7.79545487 113.93355,8.36124 C114.19915,8.95744276 114.332417,9.60411447 114.32418,10.25675 C114.332398,10.9103052 114.196002,11.5575925 113.92476,12.15226 C113.665501,12.7154473 113.292437,13.2188514 112.82906,13.63077 C112.33991,14.0587939 111.770635,14.3854238 111.15426,14.59171 C110.472942,14.8230226 109.757526,14.9379133 109.03804,14.93156 C108.332225,14.9385631 107.630505,14.8235894 106.96383,14.59171 C106.357369,14.3819465 105.79939,14.0521406 105.3232,13.62198 C104.862586,13.2013942 104.495018,12.6891296 104.2441,12.11808 C103.976628,11.5045531 103.843137,10.8410194 103.85254,10.17179 Z M107.09961,10.20499 C107.096064,10.4825198 107.150964,10.7576892 107.26074,11.01261 C107.363569,11.2488305 107.507759,11.4647877 107.68652,11.65031 C107.864455,11.8339612 108.078621,11.9786211 108.31543,12.07511 C108.810791,12.2795364 109.366939,12.2795364 109.8623,12.07511 C110.09885,11.9781371 110.312923,11.8335405 110.49121,11.65031 C110.669984,11.4650009 110.813886,11.2489793 110.91601,11.01261 C111.024943,10.7635884 111.080179,10.4944074 111.07812,10.22261 C111.079082,9.95626463 111.023842,9.69271259 110.91601,9.44917 C110.813648,9.21293333 110.669773,8.99695542 110.49121,8.81148 C110.312921,8.62824899 110.098849,8.48364937 109.8623,8.38667 C109.366939,8.18224362 108.810791,8.18224362 108.31543,8.38667 C108.078623,8.48316628 107.864457,8.62782897 107.68652,8.81148 C107.509403,8.99500304 107.365354,9.20777081 107.26074,9.44038 C107.152877,9.6807646 107.097927,9.94152016 107.09961,10.20499 Z" id="Shape" fill="#854170" fill-rule="nonzero"></path>
                    <path d="M117.55469,5.88761 L120.63183,5.88761 L120.63183,6.95792 C121.373605,6.19476827 122.389889,5.76013422 123.4541,5.75092 C124.666126,5.70653196 125.80375,6.33449777 126.4121,7.38373 C127.019012,6.33104217 128.155554,5.69729526 129.3701,5.73432 C129.762575,5.73192267 130.152913,5.7922532 130.52635,5.91303 C130.877055,6.02503777 131.196974,6.21692338 131.46092,6.47358 C131.738685,6.75533136 131.950478,7.09520154 132.08103,7.46869 C132.245189,7.94387555 132.322916,8.44462073 132.31053,8.94721 L132.31053,14.60834 L129.23435,14.60834 L129.23435,10.30756 C129.240949,9.94265883 129.209529,9.57806247 129.1406,9.21967 C129.097439,8.98193698 129.004596,8.75598778 128.86814,8.55659 C128.764839,8.40974041 128.619958,8.2971617 128.45214,8.23334 C128.288367,8.17591134 128.115916,8.14715663 127.94237,8.14834 C126.956037,8.14834 126.462873,8.86806667 126.46288,10.30752 L126.46288,14.6083 L123.38573,14.6083 L123.38573,10.30752 C123.391866,9.94010285 123.363407,9.57292368 123.30073,9.21084 C123.261169,8.96831523 123.177779,8.73502051 123.05464,8.52237 C122.958702,8.36265427 122.811825,8.23985527 122.63764,8.17373 C122.268348,8.05175689 121.870101,8.0486826 121.49897,8.16494 C121.319621,8.22911048 121.163076,8.34455723 121.04878,8.49694 C120.900332,8.69966733 120.795887,8.93117865 120.74214,9.17663 C120.660157,9.54779691 120.623104,9.92747573 120.63178,10.30749 L120.63178,14.60827 L117.55469,14.60834 L117.55469,5.88761 Z" id="Path" fill="#854170"></path>
                    <path d="M149.65137,7.43448 L156.26469,7.43448 C156.267572,8.05303073 156.239203,8.67133213 156.17969,9.28702 C156.128967,9.81451791 156.014527,10.3339284 155.83887,10.8339 C155.616294,11.4757675 155.288948,12.0763404 154.87012,12.61124 C154.468705,13.1209067 153.982811,13.5579143 153.43359,13.90324 C152.872203,14.2541627 152.262124,14.5203609 151.62305,14.69324 C150.947448,14.8772991 150.250018,14.9689564 149.5498,14.96571 C148.617125,14.9773449 147.69088,14.8099287 146.82129,14.47254 C146.027406,14.1618514 145.306519,13.6900177 144.7041,13.0868 C144.103769,12.4743772 143.635151,11.745552 143.3271,10.9452 C142.989354,10.0638087 142.822001,9.12631183 142.83393,8.1825 C142.823549,7.24500673 142.987808,6.31377515 143.31831,5.43641 C143.620583,4.63550292 144.090363,3.90835954 144.69624,3.3036 C145.310403,2.7012131 146.042541,2.23238963 146.84663,1.9266 C147.74221,1.58735441 148.693734,1.42004416 149.65132,1.43344 C150.880209,1.40636438 152.094308,1.70559383 153.16987,2.30063 C154.225114,2.92925647 155.061958,3.86665689 155.56733,4.98617 L152.40522,6.29477 C152.183105,5.68686497 151.783305,5.15980732 151.25776,4.78207 C150.779297,4.47391968 150.220359,4.3142171 149.65132,4.32307 C149.182921,4.31687895 148.718767,4.41250693 148.29096,4.60334 C147.887058,4.78817068 147.529929,5.06152709 147.24604,5.40315 C146.943477,5.77354638 146.712644,6.1971209 146.56538,6.65215 C146.248956,7.67516124 146.237419,8.76819788 146.53218,9.79766 C146.661245,10.2386538 146.877785,10.6491448 147.16889,11.00466 C147.454599,11.3460445 147.815632,11.6164707 148.22358,11.79466 C148.685742,11.9898916 149.183903,12.0853957 149.6855,12.07493 C150.006138,12.0761276 150.325775,12.0390827 150.63764,11.96458 C150.931746,11.8962996 151.211013,11.7751962 151.46186,11.60716 C151.706903,11.4412874 151.912855,11.2240062 152.06538,10.97044 C152.234609,10.6773636 152.344447,10.3538209 152.38862,10.01829 L149.65132,10.01829 L149.65137,7.43448 Z" id="Path" fill="#854170"></path>
                    <path d="M159.34082,2.538 C159.339626,2.30732987 159.386175,2.07890791 159.47754,1.8671 C159.56548,1.66050792 159.692469,1.47283188 159.85154,1.31437 C160.010163,1.15594332 160.19739,1.02903463 160.4033,0.94037 C160.832934,0.759383721 161.317416,0.759383721 161.74705,0.94037 C162.163095,1.11910359 162.494537,1.45089599 162.67283,1.86713 C162.855124,2.29616236 162.855124,2.78087764 162.67283,3.20991 C162.494541,3.62614433 162.163097,3.95793484 161.74705,4.13666 C161.317419,4.3176599 160.832931,4.3176599 160.4033,4.13666 C160.197392,4.04799217 160.010165,3.92108387 159.85154,3.76266 C159.692469,3.60419812 159.56548,3.41652208 159.47754,3.20993 C159.386073,2.99779212 159.339523,2.76901294 159.34082,2.538 Z M162.62207,5.88761 L162.62207,14.60831 L159.54492,14.60831 L159.54492,5.88761 L162.62207,5.88761 Z" id="Shape" fill="#854170" fill-rule="nonzero"></path>
                    <polygon id="Path" fill="#854170" points="169.62598 8.45402 169.62598 14.60831 166.54883 14.60831 166.54883 8.45402 165.52832 8.45402 165.52832 5.88761 166.54883 5.88761 166.54883 3.26945 169.62598 3.26945 169.62598 5.88761 171.37698 5.88761 171.37698 8.45402"></polygon>
                    <polygon id="Path" fill="#854170" points="177.61474 6.73722 182.42627 6.73722 182.42627 1.78995 185.75827 1.78995 185.75827 14.60831 182.42627 14.60831 182.42627 9.3212 177.61474 9.3212 177.61474 14.60831 174.2832 14.60831 174.2832 1.78995 177.61474 1.78995"></polygon>
                    <path d="M192.69482,5.88761 L192.69482,10.8007 C192.67674,11.3712674 192.970813,11.9064042 193.462145,12.1970352 C193.953478,12.4876662 194.564092,12.4876662 195.055425,12.1970352 C195.546757,11.9064042 195.84083,11.3712674 195.82275,10.8007 L195.82275,5.88761 L198.8999,5.88761 L198.8999,11.39542 C198.970201,12.416914 198.535247,13.4079725 197.73584,14.04777 C195.567911,15.2261562 192.950639,15.2261562 190.78271,14.04777 C189.982679,13.4083796 189.547294,12.4171394 189.61771,11.39542 L189.61771,5.88761 L192.69482,5.88761 Z" id="Path" fill="#854170"></path>
                    <path d="M205.52978,0.49796 L205.52978,6.7548 C206.232414,6.00453574 207.221914,5.58990476 208.24951,5.61515 C208.861279,5.60817591 209.467405,5.7327302 210.02685,5.98038 C210.547934,6.21246784 211.016415,6.5480357 211.40385,6.96671 C211.790728,7.39350186 212.093557,7.88949345 212.29643,8.42863 C212.729115,9.59440827 212.725993,10.8772713 212.28764,12.04093 C212.078206,12.589835 211.763368,13.092445 211.36088,13.52042 C210.963099,13.9405017 210.486614,14.2782864 209.95853,14.51456 C209.410958,14.7606851 208.816675,14.8856047 208.21635,14.88077 C207.173408,14.9228156 206.173823,14.4609952 205.52982,13.63956 L205.52982,14.60831 L202.45269,14.60831 L202.45269,0.49796 L205.52978,0.49796 Z M209.40578,10.27335 C209.407228,10.0078474 209.355081,9.74478299 209.25246,9.49991 C209.154406,9.26135539 209.010022,9.04461218 208.82766,8.86222 C208.645909,8.68091902 208.432836,8.53402015 208.19875,8.42863 C207.952547,8.31954315 207.685792,8.26459134 207.41652,8.26749 C207.153925,8.26571029 206.89373,8.31755186 206.65187,8.41984 C206.418643,8.51863186 206.207735,8.66344542 206.03176,8.84562 C205.853222,9.03095036 205.709052,9.24654457 205.60598,9.48234 C205.393866,9.97288306 205.391042,10.5287268 205.59816,11.0214 C205.696252,11.2547721 205.840785,11.4657551 206.02297,11.64152 C206.208487,11.8202827 206.424441,11.9644735 206.66066,12.0673 C206.90427,12.1748144 207.167823,12.2297201 207.4341,12.22843 C207.696806,12.230362 207.957096,12.1781714 208.19875,12.07511 C208.432284,11.9767984 208.643543,11.8323064 208.81984,11.65031 C208.996555,11.4666618 209.140266,11.2539056 209.24465,11.0214 C209.351372,10.7864874 209.406318,10.5313679 209.40576,10.27335 L209.40578,10.27335 Z" id="Shape" fill="#854170" fill-rule="nonzero"></path>
                    <path d="M231.89697,9.71186 C232.50305,9.14792355 233.060368,8.53375644 233.56297,7.87592 L235.44969,9.69526 C235.245677,9.97026885 235.027272,10.2343037 234.79539,10.48626 C234.55125,10.75189 234.27097,11.03314 233.95359,11.32708 L233.69871,11.56536 L236.55515,14.60836 L232.40672,14.60836 L231.28469,13.43546 C230.002097,14.372045 228.469327,14.9048439 226.88234,14.96574 C226.320811,14.9723707 225.762494,14.8801412 225.23293,14.69327 C224.756347,14.525455 224.317369,14.2656566 223.94093,13.92863 C223.580737,13.602754 223.291525,13.2061816 223.09132,12.76363 C222.883879,12.3013608 222.779257,11.7995708 222.78468,11.29292 C222.777421,10.8629373 222.843809,10.4348841 222.98097,10.0273 C223.128616,9.63049907 223.357071,9.26869081 223.65186,8.9648 C223.885478,8.70769548 224.151347,8.48186468 224.44286,8.29292 C224.782915,8.07790923 225.137999,7.88764145 225.50536,7.72359 L225.8618,7.55367 L225.6411,7.29878 C225.053667,6.6457723 224.705838,5.8123628 224.65477,4.9355 C224.65127,4.45355972 224.756063,3.97698746 224.96141,3.54097 C225.16117,3.11541558 225.447549,2.7362378 225.80223,2.42769 C226.175126,2.10725918 226.604735,1.85949848 227.06884,1.69722 C227.576504,1.51802119 228.111547,1.42879266 228.64989,1.43355 C229.193726,1.42784209 229.734387,1.51707018 230.24755,1.69722 C230.713302,1.86002469 231.143335,2.11101666 231.51415,2.43648 C231.865632,2.74614527 232.149243,3.12518322 232.34715,3.54976 C232.547608,3.98399031 232.64933,4.45725268 232.645,4.9355 C232.648347,5.2484438 232.608251,5.56033828 232.52586,5.86226 C232.443851,6.14580154 232.308266,6.41100065 232.12644,6.64351 C231.917108,6.90927017 231.671173,7.14402705 231.39597,7.34078 C231.042805,7.59369751 230.670231,7.81835149 230.28172,8.01265 L231.89697,9.71186 Z M227.44287,9.25286 C226.638203,9.75188667 226.23587,10.2505867 226.23587,10.74896 C226.23436,10.9234706 226.275244,11.0957385 226.35501,11.25096 C226.433424,11.4028916 226.543676,11.5361293 226.67825,11.64159 C226.818485,11.7526222 226.976694,11.8388274 227.14602,11.89647 C227.328984,11.960279 227.521597,11.9919955 227.71536,11.99022 C228.340208,11.9722236 228.947229,11.7778969 229.46636,11.42967 L227.44287,9.25286 Z M228.81987,6.46576 C229.612837,5.98918667 230.009647,5.45630667 230.0103,4.86712 C230.014698,4.56228482 229.902174,4.26734221 229.69585,4.0429 C229.399541,3.70487159 228.923876,3.58748533 228.504326,3.74885154 C228.084775,3.91021775 227.810365,4.31609508 227.81694,4.76556 C227.953317,5.42786814 228.306132,6.02599524 228.81982,6.46574 L228.81987,6.46576 Z" id="Shape" fill="#854170" fill-rule="nonzero"></path>
                    <path d="M254.45654,12.38175 L249.6958,12.38175 L248.93115,14.60831 L245.37842,14.60831 L250.25732,1.78995 L253.89502,1.78995 L258.77392,14.60831 L255.22119,14.60831 L254.45654,12.38175 Z M253.57275,9.84855 L252.07666,5.58097 L250.58057,9.84855 L253.57275,9.84855 Z" id="Shape" fill="#854170" fill-rule="nonzero"></path>
                    <path d="M264.67236,18.95986 L261.59521,18.95986 L261.59521,5.88761 L264.67236,5.88761 L264.67236,6.85636 C265.316363,6.03492483 266.315948,5.57310439 267.35889,5.61515 C267.959097,5.61046637 268.55328,5.73503072 269.10107,5.98038 C269.629001,6.21735864 270.105415,6.55542661 270.50342,6.9755 C270.905683,7.40327781 271.220496,7.90552522 271.43017,8.45402 C271.653363,9.03441353 271.76566,9.65153638 271.76123,10.27335 C271.766755,10.8895505 271.654383,11.5011221 271.43017,12.07511 C271.218614,12.6156996 270.907192,13.1116371 270.51217,13.53702 C270.121537,13.955931 269.650157,14.2914434 269.12642,14.52335 C268.580281,14.7644348 267.989009,14.8862845 267.39205,14.88077 C266.367802,14.9070295 265.380091,14.4995331 264.67232,13.7587 L264.67236,18.95986 Z M268.54836,10.27333 C268.549892,10.0086638 268.500836,9.74614267 268.40383,9.49989 C268.310392,9.26103215 268.168787,9.04396455 267.98783,8.8622 C267.803586,8.67987018 267.587442,8.53290538 267.35014,8.42861 C266.853814,8.21684536 266.293158,8.21367748 265.79447,8.41982 C265.561241,8.51861407 265.35033,8.66342726 265.17435,8.8456 C264.995815,9.03093303 264.851646,9.24652662 264.74857,9.48232 C264.53647,9.97286661 264.533649,10.5287061 264.74076,11.02138 C264.838849,11.2547541 264.983382,11.4657378 265.16557,11.6415 C265.351087,11.8202627 265.567041,11.9644535 265.80326,12.06728 C266.04687,12.1747944 266.310423,12.2297001 266.5767,12.22841 C266.839406,12.2303409 267.099696,12.1781503 267.34135,12.07509 C267.574884,11.9767784 267.786143,11.8322864 267.96244,11.65029 C268.139155,11.4666418 268.282866,11.2538856 268.38725,11.02138 C268.493962,10.786472 268.548901,10.5313597 268.54834,10.27335 L268.54836,10.27333 Z" id="Shape" fill="#854170" fill-rule="nonzero"></path>
                    <path d="M278.05127,18.95986 L274.97412,18.95986 L274.97412,5.88761 L278.05127,5.88761 L278.05127,6.85636 C278.695268,6.03492377 279.69485,5.57310267 280.73779,5.61515 C281.338,5.61046618 281.932187,5.73503051 282.47998,5.98038 C283.007909,6.21735549 283.484321,6.55542395 283.88232,6.9755 C284.28459,7.40327411 284.599408,7.90552234 284.80908,8.45402 C285.032268,9.03441488 285.144565,9.65153681 285.14014,10.27335 C285.14566,10.8895501 285.033288,11.5011208 284.80908,12.07511 C284.597527,12.6157012 284.286105,13.1116393 283.89108,13.53702 C283.500452,13.955933 283.029075,14.2914459 282.50534,14.52335 C281.959197,14.7644359 281.367922,14.8862856 280.77096,14.88077 C279.746714,14.9070316 278.759006,14.4995347 278.05124,13.7587 L278.05127,18.95986 Z M281.92727,10.27333 C281.928802,10.0086638 281.879746,9.74614267 281.78274,9.49989 C281.689299,9.26103373 281.547694,9.04396671 281.36674,8.8622 C281.182495,8.67986777 280.966347,8.53290272 280.72904,8.42861 C280.232717,8.2168459 279.672064,8.21367803 279.17338,8.41982 C278.940151,8.51861407 278.72924,8.66342726 278.55326,8.8456 C278.374725,9.03093303 278.230556,9.24652662 278.12748,9.48232 C277.91538,9.97286661 277.912559,10.5287061 278.11967,11.02138 C278.217755,11.2547535 278.362285,11.4657372 278.54447,11.6415 C278.729992,11.8202607 278.945949,11.9644512 279.18217,12.06728 C279.425779,12.1747964 279.689333,12.2297022 279.95561,12.22841 C280.218313,12.2303409 280.478599,12.1781503 280.72025,12.07509 C280.953787,11.9767786 281.165049,11.8322867 281.34135,11.65029 C281.51806,11.4666394 281.661767,11.2538836 281.76615,11.02138 C281.872862,10.786472 281.927801,10.5313597 281.92724,10.27335 L281.92727,10.27333 Z" id="Shape" fill="#854170" fill-rule="nonzero"></path>
                    <path d="M295.68017,5.0712 C295.353668,4.79800227 294.986649,4.5772658 294.59228,4.41691 C294.257429,4.28073794 293.900023,4.20852815 293.53857,4.20402 C293.162881,4.18768702 292.792258,4.29544289 292.48389,4.51066 C292.223574,4.69248909 292.070886,4.99200086 292.07666,5.30948 C292.068752,5.51583397 292.142024,5.71707021 292.28076,5.87003 C292.433661,6.02995015 292.615182,6.1597952 292.81592,6.25284 C293.056557,6.36800828 293.306854,6.46179606 293.56392,6.53312 C293.84127,6.6132 294.11666,6.69812 294.38814,6.788 C295.303246,7.04309329 296.129953,7.54635051 296.77681,8.2421 C297.303975,8.91681944 297.572436,9.75783587 297.53369,10.6132 C297.542145,11.2243484 297.429301,11.8311048 297.20169,12.39835 C296.987359,12.9223289 296.655988,13.3903257 296.23294,13.76652 C295.776742,14.1643249 295.2445,14.4653291 294.66849,14.65128 C293.990461,14.8699361 293.281218,14.9761598 292.56888,14.96574 C290.953058,14.9668984 289.377537,14.4614183 288.06399,13.52042 L289.49269,10.83386 C289.931532,11.2371505 290.430309,11.5698873 290.97121,11.82019 C291.424864,12.0284474 291.917371,12.1385953 292.41652,12.14343 C292.854332,12.1781127 293.288868,12.0443378 293.63137,11.76943 C294.019202,11.4346947 294.140427,10.8846074 293.92922,10.41786 C293.849077,10.2621642 293.732482,10.128151 293.58937,10.02724 C293.397727,9.89049124 293.18932,9.7789125 292.96926,9.69524 C292.7134,9.59366667 292.40448,9.48038333 292.0425,9.35539 C291.611833,9.21965 291.189633,9.06958667 290.7759,8.9052 C290.374265,8.74826582 290.000883,8.52693951 289.67043,8.24992 C289.339324,7.96709968 289.072888,7.61640344 288.88918,7.2216 C288.673879,6.72628621 288.572111,6.18908151 288.59133,5.64934 C288.582908,5.05916546 288.68972,4.47301769 288.90578,3.92375 C289.104496,3.42480641 289.405563,2.97304151 289.78957,2.59758 C290.189295,2.21710692 290.664361,1.92468129 291.1841,1.73918 C291.775515,1.52807144 292.39995,1.42455167 293.02785,1.43352 C293.699324,1.43831185 294.367574,1.52688634 295.01711,1.69719 C295.709159,1.87321966 296.377172,2.1329483 297.00637,2.47063 L295.68017,5.0712 Z" id="Path" fill="#854170"></path>
                    <path d="M300.59228,2.538 C300.591086,2.30732987 300.637635,2.07890791 300.729,1.8671 C300.816944,1.66051033 300.943933,1.47283509 301.103,1.31437 C301.261621,1.15594587 301.448845,1.02903744 301.65475,0.94037 C302.084384,0.759383721 302.568866,0.759383721 302.9985,0.94037 C303.414545,1.11910359 303.745987,1.45089599 303.92428,1.86713 C304.106574,2.29616236 304.106574,2.78087764 303.92428,3.20991 C303.745991,3.62614433 303.414547,3.95793484 302.9985,4.13666 C302.568869,4.3176599 302.084381,4.3176599 301.65475,4.13666 C301.448847,4.04798958 301.261623,3.92108151 301.103,3.76266 C300.943933,3.60419491 300.816944,3.41651967 300.729,3.20993 C300.637533,2.99779212 300.590983,2.76901294 300.59228,2.538 Z M303.87353,5.88761 L303.87353,14.60831 L300.79639,14.60831 L300.79639,5.88761 L303.87353,5.88761 Z" id="Shape" fill="#854170" fill-rule="nonzero"></path>
                    <path d="M317.20069,5.88761 L317.20069,14.01361 C317.203976,14.4512864 317.175569,14.8886265 317.11569,15.3222 C317.068183,15.6689513 316.988745,16.0105727 316.87839,16.34271 C316.734601,16.7285921 316.518122,17.0833085 316.24069,17.38763 C315.93841,17.7213958 315.585453,18.0054756 315.19479,18.22943 C314.760838,18.4783709 314.294957,18.6669559 313.81003,18.78997 C312.643708,19.0783709 311.422693,19.0608802 310.26511,18.73919 C309.734438,18.5862326 309.232129,18.3481062 308.7778,18.03411 C308.368226,17.7487269 308.013849,17.3913755 307.7319,16.97943 C307.462238,16.5822079 307.277094,16.1338009 307.18796,15.66204 L310.65573,15.66204 C310.887047,16.2516903 311.489274,16.6089255 312.11764,16.52923 C312.668174,16.565409 313.20847,16.3679415 313.60593,15.98529 C313.971022,15.5688917 314.157329,15.0254015 314.12448,14.47259 L314.12448,13.63959 C313.920883,13.8353975 313.701741,14.0143708 313.46921,14.17475 C313.268853,14.3114558 313.055596,14.4282224 312.83249,14.52338 C312.613958,14.6147056 312.385527,14.6802511 312.15182,14.71869 C311.893503,14.7601578 311.632187,14.7800864 311.37057,14.77827 C310.782236,14.7851946 310.198374,14.6753235 309.6528,14.45502 C308.619599,14.0408509 307.808313,13.2111125 307.41748,12.16886 C307.201394,11.5958042 307.094733,10.9872964 307.10303,10.37491 C307.09715,9.73852447 307.212484,9.10683812 307.44287,8.51359 C307.657056,7.96209103 307.971244,7.45488657 308.36963,7.01749 C309.179158,6.13489946 310.325385,5.63757537 311.52295,5.64933 C312.517981,5.63338915 313.469569,6.05631769 314.12451,6.80558 L314.12451,5.88758 L317.20069,5.88761 Z M310.29932,10.20499 C310.295401,10.7372735 310.499722,11.2500001 310.86866,11.6337 C311.04729,11.816522 311.261273,11.9610608 311.49757,12.05851 C311.748454,12.1614815 312.017387,12.2132758 312.28857,12.21085 C312.553953,12.2120551 312.816906,12.1602628 313.06201,12.05851 C313.298176,11.9608171 313.512112,11.8163095 313.69092,11.6337 C313.86927,11.4480532 314.013117,11.2321158 314.11572,10.99601 C314.330562,10.499706 314.330562,9.93664402 314.11572,9.44034 C314.01079,9.20599733 313.863837,8.99284907 313.68213,8.81144 C313.499732,8.62907805 313.282986,8.48469078 313.04443,8.38663 C312.805361,8.2851813 312.548273,8.23303326 312.28857,8.23331 C312.024762,8.23151609 311.763654,8.28647163 311.52295,8.39445 C311.290469,8.49929936 311.077736,8.64332212 310.89404,8.82023 C310.711233,8.99734549 310.564051,9.20784264 310.46045,9.44034 C310.352578,9.68073612 310.297624,9.94150595 310.29931,10.20499 L310.29932,10.20499 Z" id="Shape" fill="#854170" fill-rule="nonzero"></path>
                    <path d="M320.75439,5.88761 L323.83154,5.88761 L323.83154,6.9921 C324.16559,6.54961471 324.60367,6.19640008 325.10693,5.96378 C325.589299,5.77864335 326.103071,5.68909075 326.61963,5.70011 C327.158968,5.68604675 327.695066,5.78760568 328.19189,5.99796 C328.621875,6.19121896 329.002742,6.47895618 329.30615,6.83976 C329.550131,7.12427133 329.724646,7.46159607 329.81592,7.82511 C329.91151,8.23178095 329.957094,8.64860102 329.95166,9.06632 L329.95166,14.60832 L326.87451,14.60832 L326.87451,10.205 C326.882151,9.85429296 326.850707,9.50382591 326.78076,9.16008 C326.732831,8.92052402 326.618054,8.69943401 326.44971,8.52239 C326.321529,8.39133083 326.164285,8.29230106 325.99071,8.23332 C325.815175,8.17580461 325.631483,8.14709961 325.44677,8.14832 C324.997819,8.11930206 324.559066,8.29058518 324.24852,8.6161 C323.948272,8.99333528 323.799575,9.4690231 323.83152,9.9501 L323.83152,14.6083 L320.75439,14.60832 L320.75439,5.88761 Z" id="Path" fill="#854170"></path>
                    <path d="M340.23681,5.88761 L343.33057,5.88761 L343.33057,14.60831 L340.23681,14.60831 L340.23681,13.63956 C339.598421,14.4582833 338.605318,14.9201327 337.56787,14.88077 C336.966364,14.8870113 336.370114,14.7682959 335.81687,14.53214 C335.290488,14.3043369 334.816005,13.9717333 334.42234,13.5546 C334.020359,13.1264198 333.705878,12.623848 333.49656,12.07511 C333.270513,11.4839323 333.157881,10.8554553 333.16456,10.22257 C333.161412,9.61554216 333.271017,9.01320779 333.4878,8.4462 C333.69161,7.90291765 333.997577,7.40369309 334.38917,6.9755 C334.776516,6.55451814 335.244851,6.21605276 335.76612,5.98038 C336.321908,5.7320669 336.925003,5.60745035 337.53369,5.61515 C338.556864,5.58772369 339.542115,6.00311089 340.23681,6.7548 L340.23681,5.88761 Z M336.36081,10.22261 C336.357134,10.7545586 336.561434,11.2668935 336.93014,11.65035 C337.108252,11.8337889 337.322372,11.9784167 337.55905,12.07515 C337.809731,12.1789058 338.078758,12.2310516 338.35005,12.22847 C338.61554,12.229823 338.878583,12.1776792 339.12348,12.07515 C339.36003,11.9781771 339.574103,11.8335805 339.75239,11.65035 C339.929732,11.467212 340.073518,11.2543392 340.17719,11.02144 C340.28507,10.7810463 340.340024,10.5202748 340.33833,10.25679 C340.339523,9.99020889 340.284621,9.72635866 340.17719,9.48238 C340.074819,9.24643716 339.930939,9.03077943 339.75239,8.84566 C339.573889,8.66244259 339.35989,8.51756249 339.12348,8.41988 C338.878381,8.31812042 338.615431,8.26632455 338.35005,8.26753 C338.078866,8.26510386 337.809932,8.31690167 337.55905,8.41988 C337.322512,8.51732342 337.108467,8.66223447 336.93014,8.84566 C336.755051,9.02545793 336.614094,9.23557844 336.51414,9.46578 C336.410451,9.70447537 336.358216,9.96233923 336.36084,10.22257 L336.36081,10.22261 Z" id="Shape" fill="#854170" fill-rule="nonzero"></path>
                    <polygon id="Path" fill="#854170" points="349.96045 0.49796 349.96045 14.60831 346.8833 14.60831 346.8833 0.49796"></polygon>
                    <path d="M67.57874,2.8228 C66.4498832,1.27173978 64.6629294,0.335042086 62.74512,0.28908 C61.4313658,0.312495356 60.1810292,0.858162187 59.2704764,1.80546987 C58.3599236,2.75277754 57.8641362,4.02371769 57.8927,5.33737 C57.9343891,6.56740128 58.364582,7.75262588 59.12157,8.72303 L66.66285,16.75873 C67.50899,17.54188 67.66912,17.54188 68.51526,16.75873 L76.07352,8.72303 C76.8773862,7.7792237 77.3137293,6.57706467 77.3024,5.33737 C77.3309611,4.02371675 76.8351715,2.75277664 75.9246171,1.80546927 C75.0140627,0.858161889 73.763725,0.312495383 72.44997,0.28908 C70.5293618,0.363956003 68.7427195,1.29325954 67.57874,2.8228 Z" id="Path" fill="#E42B5D"></path>
                </g>
            </g>
            <g id="Ruby" transform="translate(0.000000, 164.000000)">
                <polyline id="Path" fill="url(#linearGradient-2)" points="269.147 81.303 174.409 222.799 79.671 81.303 174.409 0.69"></polyline>
                <polygon id="Path" fill="url(#linearGradient-3)" points="86.296 81.303 269.147 81.303 174.409 222.799"></polygon>
                <polygon id="Path" fill="url(#linearGradient-4)" points="174.409 222.799 79.671 81.303 0.76 81.303"></polygon>
                <path d="M348.05831,81.30271 L269.14669,81.30271 L269.14669,0.69045 C317.44606,36.40986 348.05831,81.30271 348.05831,81.30271 Z" id="Path" fill="url(#linearGradient-5)"></path>
                <polygon id="Path" fill="url(#linearGradient-6)" points="269.147 81.303 174.409 0.69 269.147 0.69"></polygon>
                <path d="M265.74537,81.30271 C265.74537,81.30271 168.26916,122.11904 86.29637,81.30271 L265.74537,81.30271 Z" id="Path" fill="#BC1F50"></path>
                <path d="M174.40911,222.79933 C174.40911,222.79933 190.65275,172.50374 187.344,137.42517 C185.15291,114.19582 170.303,103.05332 151.1743,98.13771 C103.15949,85.79906 86.29636,81.30271 86.29636,81.30271 L174.40911,222.79933 Z" id="Path" fill="url(#linearGradient-7)"></path>
                <polygon id="Path" fill="url(#linearGradient-8)" points="348.058 81.303 269.147 81.303 269.147 81.303 174.409 222.799 271.208 81.303"></polygon>
                <path d="M0.75991,81.30271 L79.67149,81.30271 L79.67149,0.69045 C51.9243459,21.7113784 27.1904749,46.4375509 6.16091,74.17815 L0.75991,81.30271 Z" id="Path" fill="url(#linearGradient-9)"></path>
                <polygon id="Path" fill="url(#linearGradient-10)" points="79.671 81.303 174.409 0.69 79.671 0.69"></polygon>
                <path d="M174.40911,222.79933 L0.75991,81.30271 C0.75991,81.30271 35.81336,32.71092 79.67149,0.69045 L268.74537,0.69045 C268.74537,0.69045 312.00388,29.81976 348.05831,81.30271 L174.40911,222.79933 Z" id="Path" fill="url(#linearGradient-11)" style="mix-blend-mode: color;"></path>
                <polygon id="Path" fill="url(#linearGradient-12)" points="0.76 81.303 79.671 81.303 174.409 222.799"></polygon>
                <path d="M102.4512,115.32565 C102.4512,115.32565 134.05229,179.02808 42.21555,115.0825 L174.40911,222.79933 L102.4512,115.32565 Z" id="Path" fill="url(#linearGradient-13)"></path>
                <polygon id="Path" fill="url(#linearGradient-14)" points="269.147 81.303 267.745 0.69 269.147 0.69"></polygon>
                <polygon id="Path" fill="url(#linearGradient-15)" points="79.671 53.296 78.745 0.69 80.147 0.69"></polygon>
                <polygon id="Path" fill="url(#linearGradient-16)" points="174.409 0.69 140.371 29.654 173.038 0.69"></polygon>
                <polygon id="Path" fill="url(#linearGradient-17)" opacity="0.5" points="79.671 80.296 0.285 81.303 79.671 81.303"></polygon>
                <path d="M0.28469,81.30271 C0.28469,81.30271 20.80219,81.12971 36.3236,70.97623 C54.3466,59.18639 67.83236,36.8703 78.20894,2.44738 C78.20894,2.44738 40.60632,28.36386 0.28469,81.30271 Z" id="Path" fill="url(#linearGradient-18)" opacity="0.23"></path>
                <path d="M174.40911,0.69045 L222.7665,41.83777 C222.7665,41.83777 190.21569,10.16659 174.40911,0.69045 Z" id="Path" fill="url(#linearGradient-19)" opacity="0.37"></path>
                <polygon id="Path" fill="url(#linearGradient-20)" style="mix-blend-mode: color;" points="79.671 81.303 174.409 0.69 269.147 81.303 86.296 81.303 174.409 222.799"></polygon>
                <path d="M174.02087,222.79933 L0.37169,81.30271 C0.37169,81.30271 35.42514,32.71092 79.28326,0.69045 L268.35713,0.69045 C268.35713,0.69045 311.61564,29.81976 347.67006,81.30271 L174.02087,222.79933 Z" id="Path" fill="url(#linearGradient-21)" style="mix-blend-mode: color;"></path>
                <polygon id="Path" fill="url(#linearGradient-22)" points="174.409 222.799 269.147 81.303 348.058 81.303"></polygon>
            </g>
            <g id="Buildings" transform="translate(66.000000, 41.000000)">
                <rect id="Rectangle" fill="url(#linearGradient-23)" x="114.64379" y="66.22791" width="8.29547" height="56.06196"></rect>
                <path d="M131.39916,66.22791 L109.32455,66.22791 C108.894454,66.2279122 108.522439,65.9283108 108.43076,65.5081 L105.89327,53.87792 C105.808421,53.4890223 105.904259,53.0826204 106.153925,52.7726083 C106.403592,52.4625963 106.780224,52.2823304 107.17827,52.28233 L137.02594,52.28233 C137.45328,52.2823278 137.851755,52.4980109 138.085432,52.855803 C138.319108,53.2135951 138.356417,53.6651582 138.18463,54.05645 L133.42069,64.90763 C133.068501,65.7098443 132.275279,66.2279048 131.39916,66.22791 Z" id="Path" fill="#FCD7A1"></path>
                <rect id="Rectangle" fill="url(#linearGradient-24)" x="114.60127" y="66.31294" width="3.06122" height="48.08674"></rect>
                <polygon id="Path" fill="#BD5E8B" points="114.644 68.864 122.939 75.667 122.939 66.228 114.644 66.228"></polygon>
                <path d="M110.81726,52.28233 C110.81726,52.28233 110.01338,46.21965 112.56045,46.24963 C116.98273,46.3017 122.93926,46.28743 122.93926,46.28743 C122.93926,46.28743 125.16675,46.1646 125.37933,47.69049 C125.63986,49.56049 125.82576,52.28233 125.82576,52.28233 L110.81726,52.28233 Z" id="Path" fill="#F49F60"></path>
                <path d="M115.17525,46.24963 L115.17525,41.72344 C115.175251,41.3716923 115.077352,41.0268859 114.89251,40.72762 L114.63437,40.30962 C114.416596,39.9639169 114.37582,39.535374 114.524487,39.1548032 C114.673154,38.7742325 114.993619,38.486806 115.38806,38.38026 C115.902521,38.2520424 116.430772,38.1874363 116.96097,38.18789 L120.87776,38.18789 C121.747439,38.1878905 122.464242,38.8700569 122.50728,39.73867 L122.50944,39.78227 C122.521,40.04827 122.54251,40.43183 122.56998,40.88146 C122.69398,42.91094 122.93926,46.28738 122.93926,46.28738 L115.17525,46.24963 Z" id="Path" fill="#854271"></path>
                <rect id="Rectangle" fill="#ED9CAC" x="118.30812" y="6.10885" width="2.1605" height="32.07909"></rect>
                <path d="M136.64856,57.55529 L110.34875,57.55529 C110.04064,57.5553039 109.774753,57.3392296 109.71175,57.03763 L109.55944,56.30846 C109.519103,56.1153581 109.567919,55.9143599 109.692335,55.7612709 C109.81675,55.6081819 110.00352,55.5192991 110.20079,55.5193 L137.54237,55.5193 L136.64856,57.55529 Z" id="Path" fill="#854271"></path>
                <path d="M134.89246,61.55529 L111.55969,61.55529 C111.154589,61.5552928 110.805011,61.2711921 110.72218,60.87465 L110.60202,60.29938 C110.56215,60.1084953 110.610409,59.9098065 110.733399,59.7584786 C110.856388,59.6071507 111.041016,59.5192935 111.23602,59.5193 L135.78636,59.5193 L134.89246,61.55529 Z" id="Path" fill="#854271"></path>
                <path d="M131.4852,66.19527 L109.29369,66.22686 C108.881732,66.2274474 108.525128,65.9406791 108.43731,65.53819 L108.05052,63.7654 L133.92213,63.7654 L133.41852,64.92507 C133.084055,65.6952932 132.324908,66.1940564 131.4852,66.19527 Z" id="Path" fill="#F49F60" opacity="0.71"></path>
                <path d="M114.11404,52.04052 L114.1761,48.12334 C114.27525,47.39908 113.16136,46.90593 112.60297,47.30021 C111.47627,48.09577 111.68648,49.94458 111.68855,52.29667 C111.68898,52.7841 112.01318,52.72667 112.46809,52.72667 L113.37056,52.72667 C113.755143,52.7161568 114.072766,52.423026 114.11404,52.04052 Z" id="Path" fill="#F8D1A5" opacity="0.43"></path>
                <polygon id="Path" fill="#BD5E8B" opacity="0.61" points="118.308 8.046 120.469 9.808 120.469 6.109 118.308 6.109"></polygon>
                <polygon id="Path" fill="url(#linearGradient-25)" points="147.461 79.068 147.461 79.068 145.128 84.393 140.622 90.037 141.001 117.721 154.461 120.443 154.461 93.141 149.961 84.393"></polygon>
                <path d="M122.93926,3.49108 C122.93926,6.09542 121.12709,6.91752 119.12933,6.91752 C117.13157,6.91752 115.70472,6.09542 115.70472,3.49108 C115.70472,0.88674 117.32423,0.09354 119.32199,0.09354 C121.31975,0.09354 122.93926,0.88675 122.93926,3.49108 Z" id="Path" fill="#854271"></path>
                <rect id="Rectangle" fill="url(#linearGradient-26)" x="79.39719" y="83.06464" width="13.45663" height="40.62581" rx="2.74526"></rect>
                <path d="M124.71862,91.51999 L126.0464,91.51999 C126.476829,91.51999 126.82576,91.8689214 126.82576,92.29935 L126.82576,94.17986 C126.82576,94.6102886 127.174691,94.95922 127.60512,94.95922 L129.83042,94.95922 C130.260849,94.95922 130.60978,95.3081514 130.60978,95.73858 L130.60978,115.10846 C130.60978,115.538889 130.260849,115.88782 129.83042,115.88782 L124.71862,115.88782 C124.288191,115.88782 123.93926,115.538889 123.93926,115.10846 L123.93926,92.29935 C123.93926,91.8689214 124.288191,91.51999 124.71862,91.51999 Z" id="Path" fill="url(#linearGradient-27)"></path>
                <path d="M147.46097,79.06804 L147.85503,82.98161 C147.964589,84.069795 148.161219,85.1474444 148.44303,86.2042 L149.38019,89.71856 L154.46097,89.71856 L149.96097,84.3933 L147.46097,79.06804 Z" id="Path" fill="#BD5E8B"></path>
                <path d="M153.92087,93.32143 L141.00107,93.32143 C139.73002,93.32143 138.69964,93.29104 138.69964,92.01999 L138.69964,91.28059 C138.69964,90.4179212 139.398971,89.71859 140.26164,89.71859 L154.66024,89.71859 C155.522909,89.71859 156.22224,90.4179212 156.22224,91.28059 L156.22224,92.01999 C156.2223,93.29104 155.19192,93.32143 153.92087,93.32143 Z M156.2223,97.01999 L156.2223,96.28059 C156.2223,95.4179212 155.522969,94.71859 154.6603,94.71859 L140.26169,94.71859 C139.399021,94.71859 138.69969,95.4179212 138.69969,96.28059 L138.69969,97.01999 C138.69969,98.29104 139.73007,98.32143 141.00112,98.32143 L153.92092,98.32143 C155.19192,98.32143 156.2223,98.29104 156.2223,97.01999 Z M156.2223,102.01999 L156.2223,101.28059 C156.2223,100.417921 155.522969,99.71859 154.6603,99.71859 L140.26169,99.71859 C139.399021,99.71859 138.69969,100.417921 138.69969,101.28059 L138.69969,102.01999 C138.69969,103.29104 139.73007,103.32143 141.00112,103.32143 L153.92092,103.32143 C155.19192,103.32143 156.2223,103.29104 156.2223,102.01999 Z M156.2223,107.01999 L156.2223,106.28059 C156.2223,105.417921 155.522969,104.71859 154.6603,104.71859 L140.26169,104.71859 C139.399021,104.71859 138.69969,105.417921 138.69969,106.28059 L138.69969,107.01999 C138.69969,108.29104 139.73007,108.32143 141.00112,108.32143 L153.92092,108.32143 C155.19192,108.32143 156.2223,108.29104 156.2223,107.01999 Z" id="Shape" fill="url(#linearGradient-28)" fill-rule="nonzero"></path>
                <path d="M90.62169,87.10376 L90.23903,123.69045 L111.67177,123.69045 L111.67177,80.38711 C111.671765,79.1490784 110.861961,78.0567383 109.67738,77.69689 L102.99414,75.66668 L88.85107,75.66668 C87.6451673,75.66668 86.66759,76.6442573 86.66759,77.85016 L86.66759,82.95416 C86.6675883,83.8548741 87.1116651,84.6976773 87.85459,85.20694 L90.62169,87.10376 Z" id="Path" fill="url(#linearGradient-29)"></path>
                <rect id="Rectangle" fill="url(#linearGradient-30)" transform="translate(90.738410, 104.837510) rotate(180.000000) translate(-90.738410, -104.837510) " x="90.43621" y="86.26362" width="1" height="37.14778"></rect>
                <path d="M86.96554,84.19204 L102.99413,84.19204 L102.99413,75.66668 L109.4735,77.60321 C110.777964,77.9930873 111.671756,79.1930789 111.67176,80.55456 L111.67176,123.69045 L104.16419,123.69045 L104.16419,91.05786 L90.62169,87.10376 C89.272348,86.309605 88.0415494,85.3294097 86.96554,84.19204 Z" id="Path" fill="url(#linearGradient-31)"></path>
                <path d="M72.80705,92.25512 L105.39539,122.97701" id="Path" stroke="url(#linearGradient-33)" fill="url(#linearGradient-32)"></path>
                <path d="M151.79812,108.32143 L154.42291,108.32143 C154.900682,108.32143 155.358885,108.131636 155.69672,107.7938 C156.034556,107.455965 156.22435,106.997762 156.22435,106.51999 C156.22435,105.52509 155.41782,105.71856 154.42291,105.71856 L151.79812,105.71856 C150.80321,105.71856 149.99668,107.32656 149.99668,108.32143 L151.79812,108.32143 Z" id="Path" fill="url(#linearGradient-34)" opacity="0.38"></path>
                <path d="M121.45522,122.28987 L72.80705,76.37757" id="Path" stroke="url(#linearGradient-36)" fill="url(#linearGradient-35)"></path>
                <path d="M72.80705,84.25512 L113.8869,122.97701" id="Path" stroke="url(#linearGradient-37)" fill="url(#linearGradient-35)"></path>
                <rect id="Rectangle" fill="#ED9CAC" x="88.45331" y="77.58958" width="12.7551" height="4.59184"></rect>
                <polygon id="Path" fill="#C1648D" points="89.346 82.181 89.346 79.558 101.208 79.558 101.208 77.59 88.453 77.59 88.453 82.181"></polygon>
                <polygon id="Path" fill="url(#linearGradient-38)" points="24.572 80.621 28.739 77.609 33.161 77.609 33.161 119.449 30.738 119.449 30.005 80.621"></polygon>
                <polygon id="Path" fill="url(#linearGradient-39)" points="23.424 123.517 17.387 80.621 15.941 71.854 16.654 71.854 18.47 80.621 30.005 80.621 30.907 123.517"></polygon>
                <path d="M33.18119,89.28108 L33.18119,118.32864 C33.18119,119.462885 34.1006746,120.382374 35.23492,120.38238 L38.35535,120.38238 C38.9000348,120.38238 39.4224106,120.166004 39.8075599,119.780853 C40.1927093,119.395702 40.4090827,118.873325 40.40908,118.32864 L40.40908,91.33486 C40.4090827,90.7901752 40.1927093,90.2677984 39.8075599,89.8826471 C39.4224106,89.4974959 38.9000348,89.28112 38.35535,89.28112 L33.18119,89.28108 Z" id="Path" fill="url(#linearGradient-40)"></path>
                <path d="M72.80705,100.25512 L96.90936,122.97701" id="Path" stroke="url(#linearGradient-41)" fill="url(#linearGradient-35)"></path>
                <path d="M73.52984,68.08618 L73.52984,103.32143 L83.73392,123.69043 L76.59106,123.69043 L69.06555,103.70386 L69.06555,77.18067 C69.0655423,75.7429223 69.4420297,74.3302362 70.15755,73.08318 L73.09168,67.96941 C73.1445797,67.8771772 73.2528899,67.8320463 73.3556303,67.8594267 C73.4583707,67.8868071 73.5298564,67.9798537 73.52984,68.08618 Z" id="Path" fill="url(#linearGradient-42)"></path>
                <polygon id="Path" fill="url(#linearGradient-43)" points="73.53 103.321 90.239 123.69 83.734 123.69"></polygon>
                <polygon id="Path" fill="url(#linearGradient-44)" points="69.066 83.405 64.559 87.571 64.559 90.356 69.066 86.881"></polygon>
                <path d="M73.52984,103.32143 L72.21184,101.51703 L72.21184,73.99473 C72.2118402,73.1846767 72.3060599,72.3773724 72.4926,71.58909 L73.52987,68.08618 L73.52984,103.32143 Z" id="Path" fill="#F3AD6E"></path>
                <path d="M45.76623,58.0148 L45.76623,85.08452 C45.7590049,85.6680359 46.093062,86.2020661 46.62093,86.45086 C47.3599656,86.8134982 47.9587221,87.4098189 48.32437,88.14737 C48.433361,88.3602901 48.4892621,88.5964034 48.48731,88.83559 L48.48731,122.69045 L57.33084,122.69045 L57.33084,54.5193 L49.26169,54.5193 C47.3311943,54.5193221 45.76623,56.0843043 45.76623,58.0148 Z" id="Path" fill="url(#linearGradient-45)"></path>
                <path d="M64.55737,86.26363 L57.32948,86.26363 L57.32948,54.51931 L63.73448,54.51931 C64.1889275,54.51931 64.55733,54.8877125 64.55733,55.34216 L64.55737,86.26363 Z" id="Path" fill="#F1BBC6"></path>
                <rect id="Rectangle" fill="url(#linearGradient-46)" x="55.11997" y="54.51932" width="2.21088" height="68.17114"></rect>
                <path d="M48.52983,54.63629 C47.00353,54.63629 45.63868,56.7041 45.76623,58.39989 L45.76623,85.0997 C45.7662297,85.539427 45.9386497,85.9616233 46.24647,86.27564 L46.3688,86.34106 C46.9926231,86.6746259 47.5276923,87.1524517 47.92942,87.73472 L48.52983,88.60498 L48.52983,54.63629 Z" id="Path" fill="#F0BCC7"></path>
                <rect id="Rectangle" fill="#854271" x="56.33086" y="57.10886" width="6.20748" height="1.95578" rx="0.97789"></rect>
                <path d="M33.90802,116.53786 C33.7969,118.82261 31.51169,120.568 28.80386,120.4363 C26.09603,120.3046 23.99098,118.34568 24.10211,116.06093 C24.21324,113.77618 26.23557,109.30136 28.9434,109.43306 C31.65123,109.56476 34.01914,114.25308 33.90802,116.53786 Z" id="Path" fill="url(#linearGradient-47)"></path>
                <rect id="Rectangle" fill="url(#linearGradient-48)" x="57.33086" y="86.26363" width="6.20748" height="36.42683"></rect>
                <rect id="Rectangle" fill="#FCD7A1" x="55.62465" y="51.68946" width="1" height="2.81922"></rect>
                <path d="M51.61402,52.32569 L51.61402,44.68025 C51.6140253,44.5452182 51.705152,44.4271986 51.8357899,44.3930324 C51.9664277,44.3588661 52.1036665,44.4171605 52.16978,44.5349 L55.64303,50.72084 C55.7119716,50.8436268 55.8418226,50.9196378 55.98264,50.9196378 C56.1234574,50.9196378 56.2533084,50.8436268 56.32225,50.72084 L59.81778,44.49523 C59.8812554,44.3822316 60.0129812,44.3262911 60.1383702,44.3590839 C60.2637592,44.3918766 60.3512325,44.5051438 60.35126,44.63475 L60.35126,52.32569" id="Path" stroke="#F49F5D" stroke-width="2"></path>
                <path d="M151.79812,93.32143 L154.42291,93.32143 C154.900682,93.32143 155.358885,93.131636 155.69672,92.7938004 C156.034556,92.4559649 156.22435,91.9977616 156.22435,91.51999 C156.22435,90.52509 155.41782,90.71856 154.42291,90.71856 L151.79812,90.71856 C150.80321,90.71856 149.99668,92.32656 149.99668,93.32143 L151.79812,93.32143 Z" id="Path" fill="url(#linearGradient-34)"></path>
                <path d="M151.79812,98.32143 L154.42291,98.32143 C154.900682,98.32143 155.358885,98.131636 155.69672,97.7938004 C156.034556,97.4559649 156.22435,96.9977616 156.22435,96.51999 C156.22435,95.52509 155.41782,95.71856 154.42291,95.71856 L151.79812,95.71856 C150.80321,95.71856 149.99668,97.32656 149.99668,98.32143 L151.79812,98.32143 Z" id="Path" fill="url(#linearGradient-34)" opacity="0.77"></path>
                <path d="M151.79812,103.32143 L154.42291,103.32143 C154.900682,103.32143 155.358885,103.131636 155.69672,102.7938 C156.034556,102.455965 156.22435,101.997762 156.22435,101.51999 C156.22435,100.52509 155.41782,100.71856 154.42291,100.71856 L151.79812,100.71856 C150.80321,100.71856 149.99668,102.32656 149.99668,103.32143 L151.79812,103.32143 Z" id="Path" fill="url(#linearGradient-34)" opacity="0.38"></path>
                <rect id="Rectangle" fill="#854271" x="56.33086" y="63.10886" width="6.20748" height="1.95578" rx="0.97789"></rect>
                <rect id="Rectangle" fill="#854271" transform="translate(59.434600, 64.086750) rotate(-180.000000) translate(-59.434600, -64.086750) " x="56.33086" y="63.10886" width="6.20748" height="1.95578" rx="0.97789"></rect>
                <rect id="Rectangle" fill="#854271" transform="translate(59.434600, 70.086750) rotate(-180.000000) translate(-59.434600, -70.086750) " x="56.33086" y="69.10886" width="6.20748" height="1.95578" rx="0.97789"></rect>
                <rect id="Rectangle" fill="#854271" transform="translate(59.434600, 76.086750) rotate(-180.000000) translate(-59.434600, -76.086750) " x="56.33086" y="75.10886" width="6.20748" height="1.95578" rx="0.97789"></rect>
                <polygon id="Path" fill="#E07CB2" points="42.964 115.69 41.34 115.69 41.34 111.944 41.34 110.481 42.964 110.481 42.964 112.933"></polygon>
                <rect id="Rectangle" fill="#E07CB2" x="52.42419" y="112.48132" width="1.45619" height="5.20914"></rect>
                <path d="M14.14669,123.69045 C14.14669,123.69045 15.83421,118.62336 25.86822,115.88778 C35.90223,113.1522 57.24578,116.35707 73.5298,123.69045 L14.14669,123.69045 Z" id="Path" fill="url(#linearGradient-49)"></path>
                <rect id="Rectangle" fill="#854271" transform="translate(59.434600, 82.086750) rotate(-180.000000) translate(-59.434600, -82.086750) " x="56.33086" y="81.10886" width="6.20748" height="1.95578" rx="0.97789"></rect>
                <polygon id="Path" fill="#BD5E8B" points="41.34 110.481 41.34 112.295 42.964 112.933 42.964 110.481"></polygon>
                <path d="M48.47989,105.45786 C48.3095286,108.927817 45.3592896,111.603155 41.8892551,111.434384 C38.4192207,111.265614 35.7425305,108.316601 35.90971,104.84649 C36.07853,101.37533 38.72364,94.55609 42.1948,94.72491 C45.66596,94.89373 48.64869,101.98672 48.47989,105.45786 Z" id="Path" fill="url(#linearGradient-50)"></path>
                <polygon id="Path" fill="#BD5E8B" points="52.393 113.086 52.393 115.38 53.88 116.187 53.88 113.086"></polygon>
                <path d="M53.15228,114.87453 C51.0185279,114.87453 49.28878,113.144782 49.28878,111.01103 C49.28878,108.87728 51.00287,103.70388 53.13662,103.70388 C55.27037,103.70388 57.01578,108.87728 57.01578,111.01103 C57.01578,112.035694 56.6087338,113.01839 55.884187,113.742937 C55.1596403,114.467484 54.1769439,114.87453 53.15228,114.87453 Z" id="Path" fill="url(#linearGradient-51)"></path>
                <rect id="Rectangle" fill="url(#linearGradient-52)" x="169.06943" y="76.37757" width="14.99355" height="32.39976" rx="1.36039"></rect>
                <path d="M156.2223,112.01999 L156.2223,111.28059 C156.2223,110.417921 155.522969,109.71859 154.6603,109.71859 L140.26169,109.71859 C139.399021,109.71859 138.69969,110.417921 138.69969,111.28059 L138.69969,112.01999 C138.69969,113.29104 139.73007,113.32143 141.00112,113.32143 L153.92092,113.32143 C155.19192,113.32143 156.2223,113.29104 156.2223,112.01999 Z" id="Path" fill="url(#linearGradient-53)"></path>
                <polygon id="Path" fill="#E07CB2" points="126.168 120.39 124.544 120.39 124.544 116.644 124.544 115.181 126.168 115.181 126.168 117.633"></polygon>
                <rect id="Rectangle" fill="url(#linearGradient-54)" x="160.88038" y="97.4354" width="6.03929" height="15.65049" rx="2.75375"></rect>
                <polygon id="Path" fill="#BD5E8B" points="124.534 114.022 124.534 116.316 126.163 117.123 126.163 114.022"></polygon>
                <path d="M125.40133,115.86286 C122.408315,115.862854 119.982,113.436535 119.982,110.44352 C119.982,107.45052 122.40832,102.7156 125.40133,102.7156 C128.39434,102.7156 130.82066,107.45051 130.82066,110.44352 C130.820663,111.880817 130.2497,113.259248 129.233379,114.275571 C128.217057,115.291895 126.838627,115.86286 125.40133,115.86286 Z" id="Path" fill="url(#linearGradient-55)"></path>
                <path d="M162.55204,112.04932 L184.61884,98.32142 C184.61884,98.32142 189.42279,95.65299 189.25273,103.11629 C189.08267,110.57959 188.40238,121.10336 188.40238,121.10336 L168.50438,121.10336 L162.55204,112.04932 Z" id="Path" fill="url(#linearGradient-56)"></path>
                <polygon id="Path" fill="#BD5E8B" points="159.393 115.086 159.393 117.38 160.88 118.187 160.88 115.086"></polygon>
                <path d="M133.67891,115.24609 C133.67891,113.11234 135.40866,107.53326 137.54241,107.53326 C139.67616,107.53326 141.40591,113.11234 141.40591,115.24609 C141.40591,117.379842 139.676162,119.10959 137.54241,119.10959 C135.408658,119.10959 133.67891,117.379842 133.67891,115.24609 Z" id="Path" fill="url(#linearGradient-57)"></path>
                <path d="M162.53603,116.56727 L181.08259,105.02757 C181.08259,105.02757 185.26459,103.09148 185.26459,108.91165 L185.26459,123.69045 L164.97429,123.69045 L162.53603,116.56727 Z" id="Path" fill="url(#linearGradient-58)"></path>
                <path d="M151.79812,113.32143 L154.42291,113.32143 C154.900682,113.32143 155.358885,113.131636 155.69672,112.7938 C156.034556,112.455965 156.22435,111.997762 156.22435,111.51999 C156.22435,110.52509 155.41782,110.71856 154.42291,110.71856 L151.79812,110.71856 C150.80321,110.71856 149.99668,112.32656 149.99668,113.32143 L151.79812,113.32143 Z" id="Path" fill="url(#linearGradient-34)" opacity="0.38"></path>
                <rect id="Rectangle" fill="#FCD7A1" x="51.25092" y="52.32569" width="1" height="2.19361"></rect>
                <rect id="Rectangle" fill="#FCD7A1" x="60.02473" y="52.32569" width="1" height="2.19361"></rect>
                <rect id="Rectangle" fill="#BD5E8B" x="149.99669" y="93.32143" width="4.46429" height="1.39713"></rect>
                <rect id="Rectangle" fill="#BD5E8B" x="149.98308" y="98.34475" width="4.46429" height="1.39713"></rect>
                <rect id="Rectangle" fill="#BD5E8B" x="149.98308" y="103.31924" width="4.46429" height="1.39713"></rect>
                <rect id="Rectangle" fill="#BD5E8B" x="149.98308" y="108.31499" width="4.46429" height="1.39713"></rect>
                <polygon id="Path" fill="url(#linearGradient-59)" points="154.447 114.734 149.89 114.205 149.983 113.337 154.447 113.337"></polygon>
                <polygon id="Path" fill="#EABDC7" points="184.627 105.819 184.274 105.41 187.885 98.337 188.079 98.501 188.259 98.704"></polygon>
                <polygon id="Path" fill="#EABDC7" points="179.212 107.165 178.712 107.141 178.963 101.841 179.48 101.52"></polygon>
                <polygon id="Path" fill="#EABDC7" points="176.199 108.066 175.941 103.72 176.425 103.419 176.682 107.765"></polygon>
                <polygon id="Path" fill="#EABDC7" points="173.073 110.021 172.385 105.932 172.843 105.647 173.529 109.727"></polygon>
                <polygon id="Path" fill="#EABDC7" points="181.675 105.526 181.187 105.416 182.498 99.641 183.095 99.269"></polygon>
                <path d="M166.62661,114.02211 L181.08261,105.02757 C181.08261,105.02757 183.45598,103.83 184.70041,106.0111 L185.26457,108.91165 C183.52137,109.74088 165.87681,116.63641 165.87681,116.63641 L166.62661,114.02211 Z" id="Path" fill="url(#linearGradient-60)"></path>
                <path d="M166.91096,116.33078 C166.7441,119.76148 164.41371,122.43584 161.70588,122.30414 C158.99805,122.17244 156.93819,119.28455 157.10505,115.85385 C157.27191,112.42315 159.40554,105.66003 162.11337,105.79174 C164.8212,105.92345 167.07782,112.90009 166.91096,116.33078 Z" id="Path" fill="url(#linearGradient-61)"></path>
                <path d="M175.90599,123.69045 C175.90599,123.69045 170.54899,121.05357 164.71067,118.53783 C158.879178,116.141514 152.667182,114.803996 146.36623,114.58805 C128.39416,114.58805 111.67176,123.69045 111.67176,123.69045 L175.90599,123.69045 Z" id="Path" fill="url(#linearGradient-62)"></path>
                <polygon id="Path" fill="#EABDC7" points="169.925 111.759 168.773 108.179 169.211 107.907 170.402 111.606"></polygon>
                <polygon id="Path" fill="#EABDC7" points="185.262 108.687 185.23 108.049 189.215 104.538 189.194 105.222"></polygon>
                <polygon id="Path" fill="#EABDC7" points="185.28 111.895 185.28 111.324 189.054 108.935 189.028 109.544"></polygon>
                <polygon id="Path" fill="#F4D7DF" points="185.271 115.128 185.278 114.569 188.868 112.913 188.834 113.479"></polygon>
                <rect id="Rectangle" fill="url(#linearGradient-63)" x="171.47492" y="78.37757" width="1" height="27.76688" rx="0.2855"></rect>
                <rect id="Rectangle" fill="url(#linearGradient-64)" x="174.47492" y="78.37757" width="1" height="27.76688" rx="0.27435"></rect>
                <rect id="Rectangle" fill="url(#linearGradient-65)" x="177.47492" y="78.37757" width="1" height="27.76688" rx="0.28073"></rect>
                <path d="M172.94414,73.4558 L181.98905,73.4558 C182.380714,73.4558 182.69822,73.7733062 182.69822,74.16497 L182.69822,76.37757 L172.239,76.37757 L172.239,74.1609 C172.239,73.9738889 172.313293,73.7945379 172.445533,73.6623049 C172.577774,73.5300718 172.757129,73.4557894 172.94414,73.4558 Z" id="Path" fill="#FCD7A1"></path>
                <path d="M176.46587,72.47169 L176.46587,71.12425 C176.468573,70.6833559 176.828166,70.3281243 177.26906,70.3308 L179.45395,70.3308 C179.894844,70.3281243 180.254437,70.6833559 180.25714,71.12425 L180.25714,73.4558 L176.46587,73.4558" id="Path" fill="#F49F60"></path>
                <path d="M182.69822,75.62417 L180.93474,75.62417 C180.518097,75.6241617 180.135831,75.3930803 179.94219,75.02417 L179.8244,74.79978 C179.630758,74.4308665 179.248487,74.1997846 178.83184,74.19978 L177.53469,74.19978 C176.899026,74.1997778 176.337309,74.6133758 176.14859,75.22038 L176.1404,75.2467 C176.07062,75.4711604 175.862907,75.624103 175.62785,75.6241 L173.63523,75.6241 C172.717672,75.6241009 171.813325,75.8427678 170.99713,76.26198 L170.77222,76.3775 L182.69822,76.3775 L182.69822,75.62417 Z" id="Path" fill="#F49F60" opacity="0.71"></path>
                <rect id="Rectangle" fill="#FCD7A1" x="173.7702" y="71.81889" width="3.40136" height="2.38095" rx="0.70568"></rect>
                <path d="M180.25714,71.31932 L180.25714,62.24917 C180.25714,62.24917 180.05274,62.02595 179.84594,62.16945 C179.63914,62.31295 179.09958,70.3308 179.09958,70.3308 L180.25714,71.31932 Z" id="Path" fill="url(#linearGradient-66)"></path>
                <rect id="Rectangle" fill="url(#linearGradient-65)" x="180.47492" y="78.37757" width="1" height="27.76688" rx="0.28073"></rect>
                <path d="M200.97776,122.28986 L194.00325,122.28986 C193.192336,122.28986 192.53496,121.632484 192.53496,120.82157 L192.53496,89.05526 C192.53496,88.5546019 192.79007,88.088451 193.21176,87.81857 L198.23569,84.60326 C198.585399,84.3794416 199.013522,84.3141493 199.41405,84.42355 L201.36464,84.95634 C202.003164,85.1307481 202.446048,85.7108252 202.44605,86.37274 L202.44605,120.82158 C202.446039,121.632488 201.788668,122.289854 200.97776,122.28986 Z" id="Path" fill="url(#linearGradient-67)"></path>
                <path d="M202.41869,121.10336 L198.78722,121.10336 L198.78722,85.12645 C198.78722,84.66526 198.96851,84.30445 199.41406,84.42355 L201.1837,84.8531 C201.928078,85.0520533 202.445651,85.7266631 202.44506,86.49717 L202.41869,121.10336 Z" id="Path" fill="url(#linearGradient-68)"></path>
                <path d="M103.07916,39.78232 L79.09956,39.78232 C79.09956,39.78232 75.78324,39.78319 79.4904,36.32486 C79.9232927,36.0073883 80.3913427,35.7408822 80.88528,35.53062 C81.78122,35.04532 84.34528,31.64286 85.13698,31.30018 C89.07588,29.59525 90.01277,32.51325 91.4789,32.70935 C92.1830621,32.8194443 92.8496896,32.3575044 92.9939,31.65953 C93.33408,29.80953 96.0299,25.70069 100.01797,27.36736 C104.29097,29.15307 103.20674,32.9796 103.1629,34.14351 C103.153154,34.5656033 103.336408,34.9691054 103.66066,35.23951 C105.12013,36.49011 108.45206,39.78232 103.07916,39.78232 Z" id="cloud-3" fill="#E6ECDB"></path>
                <path d="M10.81724,56.02386 C10.81724,56.02386 12.85806,48.3708 22.89207,53.81298 C22.89207,53.81298 24.76282,47.11379 28.58935,48.33753 C28.58935,48.33753 31.48051,48.54087 29.60976,56.02386 C29.60976,56.02386 36.75262,57.8538 33.69139,59.06468 L0.52812,59.06468 C0.52812,59.06468 -0.74739,56.53403 10.81724,56.02386 Z" id="cloud-2" fill="#E6ECDB"></path>
                <path d="M201.20843,57.55529 C201.20843,57.55529 206.05537,48.03062 207.67101,58.48981 C207.67101,58.48981 218.3853,61.55529 211.49754,61.55529 L188.70843,61.55529 C188.70843,61.55529 188.70843,59.95355 192.87509,59.51929 C192.87509,59.5193 196.87169,54.40986 201.20843,57.55529 Z" id="cloud-1" fill="#E6ECDB"></path>
                <polygon id="Path" fill="#F49F5D" points="17.195 71.854 15.941 71.854 17.387 80.621 20.128 80.621"></polygon>
                <polygon id="Path" fill="url(#linearGradient-69)" points="30.907 116.481 28.867 116.481 28.867 80.621 30.035 80.621"></polygon>
                <path d="M26.39069,88.60498 L18.51069,88.60498 L18.26798,86.88055 L26.39068,86.88055 C26.7831004,86.88055 27.10122,87.1986696 27.10122,87.59109 L27.10122,87.89444 C27.10122,88.2868565 26.7831065,88.6049745 26.39069,88.60498 Z" id="Path" fill="#F1BBC6"></path>
                <path d="M26.39189,93.60498 L19.21445,93.60498 L18.97174,91.88055 L26.39189,91.88055 C26.7836642,91.88055 27.10126,92.1981458 27.10126,92.58992 L27.10126,92.89561 C27.10126,93.0837466 27.026523,93.2641777 26.8934903,93.3972103 C26.7604577,93.530243 26.5800266,93.60498 26.39189,93.60498 Z" id="Path" fill="#F1BBC6"></path>
                <path d="M26.38654,98.60498 L19.91817,98.60498 L19.67546,96.88055 L26.38654,96.88055 C26.7812651,96.88055 27.1012545,97.2005349 27.10126,97.59526 L27.10126,97.89026 C27.10126,98.284989 26.781269,98.60498 26.38654,98.60498 Z" id="Path" fill="#F1BBC6"></path>
                <path d="M26.39547,103.60498 L20.62189,103.60498 L20.37918,101.88055 L26.39547,101.88055 C26.7852671,101.88055 27.10126,102.196543 27.10126,102.58634 L27.10126,102.89919 C27.10126,103.288987 26.7852671,103.60498 26.39547,103.60498 Z" id="Path" fill="#F1BBC6"></path>
            </g>
        </g>
    </g>
</svg>
