<svg xmlns="http://www.w3.org/2000/svg" xmlns:xlink="http://www.w3.org/1999/xlink" viewBox="0 0 427.97607 576.99406"><defs><style>.cls-1{isolation:isolate;}.cls-2{fill:url(#linear-gradient);}.cls-3{fill:#854271;}.cls-18,.cls-27,.cls-4{mix-blend-mode:color;}.cls-5,.cls-7{fill:#e42b5d;}.cls-6{fill:#f7d2b6;}.cls-7{fill-rule:evenodd;}.cls-8{fill:url(#linear-gradient-2);}.cls-9{fill:url(#linear-gradient-3);}.cls-10{fill:url(#linear-gradient-4);}.cls-11{fill:url(#linear-gradient-5);}.cls-12{fill:url(#linear-gradient-6);}.cls-13{fill:#bc1f50;}.cls-14{fill:url(#linear-gradient-7);}.cls-15{fill:url(#linear-gradient-8);}.cls-16{fill:url(#linear-gradient-9);}.cls-17{fill:url(#linear-gradient-10);}.cls-18{fill:url(#linear-gradient-11);}.cls-19{fill:url(#linear-gradient-12);}.cls-20{fill:url(#linear-gradient-13);}.cls-21{fill:url(#linear-gradient-14);}.cls-22{fill:url(#linear-gradient-15);}.cls-23{fill:url(#linear-gradient-16);}.cls-24{opacity:0.5;fill:url(#linear-gradient-17);}.cls-25{opacity:0.23;fill:url(#linear-gradient-18);}.cls-26{opacity:0.37;fill:url(#linear-gradient-19);}.cls-27{fill:url(#linear-gradient-20);}.cls-28{fill:url(#linear-gradient-21);}.cls-29{fill:url(#linear-gradient-22);}.cls-30{fill:#fcd7a1;}.cls-31{fill:url(#linear-gradient-23);}.cls-32,.cls-37{fill:#bd5e8b;}.cls-33,.cls-35{fill:#f49f60;}.cls-34{fill:#ed9cac;}.cls-35{opacity:0.71;}.cls-36{fill:#f8d1a5;opacity:0.43;}.cls-37{opacity:0.61;}.cls-38{fill:url(#linear-gradient-24);}.cls-39{fill:url(#linear-gradient-25);}.cls-40{fill:url(#linear-gradient-26);}.cls-41{fill:url(#linear-gradient-27);}.cls-42{fill:url(#linear-gradient-28);}.cls-43{fill:url(#linear-gradient-29);}.cls-44{fill:url(#linear-gradient-30);}.cls-45,.cls-47,.cls-48,.cls-53,.cls-64{stroke-miterlimit:10;}.cls-45{fill:url(#linear-gradient-31);stroke:url(#linear-gradient-32);}.cls-46,.cls-67,.cls-79{opacity:0.38;}.cls-46{fill:url(#linear-gradient-33);}.cls-47{fill:url(#linear-gradient-34);stroke:url(#linear-gradient-35);}.cls-48{fill:url(#linear-gradient-36);stroke:url(#linear-gradient-37);}.cls-49{fill:#c1648d;}.cls-50{fill:url(#linear-gradient-38);}.cls-51{fill:url(#linear-gradient-39);}.cls-52{fill:url(#linear-gradient-40);}.cls-53{fill:url(#linear-gradient-41);stroke:url(#linear-gradient-42);}.cls-54{fill:url(#linear-gradient-43);}.cls-55{fill:url(#linear-gradient-44);}.cls-56{fill:url(#linear-gradient-45);}.cls-57{fill:#f3ad6e;}.cls-58{fill:url(#linear-gradient-46);}.cls-59{fill:#f1bbc6;}.cls-60{fill:url(#linear-gradient-47);}.cls-61{fill:#f0bcc7;}.cls-62{fill:url(#linear-gradient-48);}.cls-63{fill:url(#linear-gradient-49);}.cls-64{fill:none;stroke:#f49f5d;stroke-width:2px;}.cls-65{fill:url(#linear-gradient-50);}.cls-66{opacity:0.77;fill:url(#linear-gradient-51);}.cls-67{fill:url(#linear-gradient-52);}.cls-68{fill:#e07cb2;}.cls-69{fill:url(#linear-gradient-53);}.cls-70{fill:url(#linear-gradient-54);}.cls-71{fill:url(#linear-gradient-55);}.cls-72{fill:url(#linear-gradient-56);}.cls-73{fill:url(#linear-gradient-57);}.cls-74{fill:url(#linear-gradient-58);}.cls-75{fill:url(#linear-gradient-59);}.cls-76{fill:url(#linear-gradient-60);}.cls-77{fill:url(#linear-gradient-61);}.cls-78{fill:url(#linear-gradient-62);}.cls-79{fill:url(#linear-gradient-63);}.cls-80{fill:url(#linear-gradient-64);}.cls-81{fill:#eabdc7;}.cls-82{fill:url(#linear-gradient-65);}.cls-83{fill:url(#linear-gradient-66);}.cls-84{fill:url(#linear-gradient-67);}.cls-85{fill:#f4d7df;}.cls-86{fill:url(#linear-gradient-68);}.cls-87{fill:url(#linear-gradient-69);}.cls-88{fill:url(#linear-gradient-70);}.cls-89{fill:url(#linear-gradient-71);}.cls-90{fill:url(#linear-gradient-72);}.cls-91{fill:url(#linear-gradient-73);}.cls-92{fill:url(#linear-gradient-74);}.cls-93{fill:#e6ecdb;}.cls-94{fill:#f49f5d;}.cls-95{fill:url(#linear-gradient-75);}</style><linearGradient id="linear-gradient" x1="213.49923" x2="213.49923" y2="345.91842" gradientUnits="userSpaceOnUse"><stop offset="0.00231" stop-color="#fef8eb"/><stop offset="0.20793" stop-color="#fcf6ed"/><stop offset="1" stop-color="#f7f1f2"/></linearGradient><linearGradient id="linear-gradient-2" x1="214.48398" y1="381.46958" x2="211.21415" y2="166.88127" gradientUnits="userSpaceOnUse"><stop offset="0.40168" stop-color="#eb496a"/><stop offset="0.99516" stop-color="#ed747b"/></linearGradient><linearGradient id="linear-gradient-3" x1="215.71756" y1="381.83981" x2="215.7214" y2="250.50916" gradientUnits="userSpaceOnUse"><stop offset="0.00086" stop-color="#f2bda3"/><stop offset="0.92681" stop-color="#cd234d"/></linearGradient><linearGradient id="linear-gradient-4" x1="126.00543" y1="381.42698" x2="125.14566" y2="247.89157" gradientUnits="userSpaceOnUse"><stop offset="0" stop-color="#ed8385"/><stop offset="0.1391" stop-color="#e87f81"/><stop offset="0.3034" stop-color="#da7374"/><stop offset="0.48054" stop-color="#c25f60"/><stop offset="0.66674" stop-color="#a14243"/><stop offset="0.85799" stop-color="#761f1f"/><stop offset="1" stop-color="#520000"/></linearGradient><linearGradient id="linear-gradient-5" x2="1" gradientTransform="matrix(1.93228, -85.65533, -85.65533, -1.93228, 431.33093, 355.03812)" gradientUnits="userSpaceOnUse"><stop offset="0" stop-color="#f9cdd9"/><stop offset="0.78368" stop-color="#ee8277"/><stop offset="1" stop-color="#ee8277"/></linearGradient><linearGradient id="linear-gradient-6" x1="345.2976" y1="354.08109" x2="345.23845" y2="274.21381" gradientUnits="userSpaceOnUse"><stop offset="0.01022" stop-color="#f4b5b3"/><stop offset="1" stop-color="#ef877f"/></linearGradient><linearGradient id="linear-gradient-7" x1="262.1243" y1="501.26798" x2="260.02146" y2="363.26524" gradientUnits="userSpaceOnUse"><stop offset="0.00028" stop-color="#efa996" stop-opacity="0"/><stop offset="0.19331" stop-color="#e1837b" stop-opacity="0.29084"/><stop offset="0.38649" stop-color="#d56264" stop-opacity="0.5426"/><stop offset="0.56985" stop-color="#cc4951" stop-opacity="0.74102"/><stop offset="0.73848" stop-color="#c53644" stop-opacity="0.8833"/><stop offset="0.88713" stop-color="#c12b3c" stop-opacity="0.96963"/><stop offset="1" stop-color="#c02739"/></linearGradient><linearGradient id="linear-gradient-8" x1="300.24045" y1="382.12019" x2="298.14197" y2="244.40387" gradientUnits="userSpaceOnUse"><stop offset="0" stop-color="#eb496a"/><stop offset="0.99696" stop-color="#faceda"/></linearGradient><linearGradient id="linear-gradient-9" x1="315.17381" y1="374.74079" x2="298.72817" y2="312.39154" gradientTransform="matrix(-1, 0, 0, 1, 475.66241, 0)" gradientUnits="userSpaceOnUse"><stop offset="0.23618" stop-color="#ec5c7e"/><stop offset="1" stop-color="#eb90bd"/></linearGradient><linearGradient id="linear-gradient-10" x1="221.51503" y1="343.75559" x2="143.66367" y2="217.30795" gradientTransform="matrix(-1, 0, 0, 1, 348.5469, -117.33114)" gradientUnits="userSpaceOnUse"><stop offset="0" stop-color="#e67bb0"/><stop offset="0.54866" stop-color="#f5ab95"/></linearGradient><linearGradient id="linear-gradient-11" x1="397.90244" y1="479.66985" x2="226.20595" y2="276.94932" gradientUnits="userSpaceOnUse"><stop offset="0.03205" stop-color="#f3b6c3" stop-opacity="0"/><stop offset="1" stop-color="#d84a98"/></linearGradient><linearGradient id="linear-gradient-12" x1="126.00543" y1="381.42698" x2="125.14566" y2="247.89157" gradientUnits="userSpaceOnUse"><stop offset="0" stop-color="#ee8786"/><stop offset="0.16167" stop-color="#e77e82"/><stop offset="0.42533" stop-color="#d36677"/><stop offset="0.75614" stop-color="#b33e66"/><stop offset="0.99875" stop-color="#981d57"/></linearGradient><linearGradient id="linear-gradient-13" x1="232.37712" y1="496.02044" x2="231.00654" y2="391.25219" gradientUnits="userSpaceOnUse"><stop offset="0.01022" stop-color="#f3b6c3" stop-opacity="0"/><stop offset="1" stop-color="#e64d7c" stop-opacity="0.3"/></linearGradient><linearGradient id="linear-gradient-14" x1="307.64497" y1="243.3717" x2="306.4368" y2="164.08342" gradientUnits="userSpaceOnUse"><stop offset="0" stop-color="#f3b6c1"/><stop offset="0.99696" stop-color="#fff"/></linearGradient><linearGradient id="linear-gradient-15" x1="118.22838" y1="216.03198" x2="117.43996" y2="164.29061" xlink:href="#linear-gradient-14"/><linearGradient id="linear-gradient-16" x1="195.12513" y1="190.90817" x2="195.67884" y2="166.36318" gradientUnits="userSpaceOnUse"><stop offset="0" stop-color="#f9cdd9"/><stop offset="0.98224" stop-color="#fff"/></linearGradient><linearGradient id="linear-gradient-17" x1="118.97813" y1="247.90407" x2="36.16532" y2="241.63273" gradientUnits="userSpaceOnUse"><stop offset="0" stop-color="#f492b9"/><stop offset="1" stop-color="#fff"/></linearGradient><linearGradient id="linear-gradient-18" x1="163.27648" y1="360.179" x2="162.11274" y2="283.8068" gradientUnits="userSpaceOnUse"><stop offset="0" stop-color="#c53884"/><stop offset="0.99696" stop-color="#ed8ab9"/></linearGradient><linearGradient id="linear-gradient-19" x1="318.55658" y1="308.01056" x2="329.7074" y2="290.74549" gradientUnits="userSpaceOnUse"><stop offset="0.01145" stop-color="#f6ced0"/><stop offset="1" stop-color="#fff"/></linearGradient><linearGradient id="linear-gradient-20" x1="246.45569" y1="296.49419" x2="150.56317" y2="238.0536" gradientUnits="userSpaceOnUse"><stop offset="0" stop-color="#eb496a" stop-opacity="0"/><stop offset="1" stop-color="#da4d8d"/></linearGradient><linearGradient id="linear-gradient-21" x1="299.55263" y1="396.40556" x2="298.79356" y2="205.15516" gradientUnits="userSpaceOnUse"><stop offset="0.08032" stop-color="#f2b1ad"/><stop offset="0.79391" stop-color="#ee88a6"/></linearGradient><linearGradient id="linear-gradient-22" x1="222.66125" y1="154.77568" x2="222.96999" y2="108.5224" gradientUnits="userSpaceOnUse"><stop offset="0.02125" stop-color="#fff" stop-opacity="0"/><stop offset="0.1941" stop-color="#fad9e3" stop-opacity="0.31543"/><stop offset="0.36929" stop-color="#f5b7c9" stop-opacity="0.6063"/><stop offset="0.51606" stop-color="#f19db6" stop-opacity="0.8194"/><stop offset="0.6265" stop-color="#ef8eaa" stop-opacity="0.95071"/><stop offset="0.68798" stop-color="#ee88a6"/></linearGradient><linearGradient id="linear-gradient-23" x1="220.16513" y1="152.6884" x2="220.09992" y2="110.8451" gradientUnits="userSpaceOnUse"><stop offset="0.02125" stop-color="#fff" stop-opacity="0"/><stop offset="0.7739" stop-color="#f1bbc6"/></linearGradient><linearGradient id="linear-gradient-24" x1="251.38139" y1="158.85499" x2="251.85096" y2="121.81926" gradientUnits="userSpaceOnUse"><stop offset="0.07946" stop-color="#fff7f1"/><stop offset="0.45203" stop-color="#f08eaa"/></linearGradient><linearGradient id="linear-gradient-25" x1="190.1255" y1="164.69046" x2="190.1255" y2="124.06464" gradientUnits="userSpaceOnUse"><stop offset="0.02125" stop-color="#fff"/><stop offset="0.41774" stop-color="#fff7f1"/><stop offset="0.75164" stop-color="#fbe0e7"/></linearGradient><linearGradient id="linear-gradient-26" x1="316.68043" y1="272.6718" x2="316.80143" y2="251.36299" gradientUnits="userSpaceOnUse"><stop offset="0.07946" stop-color="#fff7f1" stop-opacity="0"/><stop offset="0.58268" stop-color="#f8d8b3"/></linearGradient><linearGradient id="linear-gradient-27" x1="331.00481" y1="267.74409" x2="342.91794" y2="247.10994" gradientUnits="userSpaceOnUse"><stop offset="0" stop-color="#fff"/><stop offset="0.08497" stop-color="#fef6e9"/><stop offset="0.22914" stop-color="#fde8ca"/><stop offset="0.36927" stop-color="#fddfb3"/><stop offset="0.50227" stop-color="#fcd9a6"/><stop offset="0.62053" stop-color="#fcd7a1"/></linearGradient><linearGradient id="linear-gradient-28" x1="288.38087" y1="279.21556" x2="288.9289" y2="235.99112" gradientUnits="userSpaceOnUse"><stop offset="0.07946" stop-color="#fff7f1"/><stop offset="0.46128" stop-color="#fdd7a2"/></linearGradient><linearGradient id="linear-gradient-29" x1="282.24592" y1="279.49448" x2="282.24592" y2="246.16598" gradientTransform="translate(-2.0412)" gradientUnits="userSpaceOnUse"><stop offset="0" stop-color="#fff7f1"/><stop offset="1" stop-color="#fff" stop-opacity="0.5"/></linearGradient><linearGradient id="linear-gradient-30" x1="288.76266" y1="280.56313" x2="288.82651" y2="228.1934" gradientUnits="userSpaceOnUse"><stop offset="0" stop-color="#fff7f1"/><stop offset="0.68629" stop-color="#d98a64"/><stop offset="1" stop-color="#facc98"/></linearGradient><linearGradient id="linear-gradient-31" x1="193.08364" y1="163.02908" x2="193.12444" y2="129.56932" gradientUnits="userSpaceOnUse"><stop offset="0" stop-color="#e5077f"/><stop offset="0.33709" stop-color="#e50980"/><stop offset="0.47552" stop-color="#e61084"/><stop offset="0.57756" stop-color="#e71c8a"/><stop offset="0.6617" stop-color="#e92e93"/><stop offset="0.73477" stop-color="#eb459e"/><stop offset="0.80022" stop-color="#ee61ac"/><stop offset="0.86002" stop-color="#f283bd"/><stop offset="0.91538" stop-color="#f6aad1"/><stop offset="0.96509" stop-color="#fad4e6"/><stop offset="1" stop-color="#fef7f8"/><stop offset="1" stop-color="#fffdfe"/></linearGradient><linearGradient id="linear-gradient-32" x1="176.46407" y1="148.61607" x2="209.73837" y2="148.61607" gradientUnits="userSpaceOnUse"><stop offset="0" stop-color="#efb0bd"/><stop offset="0.31618" stop-color="#f0b3bf"/><stop offset="0.52739" stop-color="#f1bcc7"/><stop offset="0.7079" stop-color="#f5cbd3"/><stop offset="0.87017" stop-color="#f9e0e5"/><stop offset="1" stop-color="#fef7f8"/><stop offset="1" stop-color="#fffdfe"/></linearGradient><linearGradient id="linear-gradient-33" x1="339.46299" y1="265.34355" x2="345.69066" y2="265.34355" gradientUnits="userSpaceOnUse"><stop offset="0" stop-color="#d98a64"/><stop offset="0.38574" stop-color="#e4a176"/><stop offset="1" stop-color="#facc98"/></linearGradient><linearGradient id="linear-gradient-34" x1="176.80705" y1="140.33372" x2="225.45522" y2="140.33372" xlink:href="#linear-gradient-31"/><linearGradient id="linear-gradient-35" x1="176.46387" y1="140.33372" x2="225.7984" y2="140.33372" gradientUnits="userSpaceOnUse"><stop offset="0" stop-color="#efb0bd"/><stop offset="0.44453" stop-color="#efb2bf"/><stop offset="0.62704" stop-color="#f1b9c5"/><stop offset="0.76146" stop-color="#f4c5cf"/><stop offset="0.8723" stop-color="#f7d7dd"/><stop offset="0.96757" stop-color="#fcedf0"/><stop offset="1" stop-color="#fef7f8"/><stop offset="1" stop-color="#fffdfe"/></linearGradient><linearGradient id="linear-gradient-36" x1="176.80705" y1="144.61607" x2="217.8869" y2="144.61607" xlink:href="#linear-gradient-31"/><linearGradient id="linear-gradient-37" x1="176.46409" y1="144.61607" x2="218.22986" y2="144.61607" xlink:href="#linear-gradient-35"/><linearGradient id="linear-gradient-38" x1="132.86657" y1="118.60886" x2="132.86657" y2="160.449" gradientUnits="userSpaceOnUse"><stop offset="0" stop-color="#8b4975"/><stop offset="0.17586" stop-color="#8e4e79" stop-opacity="0.97247"/><stop offset="0.34494" stop-color="#985c84" stop-opacity="0.8891"/><stop offset="0.51138" stop-color="#a87596" stop-opacity="0.74961"/><stop offset="0.67613" stop-color="#be97af" stop-opacity="0.55385"/><stop offset="0.83807" stop-color="#dbc2d0" stop-opacity="0.30441"/><stop offset="0.99885" stop-color="#fef7f8" stop-opacity="0"/></linearGradient><linearGradient id="linear-gradient-39" x1="127.42439" y1="164.51704" x2="127.42439" y2="112.85375" gradientUnits="userSpaceOnUse"><stop offset="0.00133" stop-color="#fcd7a1" stop-opacity="0"/><stop offset="0.18317" stop-color="#fcd59e" stop-opacity="0.16164"/><stop offset="0.59156" stop-color="#fbd198" stop-opacity="0.56969"/><stop offset="1" stop-color="#fbcd91"/></linearGradient><linearGradient id="linear-gradient-40" x1="226.26145" y1="278.71352" x2="226.26145" y2="247.61222" gradientUnits="userSpaceOnUse"><stop offset="0" stop-color="#fcd7a1" stop-opacity="0"/><stop offset="0.22016" stop-color="#fcd7a1" stop-opacity="0.24232"/><stop offset="0.60573" stop-color="#fcd7a1" stop-opacity="0.64605"/><stop offset="0.874" stop-color="#fcd7a1" stop-opacity="0.9009"/><stop offset="1" stop-color="#fcd7a1"/></linearGradient><linearGradient id="linear-gradient-41" x1="176.80705" y1="152.61607" x2="200.90936" y2="152.61607" xlink:href="#linear-gradient-31"/><linearGradient id="linear-gradient-42" x1="176.46407" y1="152.61607" x2="201.25234" y2="152.61607" xlink:href="#linear-gradient-32"/><linearGradient id="linear-gradient-43" x1="263.50299" y1="252.42995" x2="273.10425" y2="281.25945" gradientUnits="userSpaceOnUse"><stop offset="0" stop-color="#facc91"/><stop offset="0.22064" stop-color="#facd94"/><stop offset="0.41288" stop-color="#fbd29f"/><stop offset="0.59452" stop-color="#fbd9b1"/><stop offset="0.76963" stop-color="#fce4ca"/><stop offset="0.93858" stop-color="#fdf1ea"/><stop offset="1" stop-color="#fef7f8"/><stop offset="1" stop-color="#fffdfe"/></linearGradient><linearGradient id="linear-gradient-44" x1="185.4708" y1="153.26395" x2="189.66767" y2="165.86577" xlink:href="#linear-gradient-43"/><linearGradient id="linear-gradient-45" x1="172.9123" y1="126.36604" x2="168.27592" y2="129.70952" gradientUnits="userSpaceOnUse"><stop offset="0" stop-color="#facc91"/><stop offset="0.16251" stop-color="#facf98"/><stop offset="0.39745" stop-color="#fbd7ab"/><stop offset="0.67639" stop-color="#fce4cb"/><stop offset="0.98691" stop-color="#fef6f6"/><stop offset="1" stop-color="#fef7f8"/><stop offset="1" stop-color="#fffdfe"/></linearGradient><linearGradient id="linear-gradient-46" x1="241.01485" y1="212.85044" x2="241.01485" y2="281.02159" gradientUnits="userSpaceOnUse"><stop offset="0" stop-color="#ed9cac"/><stop offset="0.14882" stop-color="#ed9dad" stop-opacity="0.9866"/><stop offset="0.2677" stop-color="#eea1b1" stop-opacity="0.94447"/><stop offset="0.37622" stop-color="#efa8b6" stop-opacity="0.87339"/><stop offset="0.47861" stop-color="#f1b2bf" stop-opacity="0.77322"/><stop offset="0.57674" stop-color="#f3bfc9" stop-opacity="0.64377"/><stop offset="0.67166" stop-color="#f6ced6" stop-opacity="0.4848"/><stop offset="0.76396" stop-color="#fae0e6" stop-opacity="0.2963"/><stop offset="0.85196" stop-color="#fdf5f7" stop-opacity="0.08367"/><stop offset="0.88326" stop-color="#fffdfe" stop-opacity="0"/><stop offset="1" stop-color="#fef7f8" stop-opacity="0"/></linearGradient><linearGradient id="linear-gradient-47" x1="160.22541" y1="95.51932" x2="160.22541" y2="163.69046" gradientUnits="userSpaceOnUse"><stop offset="0" stop-color="#d2899a"/><stop offset="0.28289" stop-color="#d28a9b" stop-opacity="0.98947"/><stop offset="0.42169" stop-color="#d48e9e" stop-opacity="0.95323"/><stop offset="0.52913" stop-color="#d795a4" stop-opacity="0.89082"/><stop offset="0.62054" stop-color="#db9fad" stop-opacity="0.80204"/><stop offset="0.70166" stop-color="#e0abb7" stop-opacity="0.68677"/><stop offset="0.77559" stop-color="#e6bbc5" stop-opacity="0.54466"/><stop offset="0.84397" stop-color="#edced5" stop-opacity="0.37569"/><stop offset="0.90626" stop-color="#f6e3e7" stop-opacity="0.18548"/><stop offset="0.95744" stop-color="#fef7f8" stop-opacity="0"/></linearGradient><linearGradient id="linear-gradient-48" x1="218.66091" y1="267.50274" x2="218.39996" y2="277.31314" xlink:href="#linear-gradient-43"/><linearGradient id="linear-gradient-49" x1="164.4346" y1="127.26363" x2="164.4346" y2="163.69046" gradientUnits="userSpaceOnUse"><stop offset="0" stop-color="#8b4975"/><stop offset="0.10945" stop-color="#92547d" stop-opacity="0.93798"/><stop offset="0.28518" stop-color="#a67395" stop-opacity="0.76893"/><stop offset="0.5052" stop-color="#c6a4ba" stop-opacity="0.49323"/><stop offset="0.75867" stop-color="#f2e8ee" stop-opacity="0.11419"/><stop offset="0.8287" stop-color="#fffdfe" stop-opacity="0"/><stop offset="1" stop-color="#fef7f8" stop-opacity="0"/></linearGradient><linearGradient id="linear-gradient-50" x1="339.46299" y1="250.34355" x2="345.69066" y2="250.34355" xlink:href="#linear-gradient-33"/><linearGradient id="linear-gradient-51" x1="339.46299" y1="255.34355" x2="345.69066" y2="255.34355" xlink:href="#linear-gradient-33"/><linearGradient id="linear-gradient-52" x1="339.46299" y1="260.34355" x2="345.69066" y2="260.34355" xlink:href="#linear-gradient-33"/><linearGradient id="linear-gradient-53" x1="233.30789" y1="282.75213" x2="233.23279" y2="266.10361" gradientUnits="userSpaceOnUse"><stop offset="0.07946" stop-color="#fff7f1"/><stop offset="0.51346" stop-color="#f49f60"/></linearGradient><linearGradient id="linear-gradient-54" x1="231.66074" y1="269.77599" x2="231.66074" y2="253.053" gradientUnits="userSpaceOnUse"><stop offset="0" stop-color="#fdd8a4"/><stop offset="0.06045" stop-color="#fbca93"/><stop offset="0.16272" stop-color="#f8b77c"/><stop offset="0.27388" stop-color="#f6a96c"/><stop offset="0.3993" stop-color="#f4a163"/><stop offset="0.56912" stop-color="#f49f60"/></linearGradient><linearGradient id="linear-gradient-55" x1="242.61859" y1="273.20567" x2="242.61859" y2="262.03502" gradientUnits="userSpaceOnUse"><stop offset="0.01923" stop-color="#f0bcc7"/><stop offset="0.09116" stop-color="#f0b4c2"/><stop offset="0.34914" stop-color="#ef9cb3"/><stop offset="0.58745" stop-color="#ee8da9"/><stop offset="0.78568" stop-color="#ee88a6"/></linearGradient><linearGradient id="linear-gradient-56" x1="283.80821" y1="148.85428" x2="277.17979" y2="117.62018" gradientUnits="userSpaceOnUse"><stop offset="0.10496" stop-color="#fff" stop-opacity="0"/><stop offset="0.15906" stop-color="#fffaf3" stop-opacity="0.12564"/><stop offset="0.26751" stop-color="#fef1de" stop-opacity="0.35436"/><stop offset="0.37611" stop-color="#fde9cb" stop-opacity="0.5517"/><stop offset="0.48238" stop-color="#fde2bc" stop-opacity="0.71294"/><stop offset="0.58584" stop-color="#fcddb0" stop-opacity="0.83822"/><stop offset="0.68574" stop-color="#fcdaa8" stop-opacity="0.92776"/><stop offset="0.78048" stop-color="#fcd8a3" stop-opacity="0.98164"/><stop offset="0.86466" stop-color="#fcd7a1"/></linearGradient><linearGradient id="linear-gradient-57" x1="334.2524" y1="274.61909" x2="339.67035" y2="265.23494" gradientUnits="userSpaceOnUse"><stop offset="0.02125" stop-color="#fff"/><stop offset="0.09426" stop-color="#fff7f1"/><stop offset="0.62053" stop-color="#fcd7a1"/></linearGradient><linearGradient id="linear-gradient-58" x1="264.26042" y1="152.56461" x2="271.53962" y2="139.95667" gradientUnits="userSpaceOnUse"><stop offset="0.10454" stop-color="#fcd7a1" stop-opacity="0"/><stop offset="0.16658" stop-color="#fcd8a9" stop-opacity="0.12232"/><stop offset="0.29464" stop-color="#fcdab8" stop-opacity="0.35186"/><stop offset="0.4229" stop-color="#fbdcc5" stop-opacity="0.54993"/><stop offset="0.54843" stop-color="#fbddd0" stop-opacity="0.7118"/><stop offset="0.67064" stop-color="#fbdfd8" stop-opacity="0.83758"/><stop offset="0.78865" stop-color="#fbdfde" stop-opacity="0.92747"/><stop offset="0.90056" stop-color="#fbe0e2" stop-opacity="0.98157"/><stop offset="1" stop-color="#fbe0e3"/></linearGradient><linearGradient id="linear-gradient-59" x1="314.80852" y1="273.75702" x2="314.98562" y2="258.83085" xlink:href="#linear-gradient-54"/><linearGradient id="linear-gradient-60" x1="365.6507" y1="255.33898" x2="364.97171" y2="280.86577" gradientUnits="userSpaceOnUse"><stop offset="0" stop-color="#f088a7"/><stop offset="0.15145" stop-color="#f08aa8" stop-opacity="0.98562"/><stop offset="0.28348" stop-color="#f18fac" stop-opacity="0.94117"/><stop offset="0.40826" stop-color="#f297b2" stop-opacity="0.86645"/><stop offset="0.52866" stop-color="#f3a2ba" stop-opacity="0.76128"/><stop offset="0.64588" stop-color="#f5b2c5" stop-opacity="0.62559"/><stop offset="0.76071" stop-color="#f8c4d3" stop-opacity="0.45918"/><stop offset="0.87367" stop-color="#fadae3" stop-opacity="0.26177"/><stop offset="0.98246" stop-color="#fdf3f5" stop-opacity="0.03899"/><stop offset="1" stop-color="#fef7f8" stop-opacity="0"/><stop offset="1" stop-color="#fffdfe" stop-opacity="0"/></linearGradient><linearGradient id="linear-gradient-61" x1="327.00872" y1="277.44073" x2="327.00872" y2="265.8644" gradientUnits="userSpaceOnUse"><stop offset="0.02125" stop-color="#fff"/><stop offset="0.7739" stop-color="#ee88a6"/></linearGradient><linearGradient id="linear-gradient-62" x1="369.26281" y1="264.70053" x2="361.07295" y2="283.81249" gradientUnits="userSpaceOnUse"><stop offset="0" stop-color="#854271"/><stop offset="0.11642" stop-color="#8a4a77" stop-opacity="0.95673"/><stop offset="0.26844" stop-color="#996188" stop-opacity="0.83363"/><stop offset="0.44017" stop-color="#b287a5" stop-opacity="0.63075"/><stop offset="0.62637" stop-color="#d5bccd" stop-opacity="0.34789"/><stop offset="0.81659" stop-color="#fffdfe" stop-opacity="0"/><stop offset="1" stop-color="#fef7f8" stop-opacity="0"/></linearGradient><linearGradient id="linear-gradient-63" x1="339.46299" y1="270.34355" x2="345.69066" y2="270.34355" xlink:href="#linear-gradient-33"/><linearGradient id="linear-gradient-64" x1="256.09856" y1="155.72226" x2="256.3326" y2="154.34487" gradientUnits="userSpaceOnUse"><stop offset="0.15934" stop-color="#fff7f1"/><stop offset="1" stop-color="#f08eaa"/></linearGradient><linearGradient id="linear-gradient-65" x1="365.51384" y1="269.70463" x2="351.21717" y2="282.80007" gradientUnits="userSpaceOnUse"><stop offset="0" stop-color="#854271"/><stop offset="0.07969" stop-color="#8a4a77" stop-opacity="0.95673"/><stop offset="0.18375" stop-color="#996188" stop-opacity="0.83363"/><stop offset="0.30129" stop-color="#b287a5" stop-opacity="0.63075"/><stop offset="0.42875" stop-color="#d5bccd" stop-opacity="0.34789"/><stop offset="0.55895" stop-color="#fffdfe" stop-opacity="0"/><stop offset="1" stop-color="#fef7f8" stop-opacity="0"/></linearGradient><linearGradient id="linear-gradient-66" x1="351.75724" y1="265.37556" x2="351.49629" y2="275.18596" gradientTransform="matrix(1.00118, -0.02434, -0.02434, 1.50038, 6.12225, -125.87829)" gradientUnits="userSpaceOnUse"><stop offset="0" stop-color="#f5a05f"/><stop offset="0.18505" stop-color="#f5a262"/><stop offset="0.34627" stop-color="#f6a86d"/><stop offset="0.49864" stop-color="#f7b27f"/><stop offset="0.64556" stop-color="#f8c198"/><stop offset="0.78864" stop-color="#fad3b9"/><stop offset="0.92691" stop-color="#fde9e0"/><stop offset="1" stop-color="#fef7f8"/><stop offset="1" stop-color="#fffdfe"/></linearGradient><linearGradient id="linear-gradient-67" x1="333.25207" y1="284.09505" x2="333.27102" y2="271.49" gradientUnits="userSpaceOnUse"><stop offset="0" stop-color="#fff"/><stop offset="0.87713" stop-color="#ed9cac"/></linearGradient><linearGradient id="linear-gradient-68" x1="278.54234" y1="145.40169" x2="273.27465" y2="120.57958" gradientUnits="userSpaceOnUse"><stop offset="0.10582" stop-color="#fff" stop-opacity="0"/><stop offset="0.14719" stop-color="#fef5f7" stop-opacity="0.09685"/><stop offset="0.25747" stop-color="#fbdce5" stop-opacity="0.33314"/><stop offset="0.36788" stop-color="#f9c7d5" stop-opacity="0.53693"/><stop offset="0.47595" stop-color="#f7b6c8" stop-opacity="0.70349"/><stop offset="0.58118" stop-color="#f6a8be" stop-opacity="0.83294"/><stop offset="0.68275" stop-color="#f59fb7" stop-opacity="0.92539"/><stop offset="0.77907" stop-color="#f499b2" stop-opacity="0.98104"/><stop offset="0.86466" stop-color="#f497b1"/></linearGradient><linearGradient id="linear-gradient-69" x1="281.54273" y1="145.40353" x2="276.27424" y2="120.57765" xlink:href="#linear-gradient-68"/><linearGradient id="linear-gradient-70" x1="284.54251" y1="145.40248" x2="279.27448" y2="120.57875" xlink:href="#linear-gradient-68"/><linearGradient id="linear-gradient-71" x1="369.14467" y1="220.45247" x2="369.14467" y2="229.65046" gradientUnits="userSpaceOnUse"><stop offset="0" stop-color="#fcd7a1"/><stop offset="0.19725" stop-color="#f9c289"/><stop offset="0.4351" stop-color="#f6af72"/><stop offset="0.66174" stop-color="#f5a365"/><stop offset="0.86331" stop-color="#f49f60"/></linearGradient><linearGradient id="linear-gradient-72" x1="287.54251" y1="145.40248" x2="282.27448" y2="120.57875" xlink:href="#linear-gradient-68"/><linearGradient id="linear-gradient-73" x1="386.95681" y1="280.62101" x2="386.95681" y2="242.7028" gradientUnits="userSpaceOnUse"><stop offset="0" stop-color="#fcd7a1" stop-opacity="0"/><stop offset="0.02927" stop-color="#fcd8a7" stop-opacity="0.09549"/><stop offset="0.09389" stop-color="#fcdab4" stop-opacity="0.28333"/><stop offset="0.16418" stop-color="#fcdbbf" stop-opacity="0.45446"/><stop offset="0.23856" stop-color="#fbdcc9" stop-opacity="0.60184"/><stop offset="0.3181" stop-color="#fbded1" stop-opacity="0.72574"/><stop offset="0.40446" stop-color="#fbded8" stop-opacity="0.82643"/><stop offset="0.50024" stop-color="#fbdfdd" stop-opacity="0.90403"/><stop offset="0.61057" stop-color="#fbe0e0" stop-opacity="0.95869"/><stop offset="0.7484" stop-color="#fbe0e2" stop-opacity="0.99056"/><stop offset="1" stop-color="#fbe0e3"/></linearGradient><linearGradient id="linear-gradient-74" x1="390.08244" y1="279.4345" x2="390.08244" y2="242.73174" xlink:href="#linear-gradient-68"/><linearGradient id="linear-gradient-75" x1="133.88449" y1="152.73634" x2="133.88913" y2="128.07964" gradientUnits="userSpaceOnUse"><stop offset="0" stop-color="#fcd7a1" stop-opacity="0"/><stop offset="0.36627" stop-color="#f9c187" stop-opacity="0.23935"/><stop offset="0.79622" stop-color="#f6a96a" stop-opacity="0.49832"/><stop offset="1" stop-color="#f5a05f" stop-opacity="0.6"/></linearGradient></defs><title>Logo2</title><g class="cls-1"><g id="Layer_4" data-name="Layer 4"><rect class="cls-2" x="68.09105" width="290.81637" height="345.91842" rx="23.26744"/><path class="cls-3" d="M127.9375,547.918H104.87061V560.3916h21.77978v16.43457H104.87061v12.87012H127.9375v16.43359H85.46631V531.4834H127.9375Z" transform="translate(-85.46631 -117.33114)"/><path class="cls-3" d="M165.65576,555.34277V583.9541q0,9.40576,9.10791,9.4043,9.10694,0,9.10791-9.4043V555.34277h17.91895V587.419q0,10.29785-6.78125,15.44433-6.78224,5.146-20.24561,5.14746-13.46484,0-20.2456-5.14746-6.78223-5.14746-6.78125-15.44433V555.34277Z" transform="translate(-85.46631 -117.33114)"/><path class="cls-3" d="M285.24658,606.12988H261.09033l-18.51269-28.71v28.71h-19.4043V531.4834h30.19531a29.64555,29.64555,0,0,1,10.88965,1.832,20.50037,20.50037,0,0,1,12.22656,12.32519,25.54692,25.54692,0,0,1,1.53467,8.91016q0,8.51514-4.1084,13.81055-4.10961,5.29688-12.12744,7.17773Zm-42.66894-41.2832h3.66308q5.74,0,8.811-2.376a9.13716,9.13716,0,0,0,0-13.66211q-3.07032-2.376-8.811-2.376h-3.66308Z" transform="translate(-85.46631 -117.33114)"/><path class="cls-3" d="M316.63086,555.34277V583.9541q0,9.40576,9.1084,9.4043,9.10693,0,9.1084-9.4043V555.34277H352.7666V587.419q0,10.29785-6.78222,15.44433-6.78223,5.146-20.24512,5.14746-13.46484,0-20.24512-5.14746-6.78222-5.14746-6.78271-15.44433V555.34277Z" transform="translate(-85.46631 -117.33114)"/><path class="cls-3" d="M393.55273,562.27246l23.66114-30.78906h23.958l-29.60059,35.34375,32.37305,39.30273H418.79785l-25.24512-32.373v32.373H374.14941V531.4834h19.40332Z" transform="translate(-85.46631 -117.33114)"/><path class="cls-3" d="M452.459,580.291a24.7093,24.7093,0,0,1,2.27637-10.54395,25.89434,25.89434,0,0,1,6.33692-8.51367,30.1197,30.1197,0,0,1,9.65234-5.69238,34.83154,34.83154,0,0,1,12.22656-2.07911,35.33412,35.33412,0,0,1,12.127,2.0293,30.03511,30.03511,0,0,1,9.70215,5.64356,25.35233,25.35233,0,0,1,6.38575,8.6123,26.33442,26.33442,0,0,1,2.27636,11.03906,25.85413,25.85413,0,0,1-2.32617,11.03809,26.19447,26.19447,0,0,1-6.38574,8.61328,28.60229,28.60229,0,0,1-9.751,5.59375,37.2982,37.2982,0,0,1-12.32617,1.97949,35.67853,35.67853,0,0,1-12.07715-1.97949,27.86445,27.86445,0,0,1-9.55371-5.64355,26.15262,26.15262,0,0,1-6.28711-8.76172A27.47852,27.47852,0,0,1,452.459,580.291Zm18.90918.19824a11.48838,11.48838,0,0,0,.94043,4.70215,12.53586,12.53586,0,0,0,2.47461,3.71289,10.87444,10.87444,0,0,0,3.66309,2.47461,11.836,11.836,0,0,0,9.00879,0,10.89371,10.89371,0,0,0,3.66308-2.47461,12.633,12.633,0,0,0,2.47559-3.71289,11.27687,11.27687,0,0,0,.94043-4.60352,11.04381,11.04381,0,0,0-.94043-4.50488,12.66652,12.66652,0,0,0-2.47559-3.71192,10.91033,10.91033,0,0,0-3.66308-2.47558,11.83589,11.83589,0,0,0-9.00879,0,10.891,10.891,0,0,0-3.66309,2.47558,12.74589,12.74589,0,0,0-2.47461,3.66309A10.667,10.667,0,0,0,471.36816,580.48926Z" transform="translate(-85.46631 -117.33114)"/><g class="cls-4"><path class="cls-5" d="M138.27832,660.46582h-10.98l-8.415-13.0498v13.0498h-8.81982V626.53613h13.72461a13.48116,13.48116,0,0,1,4.95019.832,9.32211,9.32211,0,0,1,5.55762,5.60254,11.609,11.609,0,0,1,.69726,4.04981,9.95493,9.95493,0,0,1-1.86718,6.27734,9.4012,9.4012,0,0,1-5.5127,3.2627Zm-19.395-18.76465h1.665a6.43385,6.43385,0,0,0,4.00488-1.08008,4.153,4.153,0,0,0,0-6.21,6.42762,6.42762,0,0,0-4.00488-1.08008h-1.665Z" transform="translate(-85.46631 -117.33114)"/><path class="cls-5" d="M150.74316,643.501a17.48481,17.48481,0,0,1,11.18262-16.53809,21.57575,21.57575,0,0,1,15.14258,0,17.90135,17.90135,0,0,1,5.9624,3.80273,17.408,17.408,0,0,1,3.89258,5.69239,18.47379,18.47379,0,0,1,0,14.085,17.3875,17.3875,0,0,1-3.89258,5.69238,17.87065,17.87065,0,0,1-5.9624,3.80274,21.56148,21.56148,0,0,1-15.14258,0A17.54972,17.54972,0,0,1,150.74316,643.501Zm9.2251,0a9.02669,9.02669,0,0,0,.76514,3.73437,9.33542,9.33542,0,0,0,5.10742,4.92774,9.81628,9.81628,0,0,0,10.395-1.957,9.27715,9.27715,0,0,0,2.09228-2.9707,9.498,9.498,0,0,0,0-7.46973,9.28387,9.28387,0,0,0-2.09228-2.96972,9.64827,9.64827,0,0,0-3.06006-1.958,9.99369,9.99369,0,0,0-7.335,0,9.34406,9.34406,0,0,0-5.10742,4.92773A9.03132,9.03132,0,0,0,159.96826,643.501Z" transform="translate(-85.46631 -117.33114)"/><path class="cls-5" d="M217.34326,634.00586v26.46h-8.81982v-26.46h-7.24512v-7.46973h23.31006v7.46973Z" transform="translate(-85.46631 -117.33114)"/><path class="cls-5" d="M252.30811,634.00586v26.46h-8.81983v-26.46h-7.24512v-7.46973h23.31006v7.46973Z" transform="translate(-85.46631 -117.33114)"/><path class="cls-5" d="M293.708,634.00586H283.22266v5.66992h9.90039v7.46973h-9.90039v5.85058H293.708v7.46973H274.40283V626.53613H293.708Z" transform="translate(-85.46631 -117.33114)"/><path class="cls-5" d="M339.20215,660.46582H328.22266l-8.415-13.0498v13.0498H310.9873V626.53613h13.72559a13.48486,13.48486,0,0,1,4.9502.832,9.31713,9.31713,0,0,1,5.55664,5.60254,11.6094,11.6094,0,0,1,.69824,4.04981,9.9493,9.9493,0,0,1-1.86817,6.27734,9.39855,9.39855,0,0,1-5.51171,3.2627Zm-19.39453-18.76465h1.665a6.43292,6.43292,0,0,0,4.00488-1.08008,4.152,4.152,0,0,0,0-6.21,6.42669,6.42669,0,0,0-4.00488-1.08008h-1.665Z" transform="translate(-85.46631 -117.33114)"/><path class="cls-5" d="M353.82715,626.53613h13.05078a15.39814,15.39814,0,0,1,6.502,1.39453,17.74182,17.74182,0,0,1,5.31055,3.71289,17.25728,17.25728,0,0,1,3.57715,5.39942,16.6545,16.6545,0,0,1,.02246,12.87012,17.19352,17.19352,0,0,1-3.55469,5.42285,17.51423,17.51423,0,0,1-5.31055,3.73535,15.49862,15.49862,0,0,1-6.54687,1.39453H353.82715Zm8.82031,26.46h2.02539a10.94613,10.94613,0,0,0,4.09473-.7207,8.74573,8.74573,0,0,0,3.03711-1.97949,8.47928,8.47928,0,0,0,1.89062-2.99219,10.72045,10.72045,0,0,0,.65235-3.80273,10.45536,10.45536,0,0,0-.67481-3.78028,8.48133,8.48133,0,0,0-4.95019-4.99511,10.83747,10.83747,0,0,0-4.04981-.71973h-2.02539Z" transform="translate(-85.46631 -117.33114)"/><path class="cls-5" d="M419.48145,654.57129H406.88184l-2.02539,5.89453h-9.4043l12.915-33.92969h9.62988l12.915,33.92969h-9.40527Zm-2.33985-6.70508-3.96-11.29492-3.96,11.29492Z" transform="translate(-85.46631 -117.33114)"/><path class="cls-5" d="M444.18652,660.46582l5.75977-33.92969h8.72949L465.4707,644.626l6.75-18.08985h8.73047l5.75977,33.92969h-8.77442l-2.92578-19.53027L467.001,660.46582h-3.50977l-7.60547-19.53027-2.9248,19.53027Z" transform="translate(-85.46631 -117.33114)"/></g><path class="cls-6" d="M127.90088,677.12109l2.21,8.2793,2.71973-8.2793h2.65234l2.71973,8.2793,2.21-8.2793H143.898l-3.8252,12.81836h-3.40039l-2.51562-7.42871-2.5166,7.42871h-3.39942l-3.82519-12.81836Z" transform="translate(-85.46631 -117.33114)"/><path class="cls-6" d="M146.49854,677.86914a1.672,1.672,0,0,1,.13671-.6709,1.74493,1.74493,0,0,1,.374-.55273,1.77314,1.77314,0,0,1,.55176-.374,1.73067,1.73067,0,0,1,1.34375,0,1.76516,1.76516,0,0,1,.92578.92676,1.71685,1.71685,0,0,1,0,1.34278,1.7651,1.7651,0,0,1-.92578.92675,1.73055,1.73055,0,0,1-1.34375,0,1.77329,1.77329,0,0,1-.55176-.374,1.74493,1.74493,0,0,1-.374-.55273A1.67334,1.67334,0,0,1,146.49854,677.86914Zm3.28125,3.34961v8.7207h-3.07715v-8.7207Z" transform="translate(-85.46631 -117.33114)"/><path class="cls-6" d="M156.78369,683.78516v6.15429h-3.07715v-6.15429H152.686v-2.56641h1.0205v-2.61816h3.07715v2.61816h1.751v2.56641Z" transform="translate(-85.46631 -117.33114)"/><path class="cls-6" d="M161.54248,675.8291h3.07715v6.49414a3.36924,3.36924,0,0,1,1.27539-1.02832,3.98442,3.98442,0,0,1,1.51269-.26367,3.22642,3.22642,0,0,1,2.49024.91016,3.4719,3.4719,0,0,1,.8418,2.45605v5.542H167.6626v-4.40332a4.591,4.591,0,0,0-.10156-1.07031,1.24619,1.24619,0,0,0-.33985-.62891,1.44749,1.44749,0,0,0-.98633-.35742,1.52051,1.52051,0,0,0-1.19824.46778,1.93613,1.93613,0,0,0-.417,1.334v4.6582h-3.07715Z" transform="translate(-85.46631 -117.33114)"/><path class="cls-6" d="M213.83643,683.78516v6.15429h-3.07715v-6.15429h-1.10449v-2.56641h1.10449v-1.30957a5.95027,5.95027,0,0,1,.2041-1.7334,3.07953,3.07953,0,0,1,.54394-1.01172,3.964,3.964,0,0,1,.876-.80761,4.2561,4.2561,0,0,1,1.0791-.52735,3.71015,3.71015,0,0,1,1.13965-.18652,2.90226,2.90226,0,0,1,.72168.085,4.07563,4.07563,0,0,1,.67188.23828v2.68555a3.43609,3.43609,0,0,0-.56934-.22949,1.9831,1.9831,0,0,0-.55273-.07618,1.30066,1.30066,0,0,0-.38282.05957.82323.82323,0,0,0-.36523.2461,1.047,1.047,0,0,0-.22949.53515,5.83914,5.83914,0,0,0-.05957.94434v1.08789h2.15918v2.56641Z" transform="translate(-85.46631 -117.33114)"/><path class="cls-6" d="M218.61279,681.21875h3.07715v1.42773a3.53666,3.53666,0,0,1,1.207-1.19824,3.24144,3.24144,0,0,1,1.666-.417h.26367a1.89464,1.89464,0,0,1,.33105.03418v2.94141a2.91806,2.91806,0,0,0-1.32519-.30664,1.98157,1.98157,0,0,0-1.60742.63769,2.82981,2.82981,0,0,0-.53516,1.86133v3.74023h-3.07715Z" transform="translate(-85.46631 -117.33114)"/><path class="cls-6" d="M227.7251,685.50293a4.22577,4.22577,0,0,1,.3916-1.81055,4.43385,4.43385,0,0,1,1.08789-1.46289,5.156,5.156,0,0,1,1.65723-.97656,5.97152,5.97152,0,0,1,2.09961-.35742,6.05772,6.05772,0,0,1,2.082.34863,5.15678,5.15678,0,0,1,1.666.96875,4.34971,4.34971,0,0,1,1.09668,1.47949,4.51793,4.51793,0,0,1,.39063,1.89551,4.43325,4.43325,0,0,1-.39942,1.89551,4.49088,4.49088,0,0,1-1.0957,1.47851,4.90933,4.90933,0,0,1-1.6748.96094,6.40668,6.40668,0,0,1-2.11622.33985,6.12887,6.12887,0,0,1-2.07421-.33985,4.77689,4.77689,0,0,1-1.64063-.96973,4.47339,4.47339,0,0,1-1.0791-1.5039A4.7048,4.7048,0,0,1,227.7251,685.50293Zm3.24707.0332a1.97806,1.97806,0,0,0,.16113.80762,2.16367,2.16367,0,0,0,.42578.6377,1.84506,1.84506,0,0,0,.62891.4248,2.02749,2.02749,0,0,0,1.54687,0,1.864,1.864,0,0,0,.62891-.4248,2.14219,2.14219,0,0,0,.4248-.6377,1.93461,1.93461,0,0,0,.16211-.79,1.89352,1.89352,0,0,0-.16211-.77344,2.15458,2.15458,0,0,0-.4248-.63769,1.86414,1.86414,0,0,0-.62891-.42481,2.02749,2.02749,0,0,0-1.54687,0,1.84523,1.84523,0,0,0-.62891.42481,2.21235,2.21235,0,0,0-.42578.6289A1.839,1.839,0,0,0,230.97217,685.53613Z" transform="translate(-85.46631 -117.33114)"/><path class="cls-6" d="M241.42725,681.21875h3.07714v1.07031a3.98389,3.98389,0,0,1,2.82227-1.207,3.28046,3.28046,0,0,1,2.958,1.63281,3.29839,3.29839,0,0,1,2.958-1.64941,3.68428,3.68428,0,0,1,1.15625.17871,2.37865,2.37865,0,0,1,.93457.56055,2.67444,2.67444,0,0,1,.62011.99511,4.21035,4.21035,0,0,1,.2295,1.47852v5.66113h-3.07618v-4.30078a5.25682,5.25682,0,0,0-.09375-1.08789,1.71726,1.71726,0,0,0-.27246-.66308.89958.89958,0,0,0-.416-.32325,1.50943,1.50943,0,0,0-.50977-.085q-1.4795,0-1.47949,2.15918v4.30078H247.2583v-4.30078a5.85638,5.85638,0,0,0-.085-1.09668,2.02421,2.02421,0,0,0-.24609-.68847.83014.83014,0,0,0-.417-.34864,1.85889,1.85889,0,0,0-1.13867-.00879.97213.97213,0,0,0-.45019.332,1.8034,1.8034,0,0,0-.30664.67969,4.74145,4.74145,0,0,0-.11036,1.13086v4.30078h-3.07714Z" transform="translate(-85.46631 -117.33114)"/><path class="cls-6" d="M273.52393,682.76562h6.61328a18.36536,18.36536,0,0,1-.085,1.85254,6.56139,6.56139,0,0,1-.34082,1.54688,6.15262,6.15262,0,0,1-.96875,1.77734,5.67094,5.67094,0,0,1-1.43653,1.292,6.73238,6.73238,0,0,1-1.81054.79,7.75067,7.75067,0,0,1-2.07325.27247,7.2918,7.2918,0,0,1-2.72851-.49317,6.1701,6.1701,0,0,1-2.11719-1.38574,6.28375,6.28375,0,0,1-1.377-2.1416,7.45743,7.45743,0,0,1-.49317-2.7627,7.55272,7.55272,0,0,1,.48438-2.74609,6.01372,6.01372,0,0,1,1.37793-2.13281,6.23714,6.23714,0,0,1,2.15039-1.377,7.61679,7.61679,0,0,1,2.80469-.49316,6.95206,6.95206,0,0,1,3.51855.86719,5.99892,5.99892,0,0,1,2.39746,2.68554l-3.16211,1.3086a3.22656,3.22656,0,0,0-1.14746-1.5127,2.884,2.884,0,0,0-1.60644-.459,3.23436,3.23436,0,0,0-1.36036.28027,2.9602,2.9602,0,0,0-1.04492.79981,3.84646,3.84646,0,0,0-.68066,1.249,5.51111,5.51111,0,0,0-.0332,3.14551,3.42265,3.42265,0,0,0,.63671,1.207,2.877,2.877,0,0,0,1.05469.79,3.5657,3.5657,0,0,0,1.46192.28027,4.03294,4.03294,0,0,0,.95214-.11035,2.49464,2.49464,0,0,0,.82422-.35742,2.03646,2.03646,0,0,0,.60352-.63672,2.57671,2.57671,0,0,0,.32324-.95215h-2.7373Z" transform="translate(-85.46631 -117.33114)"/><path class="cls-6" d="M283.21338,677.86914a1.672,1.672,0,0,1,.13672-.6709,1.74473,1.74473,0,0,1,.374-.55273,1.77314,1.77314,0,0,1,.55176-.374,1.73067,1.73067,0,0,1,1.34375,0,1.76507,1.76507,0,0,1,.92578.92676,1.71685,1.71685,0,0,1,0,1.34278,1.765,1.765,0,0,1-.92578.92675,1.73055,1.73055,0,0,1-1.34375,0,1.77329,1.77329,0,0,1-.55176-.374,1.74473,1.74473,0,0,1-.374-.55273A1.67335,1.67335,0,0,1,283.21338,677.86914Zm3.28125,3.34961v8.7207h-3.07715v-8.7207Z" transform="translate(-85.46631 -117.33114)"/><path class="cls-6" d="M293.49854,683.78516v6.15429h-3.07715v-6.15429h-1.02051v-2.56641h1.02051v-2.61816h3.07715v2.61816h1.751v2.56641Z" transform="translate(-85.46631 -117.33114)"/><path class="cls-6" d="M298.25732,675.8291H301.334v6.49414a3.36926,3.36926,0,0,1,1.2754-1.02832,3.98442,3.98442,0,0,1,1.51269-.26367,3.22638,3.22638,0,0,1,2.49023.91016,3.47186,3.47186,0,0,1,.8418,2.45605v5.542H304.377v-4.40332a4.591,4.591,0,0,0-.10156-1.07031,1.24618,1.24618,0,0,0-.33984-.62891,1.44751,1.44751,0,0,0-.98633-.35742,1.5205,1.5205,0,0,0-1.19824.46778,1.93613,1.93613,0,0,0-.417,1.334v4.6582h-3.07666Z" transform="translate(-85.46631 -117.33114)"/><path class="cls-6" d="M314.085,681.21875v4.91309a1.56475,1.56475,0,1,0,3.12793,0v-4.91309H320.29v5.50781a3.12262,3.12262,0,0,1-1.16406,2.65235,7.27978,7.27978,0,0,1-6.95313,0,3.12066,3.12066,0,0,1-1.165-2.65235v-5.50781Z" transform="translate(-85.46631 -117.33114)"/><path class="cls-6" d="M326.91992,675.8291v6.25684a3.60489,3.60489,0,0,1,2.71973-1.13965,4.27058,4.27058,0,0,1,1.77734.36523,4.20977,4.20977,0,0,1,1.377.98633,4.57665,4.57665,0,0,1,.89257,1.46192,5.15673,5.15673,0,0,1-.00879,3.6123,4.5022,4.5022,0,0,1-.92675,1.47949,4.41386,4.41386,0,0,1-1.40235.99414,4.16763,4.16763,0,0,1-1.74218.36621,3.24752,3.24752,0,0,1-2.68653-1.24121v.96875h-3.07715V675.8291Zm3.876,9.77539a1.97325,1.97325,0,0,0-.15332-.77344,1.95088,1.95088,0,0,0-.42481-.63769,2.12668,2.12668,0,0,0-.6289-.43359,1.88106,1.88106,0,0,0-.78223-.16114,1.92946,1.92946,0,0,0-.76465.15235,1.88368,1.88368,0,0,0-.62011.42578,2.17123,2.17123,0,0,0-.42579.63672,1.96209,1.96209,0,0,0-.00781,1.53906,1.86664,1.86664,0,0,0,.42481.62012,2.16349,2.16349,0,0,0,.63769.42578,1.89286,1.89286,0,0,0,.77344.16113,1.91334,1.91334,0,0,0,.76465-.15332,1.88056,1.88056,0,0,0,.62109-.4248,2.216,2.216,0,0,0,.42481-.62891A1.79913,1.79913,0,0,0,330.7959,685.60449Z" transform="translate(-85.46631 -117.33114)"/><path class="cls-6" d="M353.28711,685.043a14.68725,14.68725,0,0,0,1.666-1.83594l1.88672,1.81934a9.71661,9.71661,0,0,1-.65429.791c-.24414.26563-.52442.54688-.8418.84082l-.25488.23828,2.85644,3.043h-4.14843l-1.12208-1.17285a7.9841,7.9841,0,0,1-4.40234,1.53028,4.78681,4.78681,0,0,1-1.64941-.27247,3.858,3.858,0,0,1-1.292-.76464,3.53709,3.53709,0,0,1-.8496-1.165,3.50059,3.50059,0,0,1-.30665-1.47071,3.76869,3.76869,0,0,1,.19629-1.26562,3.05734,3.05734,0,0,1,.6709-1.0625,4.03121,4.03121,0,0,1,.791-.67188,8.38851,8.38851,0,0,1,1.0625-.56933l.35644-.16992-.2207-.25489a3.87,3.87,0,0,1-.98633-2.36328,3.21814,3.21814,0,0,1,.30664-1.39453,3.37823,3.37823,0,0,1,.84082-1.11328,3.93754,3.93754,0,0,1,1.2666-.73047,4.62718,4.62718,0,0,1,1.58106-.26367,4.6752,4.6752,0,0,1,1.59766.26367,3.84193,3.84193,0,0,1,1.2666.73926,3.39555,3.39555,0,0,1,.833,1.11328,3.23614,3.23614,0,0,1,.29786,1.38574,3.38287,3.38287,0,0,1-.11914.92676,2.31037,2.31037,0,0,1-.39942.78125,3.58107,3.58107,0,0,1-.73047.69727,8.257,8.257,0,0,1-1.11425.67187Zm-4.4541-.459q-1.207.74854-1.207,1.4961a1.07791,1.07791,0,0,0,.11914.502,1.18925,1.18925,0,0,0,.32324.39063,1.56715,1.56715,0,0,0,.46777.25488,1.68213,1.68213,0,0,0,.56934.09375,3.31454,3.31454,0,0,0,1.751-.56055Zm1.377-2.7871q1.18945-.71486,1.19043-1.59864a1.19246,1.19246,0,0,0-.31445-.82422,1.07251,1.07251,0,0,0-1.87891.72266A3.047,3.047,0,0,0,350.21,681.79688Z" transform="translate(-85.46631 -117.33114)"/><path class="cls-6" d="M375.84668,687.71289h-4.76074l-.76465,2.22656h-3.55274l4.87891-12.81836h3.6377l4.8789,12.81836h-3.55273Zm-.88379-2.5332-1.49609-4.26758-1.4961,4.26758Z" transform="translate(-85.46631 -117.33114)"/><path class="cls-6" d="M386.06348,694.291h-3.07715V681.21875h3.07715v.96875a3.24749,3.24749,0,0,1,2.68652-1.24121,4.18229,4.18229,0,0,1,1.74219.36523,4.43215,4.43215,0,0,1,1.40234.99512,4.50782,4.50782,0,0,1,.92676,1.47852,4.97032,4.97032,0,0,1,.33105,1.81933,4.83306,4.83306,0,0,1-.33105,1.80176,4.62553,4.62553,0,0,1-.918,1.46191,4.24442,4.24442,0,0,1-1.38574.98633,4.19869,4.19869,0,0,1-1.73438.35742,3.63263,3.63263,0,0,1-2.71972-1.12207Zm3.876-8.68653a2.07743,2.07743,0,0,0-.14453-.77344,1.86894,1.86894,0,0,0-.416-.63769,2.11816,2.11816,0,0,0-.6377-.43359,2.00871,2.00871,0,0,0-1.55566-.00879,1.88372,1.88372,0,0,0-.62012.42578,2.1714,2.1714,0,0,0-.42578.63672,1.96209,1.96209,0,0,0-.00781,1.53906,1.86662,1.86662,0,0,0,.4248.62012,2.16354,2.16354,0,0,0,.6377.42578,1.89278,1.89278,0,0,0,.77343.16113,1.9133,1.9133,0,0,0,.76465-.15332,1.88071,1.88071,0,0,0,.6211-.4248,2.21613,2.21613,0,0,0,.4248-.62891A1.79913,1.79913,0,0,0,389.93945,685.60449Z" transform="translate(-85.46631 -117.33114)"/><path class="cls-6" d="M399.44238,694.291h-3.07715V681.21875h3.07715v.96875a3.24752,3.24752,0,0,1,2.68653-1.24121,4.18225,4.18225,0,0,1,1.74218.36523,4.43219,4.43219,0,0,1,1.40235.99512,4.50815,4.50815,0,0,1,.92676,1.47852,4.97032,4.97032,0,0,1,.33105,1.81933,4.83306,4.83306,0,0,1-.33105,1.80176,4.62588,4.62588,0,0,1-.918,1.46191,4.24447,4.24447,0,0,1-1.38575.98633,4.19868,4.19868,0,0,1-1.73437.35742,3.63267,3.63267,0,0,1-2.71973-1.12207Zm3.876-8.68653a2.07743,2.07743,0,0,0-.14453-.77344,1.86882,1.86882,0,0,0-.416-.63769,2.11824,2.11824,0,0,0-.63769-.43359,2.00873,2.00873,0,0,0-1.55567-.00879,1.88368,1.88368,0,0,0-.62011.42578,2.17123,2.17123,0,0,0-.42579.63672,1.96209,1.96209,0,0,0-.00781,1.53906,1.86664,1.86664,0,0,0,.42481.62012,2.16349,2.16349,0,0,0,.63769.42578,1.89286,1.89286,0,0,0,.77344.16113,1.91334,1.91334,0,0,0,.76465-.15332,1.88056,1.88056,0,0,0,.62109-.4248,2.216,2.216,0,0,0,.42481-.62891A1.79913,1.79913,0,0,0,403.31836,685.60449Z" transform="translate(-85.46631 -117.33114)"/><path class="cls-6" d="M415.52441,683.46289a3.59257,3.59257,0,0,0-1.666-.44238,1.25265,1.25265,0,0,0-.68848.16992.52255.52255,0,0,0-.26367.459.59829.59829,0,0,0,.043.2461.43421.43421,0,0,0,.18652.17871,1.61606,1.61606,0,0,0,.42481.15332c.1875.04492.43359.10156.74023.16992a3.53509,3.53509,0,0,1,1.90332.90918,2.3165,2.3165,0,0,1,.62891,1.67481,3.036,3.036,0,0,1-.30567,1.37695,2.92718,2.92718,0,0,1-.84961,1.02832,4.03562,4.03562,0,0,1-1.30957.64648,5.85618,5.85618,0,0,1-1.68261.2295,6.83745,6.83745,0,0,1-3.48535-1.00293l1.12207-2.17676a4.38227,4.38227,0,0,0,2.44824.88476,1.20381,1.20381,0,0,0,.69726-.1875.55891.55891,0,0,0,.27149-.47558.81118.81118,0,0,0-.042-.28028.455.455,0,0,0-.17872-.2041,1.41132,1.41132,0,0,0-.39941-.16992q-.26367-.07764-.68848-.16211a3.94111,3.94111,0,0,1-1.998-.8584,2.12346,2.12346,0,0,1-.56934-1.57226,3.089,3.089,0,0,1,.27246-1.31739,2.72145,2.72145,0,0,1,.78125-.99511,3.68251,3.68251,0,0,1,1.2334-.62891,5.50343,5.50343,0,0,1,1.60645-.2207,7.2906,7.2906,0,0,1,2.80468.56054Z" transform="translate(-85.46631 -117.33114)"/><path class="cls-6" d="M419.6543,677.86914a1.672,1.672,0,0,1,.13672-.6709,1.74473,1.74473,0,0,1,.374-.55273,1.77314,1.77314,0,0,1,.55176-.374,1.73067,1.73067,0,0,1,1.34375,0,1.76516,1.76516,0,0,1,.92578.92676,1.71685,1.71685,0,0,1,0,1.34278,1.7651,1.7651,0,0,1-.92578.92675,1.73055,1.73055,0,0,1-1.34375,0,1.77329,1.77329,0,0,1-.55176-.374,1.74473,1.74473,0,0,1-.374-.55273A1.67335,1.67335,0,0,1,419.6543,677.86914Zm3.28125,3.34961v8.7207H419.8584v-8.7207Z" transform="translate(-85.46631 -117.33114)"/><path class="cls-6" d="M436.2627,681.21875v8.126a9.066,9.066,0,0,1-.085,1.30859,5.68307,5.68307,0,0,1-.2373,1.02051,3.21958,3.21958,0,0,1-.6377,1.04492,4.28906,4.28906,0,0,1-1.04589.8418,5.50149,5.50149,0,0,1-1.38477.56054,6.981,6.981,0,0,1-3.54492-.05078,5.10067,5.10067,0,0,1-1.48731-.70508,4.12525,4.12525,0,0,1-1.04589-1.05468,3.5034,3.5034,0,0,1-.54395-1.31739h3.46777a1.3834,1.3834,0,0,0,1.46192.86719,1.96049,1.96049,0,0,0,1.48828-.54394,2.10512,2.10512,0,0,0,.51855-1.5127v-.833a5.22458,5.22458,0,0,1-.65527.53516,3.71632,3.71632,0,0,1-.63672.34863,3.04836,3.04836,0,0,1-.68066.19531,4.72231,4.72231,0,0,1-.78125.05958,4.448,4.448,0,0,1-1.71778-.32325A3.96155,3.96155,0,0,1,426.47949,687.5a4.8965,4.8965,0,0,1-.31445-1.79395,5.01371,5.01371,0,0,1,.33984-1.86132,4.8057,4.8057,0,0,1,.92676-1.4961,4.22267,4.22267,0,0,1,3.15332-1.36816,3.38337,3.38337,0,0,1,2.60156,1.15625v-.918Zm-6.90137,4.31738a2.03958,2.03958,0,0,0,.56933,1.42871,1.883,1.883,0,0,0,.62891.42481,2.03534,2.03534,0,0,0,.791.15234,1.99362,1.99362,0,0,0,.77343-.15234,1.89274,1.89274,0,0,0,.62891-.42481,2.16728,2.16728,0,0,0,.4248-.63769,1.95785,1.95785,0,0,0,0-1.55567,2.10319,2.10319,0,0,0-.43359-.6289,1.951,1.951,0,0,0-.63769-.42481,1.92977,1.92977,0,0,0-.75586-.15332,1.84,1.84,0,0,0-.76563.16114,2.22613,2.22613,0,0,0-.62891.42578,1.99278,1.99278,0,0,0-.43359.62011A1.839,1.839,0,0,0,429.36133,685.53613Z" transform="translate(-85.46631 -117.33114)"/><path class="cls-6" d="M439.81641,681.21875h3.07714v1.10449a3.36926,3.36926,0,0,1,1.2754-1.02832,3.98442,3.98442,0,0,1,1.51269-.26367,3.77991,3.77991,0,0,1,1.57227.29785,3.13524,3.13524,0,0,1,1.11425.8418,2.41829,2.41829,0,0,1,.50977.98535,5.13268,5.13268,0,0,1,.13574,1.24121v5.542h-3.07715v-4.40332a4.72432,4.72432,0,0,0-.09375-1.04492,1.29378,1.29378,0,0,0-.331-.63769,1.16727,1.16727,0,0,0-.459-.28907,1.71063,1.71063,0,0,0-.54394-.085,1.5205,1.5205,0,0,0-1.19824.46778,1.93613,1.93613,0,0,0-.417,1.334v4.6582h-3.07714Z" transform="translate(-85.46631 -117.33114)"/><path class="cls-6" d="M459.29883,681.21875h3.09375v8.7207h-3.09375v-.96875a3.22918,3.22918,0,0,1-2.66895,1.24121,4.34527,4.34527,0,0,1-1.751-.34863,4.22441,4.22441,0,0,1-1.39453-.97754,4.51,4.51,0,0,1-.92579-1.47949,5.03816,5.03816,0,0,1-.332-1.85254,4.903,4.903,0,0,1,.32324-1.77637,4.5445,4.5445,0,0,1,.90137-1.4707,4.2509,4.2509,0,0,1,1.377-.99512,4.20285,4.20285,0,0,1,1.76758-.36523,3.55119,3.55119,0,0,1,2.70313,1.13965Zm-3.876,4.335a2.03953,2.03953,0,0,0,.56934,1.42774,1.85443,1.85443,0,0,0,.6289.4248,2.01812,2.01812,0,0,0,.791.15332,1.97672,1.97672,0,0,0,.77344-.15332,1.864,1.864,0,0,0,.6289-.4248,2.17631,2.17631,0,0,0,.42481-.62891,1.83889,1.83889,0,0,0,.16113-.76465,1.90072,1.90072,0,0,0-.16113-.77441,2.14975,2.14975,0,0,0-.42481-.63672,1.88084,1.88084,0,0,0-.6289-.42578,1.9935,1.9935,0,0,0-.77344-.15235,2.03516,2.03516,0,0,0-.791.15235,1.87105,1.87105,0,0,0-.6289.42578,2.07134,2.07134,0,0,0-.416.62012A1.85255,1.85255,0,0,0,455.42285,685.55371Z" transform="translate(-85.46631 -117.33114)"/><path class="cls-6" d="M469.02246,675.8291v14.11035h-3.07715V675.8291Z" transform="translate(-85.46631 -117.33114)"/><path id="SVGID" class="cls-7" d="M191.04505,678.15394a6.16081,6.16081,0,0,0-4.83362-2.53372,4.94165,4.94165,0,0,0-4.85242,5.04829,5.82534,5.82534,0,0,0,1.22887,3.38566l7.54128,8.0357c.84614.78315,1.00627.78315,1.85241,0l7.55826-8.0357a5.1489,5.1489,0,0,0,1.22888-3.38566,4.94166,4.94166,0,0,0-4.85243-5.04829A6.43642,6.43642,0,0,0,191.04505,678.15394Z" transform="translate(-85.46631 -117.33114)"/></g><g id="Ruby"><polyline class="cls-8" points="307.147 245.303 212.409 386.799 117.671 245.303 212.409 164.69"/><polygon class="cls-9" points="124.296 245.303 307.147 245.303 212.409 386.799 124.296 245.303"/><polygon class="cls-10" points="212.409 386.799 117.671 245.303 38.76 245.303 212.409 386.799"/><path class="cls-11" d="M471.52441,362.63379H392.61328V282.02148C440.91211,317.74121,471.52441,362.63379,471.52441,362.63379Z" transform="translate(-85.46631 -117.33114)"/><path class="cls-12" d="M392.613,362.63385l-94.73762-80.61226H392.613Z" transform="translate(-85.46631 -117.33114)"/><path class="cls-13" d="M389.21168,362.63385s-97.47621,40.81633-179.449,0Z" transform="translate(-85.46631 -117.33114)"/><path class="cls-14" d="M297.87542,504.13047s16.24364-50.29559,12.93489-85.37416c-2.19109-23.22935-17.041-34.37185-36.1697-39.28746-48.01481-12.33865-64.87794-16.835-64.87794-16.835Z" transform="translate(-85.46631 -117.33114)"/><polygon class="cls-15" points="386.058 245.303 307.147 245.303 307.147 245.303 212.409 386.799 309.208 245.303 386.058 245.303"/><path class="cls-16" d="M124.22622,362.63385H203.1378V282.02159l0,0a380.81528,380.81528,0,0,0-73.51058,73.4877Z" transform="translate(-85.46631 -117.33114)"/><polygon class="cls-17" points="117.671 245.303 212.409 164.69 117.671 164.69 117.671 245.303"/><path class="cls-18" d="M297.87542,504.13047,124.22622,362.63385s35.05345-48.59179,78.91158-80.61226H392.21168s43.25851,29.12931,79.31294,80.61226Z" transform="translate(-85.46631 -117.33114)"/><polygon class="cls-19" points="38.76 245.303 117.671 245.303 212.409 386.799 38.76 245.303"/><path class="cls-20" d="M225.91751,396.65679s31.60109,63.70243-60.23565-.24315L297.87542,504.13047Z" transform="translate(-85.46631 -117.33114)"/><polygon class="cls-21" points="307.147 245.303 305.745 164.69 307.147 164.69 307.147 245.303"/><polygon class="cls-22" points="117.671 217.296 116.745 164.69 118.147 164.69 117.671 217.296"/><polygon class="cls-23" points="212.409 164.69 178.371 193.654 211.038 164.69 212.409 164.69"/><polygon class="cls-24" points="117.671 244.296 38.285 245.303 117.671 245.303 117.671 244.296"/><path class="cls-25" d="M123.751,362.63385s20.5175-.173,36.03891-10.32648c18.023-11.78984,31.50876-34.10593,41.88534-68.52885C201.67522,283.77852,164.07263,309.695,123.751,362.63385Z" transform="translate(-85.46631 -117.33114)"/><path class="cls-26" d="M297.87542,282.02159l48.35739,41.14732S313.682,291.49773,297.87542,282.02159Z" transform="translate(-85.46631 -117.33114)"/><polygon class="cls-27" points="117.671 245.303 212.409 164.69 307.147 245.303 124.296 245.303 212.409 386.799 117.671 245.303"/><polygon class="cls-28" points="212.409 386.799 307.147 245.303 386.058 245.303 212.409 386.799"/></g><g id="Buildings"><rect class="cls-29" x="218.64379" y="107.22791" width="8.29547" height="56.06196"/><path class="cls-30" d="M320.86547,224.55905H298.79086a.91481.91481,0,0,1-.89379-.71981l-2.53749-11.63018a1.31523,1.31523,0,0,1,1.285-1.59559h29.84767a1.26543,1.26543,0,0,1,1.15869,1.77412L322.887,223.23877A2.20778,2.20778,0,0,1,320.86547,224.55905Z" transform="translate(-85.46631 -117.33114)"/><rect class="cls-31" x="218.60127" y="107.31294" width="3.06122" height="48.08674"/><polygon class="cls-32" points="218.644 109.864 226.939 116.667 226.939 107.228 218.644 107.228 218.644 109.864"/><path class="cls-33" d="M300.28357,210.61347s-.80388-6.06268,1.74319-6.0327c4.42228.05207,10.37881.0378,10.37881.0378s2.22749-.12283,2.44007,1.40306c.26053,1.87.44643,4.59184.44643,4.59184Z" transform="translate(-85.46631 -117.33114)"/><path class="cls-3" d="M304.64156,204.58077v-4.52619a1.895,1.895,0,0,0-.28274-.99582l-.25814-.418a1.28761,1.28761,0,0,1,.75369-1.92936,6.48128,6.48128,0,0,1,1.57291-.19237h3.91679a1.63152,1.63152,0,0,1,1.62952,1.55078l.00216.0436c.01156.266.03307.64956.06054,1.09919.124,2.02948.36928,5.40592.36928,5.40592Z" transform="translate(-85.46631 -117.33114)"/><rect class="cls-34" x="222.30812" y="47.10885" width="2.1605" height="32.07909"/><path class="cls-3" d="M326.11487,215.88643H299.81506a.65072.65072,0,0,1-.637-.51766l-.15231-.72917a.65519.65519,0,0,1,.64135-.78916h27.34158Z" transform="translate(-85.46631 -117.33114)"/><path class="cls-3" d="M324.35877,219.88643H301.026a.85558.85558,0,0,1-.83751-.68064l-.12016-.57527a.64766.64766,0,0,1,.634-.78008h24.55034Z" transform="translate(-85.46631 -117.33114)"/><path class="cls-35" d="M320.95151,224.52641,298.76,224.558a.87525.87525,0,0,1-.85638-.68867l-.38679-1.77279h25.87161l-.50361,1.15967A2.11106,2.11106,0,0,1,320.95151,224.52641Z" transform="translate(-85.46631 -117.33114)"/><path class="cls-36" d="M303.58035,210.37166l.06206-3.91718c.09915-.72426-1.01474-1.21741-1.57313-.82313-1.1267.79556-.91649,2.64437-.91442,4.99646.00043.48743.32463.43.77954.43h.90247A.76893.76893,0,0,0,303.58035,210.37166Z" transform="translate(-85.46631 -117.33114)"/><polygon class="cls-37" points="222.308 49.046 224.469 50.808 224.469 47.109 222.308 47.109 222.308 49.046"/><polygon class="cls-38" points="251.461 120.068 251.461 120.068 249.128 125.393 244.622 131.037 245.001 158.721 258.461 161.443 258.461 134.141 253.961 125.393 251.461 120.068"/><path class="cls-3" d="M312.40557,161.82222c0,2.60434-1.81217,3.42644-3.80993,3.42644s-3.42461-.8221-3.42461-3.42644,1.61951-3.39754,3.61727-3.39754S312.40557,159.21789,312.40557,161.82222Z" transform="translate(-85.46631 -117.33114)"/><rect class="cls-39" x="183.39719" y="124.06464" width="13.45663" height="40.62581" rx="2.74526"/><path class="cls-40" d="M314.18493,249.85113h1.32778a.77936.77936,0,0,1,.77936.77936V252.511a.77936.77936,0,0,0,.77936.77936h2.2253a.77936.77936,0,0,1,.77936.77936v19.36988a.77936.77936,0,0,1-.77936.77936h-5.1118a.77936.77936,0,0,1-.77936-.77936V250.63049A.77936.77936,0,0,1,314.18493,249.85113Z" transform="translate(-85.46631 -117.33114)"/><path class="cls-32" d="M336.92728,237.39918l.39406,3.91357a20.46133,20.46133,0,0,0,.588,3.22259l.93716,3.51436h5.08078l-4.5-5.32526Z" transform="translate(-85.46631 -117.33114)"/><path class="cls-41" d="M343.38718,251.65257h-12.9198c-1.27105,0-2.30143-.03039-2.30143-1.30144v-.7394a1.562,1.562,0,0,1,1.562-1.562h14.3986a1.562,1.562,0,0,1,1.562,1.562v.7394C345.68861,251.62218,344.65823,251.65257,343.38718,251.65257Zm2.30143,3.69856v-.7394a1.562,1.562,0,0,0-1.562-1.562H329.728a1.562,1.562,0,0,0-1.562,1.562v.7394c0,1.27105,1.03038,1.30144,2.30143,1.30144h12.9198C344.65823,256.65257,345.68861,256.62218,345.68861,255.35113Zm0,5v-.7394a1.562,1.562,0,0,0-1.562-1.562H329.728a1.562,1.562,0,0,0-1.562,1.562v.7394c0,1.27105,1.03038,1.30144,2.30143,1.30144h12.9198C344.65823,261.65257,345.68861,261.62218,345.68861,260.35113Zm0,5v-.7394a1.562,1.562,0,0,0-1.562-1.562H329.728a1.562,1.562,0,0,0-1.562,1.562v.7394c0,1.27105,1.03038,1.30144,2.30143,1.30144h12.9198C344.65823,266.65257,345.68861,266.62218,345.68861,265.35113Z" transform="translate(-85.46631 -117.33114)"/><path class="cls-42" d="M280.088,245.4349l-.38266,36.58669h21.43274V238.71825a2.81162,2.81162,0,0,0-1.99439-2.69022l-6.68324-2.03021H278.31738a2.18348,2.18348,0,0,0-2.18348,2.18348v5.104a2.73124,2.73124,0,0,0,1.187,2.25278Z" transform="translate(-85.46631 -117.33114)"/><rect class="cls-43" x="279.90251" y="244.59477" width="0.6044" height="37.14778" transform="translate(474.94312 409.00617) rotate(180)"/><path class="cls-44" d="M276.43185,242.52318h16.02859v-8.52536l6.47937,1.93653a3.08036,3.08036,0,0,1,2.19826,2.95135v43.13589H293.6305V249.389L280.088,245.4349A16.67884,16.67884,0,0,1,276.43185,242.52318Z" transform="translate(-85.46631 -117.33114)"/><line class="cls-45" x1="176.80705" y1="133.25512" x2="209.39539" y2="163.97701"/><path class="cls-46" d="M341.26443,266.65257h2.62479a1.80144,1.80144,0,0,0,1.80144-1.80144h0c0-.9949-.80653-.80143-1.80144-.80143h-2.62479c-.99491,0-1.80144,1.608-1.80144,2.60287h1.80144Z" transform="translate(-85.46631 -117.33114)"/><line class="cls-47" x1="225.45522" y1="163.28987" x2="176.80705" y2="117.37757"/><line class="cls-48" x1="176.80705" y1="125.25512" x2="217.8869" y2="163.97701"/><rect class="cls-34" x="192.45331" y="118.58958" width="12.7551" height="4.59184"/><polygon class="cls-49" points="193.346 123.181 193.346 120.558 205.208 120.558 205.208 118.59 192.453 118.59 192.453 123.181 193.346 123.181"/><polygon class="cls-50" points="128.572 121.621 132.739 118.609 137.161 118.609 137.161 160.449 134.738 160.449 134.005 121.621 128.572 121.621"/><polygon class="cls-51" points="127.424 164.517 121.387 121.621 119.941 112.854 120.654 112.854 122.47 121.621 134.005 121.621 134.907 164.517 127.424 164.517"/><path class="cls-52" d="M222.6475,247.61222v29.04756a2.05374,2.05374,0,0,0,2.05373,2.05374h3.12043a2.05373,2.05373,0,0,0,2.05373-2.05374V249.666a2.05373,2.05373,0,0,0-2.05373-2.05374Z" transform="translate(-85.46631 -117.33114)"/><line class="cls-53" x1="176.80705" y1="141.25512" x2="200.90936" y2="163.97701"/><path class="cls-54" d="M262.99615,226.41732v35.23525l10.20408,20.369h-7.14286L258.53186,262.035V235.51181a8.2333,8.2333,0,0,1,1.092-4.09749l2.93413-5.11377A.23463.23463,0,0,1,262.99615,226.41732Z" transform="translate(-85.46631 -117.33114)"/><polygon class="cls-55" points="177.53 144.321 194.239 164.69 187.734 164.69 177.53 144.321"/><polygon class="cls-56" points="173.066 124.405 168.559 128.571 168.559 131.356 173.066 127.881 173.066 124.405"/><path class="cls-57" d="M262.99615,261.65257l-1.318-1.8044v-27.5223a10.44654,10.44654,0,0,1,.28076-2.40564l1.03727-3.50291Z" transform="translate(-85.46631 -117.33114)"/><path class="cls-58" d="M235.23254,216.34594v27.06972a1.4901,1.4901,0,0,0,.8547,1.36634,3.74032,3.74032,0,0,1,1.70344,1.69651,1.48381,1.48381,0,0,1,.16294.68822v33.85486h8.84353V212.85044H238.728A3.4955,3.4955,0,0,0,235.23254,216.34594Z" transform="translate(-85.46631 -117.33114)"/><path class="cls-59" d="M254.02368,244.59477h-7.22789V212.85045h6.405a.82285.82285,0,0,1,.82285.82285Z" transform="translate(-85.46631 -117.33114)"/><rect class="cls-60" x="159.11997" y="95.51932" width="2.21088" height="68.17114"/><path class="cls-61" d="M237.99614,212.96743h0c-1.5263,0-2.89115,2.06781-2.7636,3.7636v26.69981a1.67985,1.67985,0,0,0,.48024,1.17594l.12233.06542a4.439,4.439,0,0,1,1.56062,1.39366l.60041.87026Z" transform="translate(-85.46631 -117.33114)"/><rect class="cls-3" x="160.33086" y="98.10886" width="6.20748" height="1.95578" rx="0.97789"/><path class="cls-62" d="M223.37433,274.869c-.11112,2.28475-2.39633,4.03014-5.10416,3.89844s-4.81288-2.09062-4.70175-4.37537,2.13346-6.75957,4.84129-6.62787S223.48545,272.58422,223.37433,274.869Z" transform="translate(-85.46631 -117.33114)"/><rect class="cls-63" x="161.33086" y="127.26363" width="6.20748" height="36.42683"/><rect class="cls-30" x="159.62465" y="92.68946" width="0.72279" height="2.81922"/><path class="cls-64" d="M241.08033,210.65683v-7.64544a.29689.29689,0,0,1,.55576-.14535l3.47325,6.18594a.38948.38948,0,0,0,.67922,0l3.49553-6.22561a.285.285,0,0,1,.53348.13952v7.69094" transform="translate(-85.46631 -117.33114)"/><path class="cls-65" d="M341.26443,251.65257h2.62479a1.80144,1.80144,0,0,0,1.80144-1.80144h0c0-.9949-.80653-.80143-1.80144-.80143h-2.62479c-.99491,0-1.80144,1.608-1.80144,2.60287h1.80144Z" transform="translate(-85.46631 -117.33114)"/><path class="cls-66" d="M341.26443,256.65257h2.62479a1.80144,1.80144,0,0,0,1.80144-1.80144h0c0-.9949-.80653-.80143-1.80144-.80143h-2.62479c-.99491,0-1.80144,1.608-1.80144,2.60287h1.80144Z" transform="translate(-85.46631 -117.33114)"/><path class="cls-67" d="M341.26443,261.65257h2.62479a1.80144,1.80144,0,0,0,1.80144-1.80144h0c0-.9949-.80653-.80143-1.80144-.80143h-2.62479c-.99491,0-1.80144,1.608-1.80144,2.60287h1.80144Z" transform="translate(-85.46631 -117.33114)"/><rect class="cls-3" x="160.33086" y="104.10886" width="6.20748" height="1.95578" rx="0.97789"/><rect class="cls-3" x="245.79716" y="221.44" width="6.20748" height="1.95578" rx="0.97789" transform="translate(412.3355 327.50464) rotate(-180)"/><rect class="cls-3" x="245.79716" y="227.44" width="6.20748" height="1.95578" rx="0.97789" transform="translate(412.3355 339.50464) rotate(-180)"/><rect class="cls-3" x="245.79716" y="233.44" width="6.20748" height="1.95578" rx="0.97789" transform="translate(412.3355 351.50464) rotate(-180)"/><polygon class="cls-68" points="146.964 156.69 145.34 156.69 145.34 152.944 145.34 151.481 146.964 151.481 146.964 153.933 146.964 156.69"/><rect class="cls-68" x="156.42419" y="153.48132" width="1.45619" height="5.20914"/><path class="cls-69" d="M203.613,282.02159s1.68752-5.06709,11.72153-7.80267,31.37756.46929,47.66158,7.80267Z" transform="translate(-85.46631 -117.33114)"/><rect class="cls-3" x="245.79716" y="239.44" width="6.20748" height="1.95578" rx="0.97789" transform="translate(412.3355 363.50464) rotate(-180)"/><polygon class="cls-32" points="145.34 151.481 145.34 153.295 146.964 153.933 146.964 151.481 145.34 151.481"/><path class="cls-70" d="M237.9462,263.789a6.29252,6.29252,0,0,1-12.57018-.61137c.16882-3.47116,2.81393-10.2904,6.28509-10.12158S238.115,260.31786,237.9462,263.789Z" transform="translate(-85.46631 -117.33114)"/><polygon class="cls-32" points="156.393 154.086 156.393 156.38 157.88 157.187 157.88 154.086 156.393 154.086"/><path class="cls-71" d="M242.61859,273.20567a3.8635,3.8635,0,0,1-3.8635-3.8635c0-2.13375,1.71409-7.30715,3.84784-7.30715s3.87916,5.1734,3.87916,7.30715A3.8635,3.8635,0,0,1,242.61859,273.20567Z" transform="translate(-85.46631 -117.33114)"/><rect class="cls-72" x="273.06943" y="117.37757" width="14.99355" height="32.39976" rx="1.36039"/><path class="cls-73" d="M345.68861,270.35113v-.7394a1.562,1.562,0,0,0-1.562-1.562H329.728a1.562,1.562,0,0,0-1.562,1.562v.7394c0,1.27105,1.03038,1.30144,2.30143,1.30144h12.9198C344.65823,271.65257,345.68861,271.62218,345.68861,270.35113Z" transform="translate(-85.46631 -117.33114)"/><polygon class="cls-68" points="230.168 161.39 228.544 161.39 228.544 157.644 228.544 156.181 230.168 156.181 230.168 158.633 230.168 161.39"/><rect class="cls-74" x="264.88038" y="138.4354" width="6.03929" height="15.65049" rx="2.75375"/><polygon class="cls-32" points="228.534 155.022 228.534 157.316 230.163 158.123 230.163 155.022 228.534 155.022"/><path class="cls-75" d="M314.86764,274.194a5.41934,5.41934,0,0,1-5.41933-5.41934c0-2.993,2.42632-7.72792,5.41933-7.72792s5.41933,4.73491,5.41933,7.72792A5.41933,5.41933,0,0,1,314.86764,274.194Z" transform="translate(-85.46631 -117.33114)"/><path class="cls-76" d="M352.01835,270.38046l22.0668-13.7279s4.80395-2.66843,4.63389,4.79487-.85035,17.98707-.85035,17.98707h-19.898Z" transform="translate(-85.46631 -117.33114)"/><polygon class="cls-32" points="263.393 156.086 263.393 158.38 264.88 159.187 264.88 156.086 263.393 156.086"/><path class="cls-77" d="M323.14522,273.57723c0-2.13375,1.72975-7.71283,3.8635-7.71283s3.8635,5.57908,3.8635,7.71283a3.8635,3.8635,0,0,1-7.727,0Z" transform="translate(-85.46631 -117.33114)"/><path class="cls-78" d="M352.00234,274.89841l18.54656-11.5397s4.182-1.93609,4.182,3.88408v14.7788H354.4406Z" transform="translate(-85.46631 -117.33114)"/><path class="cls-79" d="M341.26443,271.65257h2.62479a1.80144,1.80144,0,0,0,1.80144-1.80144h0c0-.9949-.80653-.80143-1.80144-.80143h-2.62479c-.99491,0-1.80144,1.608-1.80144,2.60287h1.80144Z" transform="translate(-85.46631 -117.33114)"/><rect class="cls-30" x="155.25092" y="93.32569" width="0.72279" height="2.19361"/><rect class="cls-30" x="164.02473" y="93.32569" width="0.72279" height="2.19361"/><rect class="cls-32" x="253.99669" y="134.32143" width="4.46429" height="1.39713"/><rect class="cls-32" x="253.98308" y="139.34475" width="4.46429" height="1.39713"/><rect class="cls-32" x="253.98308" y="144.31924" width="4.46429" height="1.39713"/><rect class="cls-32" x="253.98308" y="149.31499" width="4.46429" height="1.39713"/><polygon class="cls-80" points="258.447 155.734 253.89 155.205 253.983 154.337 258.447 154.337 258.447 155.734"/><polygon class="cls-81" points="288.627 146.819 288.274 146.41 291.885 139.337 292.079 139.501 292.259 139.704 288.627 146.819"/><polygon class="cls-81" points="283.212 148.165 282.712 148.141 282.963 142.841 283.48 142.52 283.212 148.165"/><polygon class="cls-81" points="280.199 149.066 279.941 144.72 280.425 144.419 280.682 148.765 280.199 149.066"/><polygon class="cls-81" points="277.073 151.021 276.385 146.932 276.843 146.647 277.529 150.727 277.073 151.021"/><polygon class="cls-81" points="285.675 146.526 285.187 146.416 286.498 140.641 287.095 140.269 285.675 146.526"/><path class="cls-82" d="M356.09292,272.35325l14.456-8.99454s2.37337-1.19757,3.6178.98353l.56416,2.90055c-1.7432.82923-19.38776,7.72476-19.38776,7.72476Z" transform="translate(-85.46631 -117.33114)"/><path class="cls-83" d="M356.37727,274.66192c-.16686,3.4307-2.49725,6.10506-5.20508,5.97336s-4.76769-3.01959-4.60083-6.45029,2.30049-10.19382,5.00832-10.06211S356.54413,271.23123,356.37727,274.66192Z" transform="translate(-85.46631 -117.33114)"/><path class="cls-84" d="M365.3723,282.02159s-5.357-2.63688-11.19532-5.15262a53.04387,53.04387,0,0,0-18.34444-3.94978c-17.97207,0-34.69447,9.1024-34.69447,9.1024Z" transform="translate(-85.46631 -117.33114)"/><polygon class="cls-81" points="273.925 152.759 272.773 149.179 273.211 148.907 274.402 152.606 273.925 152.759"/><polygon class="cls-81" points="289.262 149.687 289.23 149.049 293.215 145.538 293.194 146.222 289.262 149.687"/><polygon class="cls-81" points="289.28 152.895 289.28 152.324 293.054 149.935 293.028 150.544 289.28 152.895"/><polygon class="cls-85" points="289.271 156.128 289.278 155.569 292.868 153.913 292.834 154.479 289.271 156.128"/><rect class="cls-86" x="275.47492" y="119.37757" width="0.9819" height="27.76688" rx="0.2855"/><rect class="cls-87" x="278.47492" y="119.37757" width="0.9819" height="27.76688" rx="0.27435"/><rect class="cls-88" x="281.47492" y="119.37757" width="0.9819" height="27.76688" rx="0.28073"/><path class="cls-30" d="M276.94414,114.4558h9.04491a.70917.70917,0,0,1,.70917.70917v2.2126a0,0,0,0,1,0,0H276.239a0,0,0,0,1,0,0V115.1609A.7051.7051,0,0,1,276.94414,114.4558Z"/><path class="cls-33" d="M365.93218,230.80283v-1.34744a.79836.79836,0,0,1,.80319-.79345h2.18489a.79836.79836,0,0,1,.80319.79345v2.33155h-3.79127" transform="translate(-85.46631 -117.33114)"/><path class="cls-35" d="M372.16453,233.95531h-1.76348a1.121,1.121,0,0,1-.99255-.6l-.11779-.22439a1.121,1.121,0,0,0-.99256-.6H367.001a1.45154,1.45154,0,0,0-1.3861,1.0206l-.00819.02632a.53674.53674,0,0,1-.51255.3774h-1.99262a5.7742,5.7742,0,0,0-2.6381.63788l-.22491.11552h11.926Z" transform="translate(-85.46631 -117.33114)"/><rect class="cls-30" x="277.7702" y="112.81889" width="3.40136" height="2.38095" rx="0.70568"/><path class="cls-89" d="M369.72345,229.65046v-9.07015s-.2044-.22322-.4112-.07972-.74636,8.16135-.74636,8.16135Z" transform="translate(-85.46631 -117.33114)"/><rect class="cls-90" x="284.47492" y="119.37757" width="0.9819" height="27.76688" rx="0.28073"/><path class="cls-91" d="M390.44407,280.621h-6.97451a1.46829,1.46829,0,0,1-1.46829-1.46829V247.3864a1.46828,1.46828,0,0,1,.6768-1.23669l5.02393-3.21531a1.46827,1.46827,0,0,1,1.17836-.17971l1.95059.53279a1.46829,1.46829,0,0,1,1.08141,1.4164v34.44884A1.4683,1.4683,0,0,1,390.44407,280.621Z" transform="translate(-85.46631 -117.33114)"/><path class="cls-92" d="M391.885,279.4345h-3.63147V243.45759c0-.46119.18129-.822.62684-.7029l1.76964.42955a1.70043,1.70043,0,0,1,1.26136,1.64407Z" transform="translate(-85.46631 -117.33114)"/><path class="cls-93" d="M292.54547,198.11346h-23.9796s-3.31632.00087.39084-3.45746a6.98456,6.98456,0,0,1,1.39488-.79424c.89594-.4853,3.46-3.88776,4.2517-4.23044,3.9389-1.70493,4.87579,1.21307,6.34192,1.40917a1.33623,1.33623,0,0,0,1.515-1.04982c.34018-1.85,3.036-5.95884,7.02407-4.29217,4.273,1.78571,3.18877,5.61224,3.14493,6.77615a1.38545,1.38545,0,0,0,.49776,1.096C294.58644,194.82125,297.91837,198.11346,292.54547,198.11346Z" transform="translate(-85.46631 -117.33114)"/><path class="cls-93" d="M200.28355,214.355s2.04082-7.65306,12.07483-2.21088c0,0,1.87075-6.69919,5.69728-5.47545,0,0,2.89116.20334,1.02041,7.68633,0,0,7.14286,1.82994,4.08163,3.04082H189.99443S188.71892,214.86517,200.28355,214.355Z" transform="translate(-85.46631 -117.33114)"/><path class="cls-93" d="M390.67474,215.88643s4.84694-9.52467,6.46258.93452c0,0,10.71429,3.06548,3.82653,3.06548H378.17474s0-1.60174,4.16666-2.036C382.3414,217.85044,386.338,212.741,390.67474,215.88643Z" transform="translate(-85.46631 -117.33114)"/><polygon class="cls-94" points="121.195 112.854 119.941 112.854 121.387 121.621 124.128 121.621 121.195 112.854"/><polygon class="cls-95" points="134.907 157.481 132.867 157.481 132.867 121.621 134.035 121.621 134.907 157.481"/><path class="cls-59" d="M215.857,246.93612h-7.88l-.24271-1.72443h8.1227a.71054.71054,0,0,1,.71054.71054v.30335A.71054.71054,0,0,1,215.857,246.93612Z" transform="translate(-85.46631 -117.33114)"/><path class="cls-59" d="M215.8582,251.93612h-7.17744l-.24271-1.72443h7.42015a.70937.70937,0,0,1,.70937.70937v.30569A.70937.70937,0,0,1,215.8582,251.93612Z" transform="translate(-85.46631 -117.33114)"/><path class="cls-59" d="M215.85285,256.93612h-6.46837l-.24271-1.72443h6.71108a.71472.71472,0,0,1,.71472.71471v.295A.71472.71472,0,0,1,215.85285,256.93612Z" transform="translate(-85.46631 -117.33114)"/><path class="cls-59" d="M215.86178,261.93612H210.0882l-.24271-1.72443h6.01629a.70579.70579,0,0,1,.70579.70579v.31285A.70579.70579,0,0,1,215.86178,261.93612Z" transform="translate(-85.46631 -117.33114)"/></g></g></svg>